<svg version="1.1" id="about-main-icon" xmlns="http://www.w3.org/2000/svg" xmlns:xlink="http://www.w3.org/1999/xlink" x="0px" y="0px"
     viewBox="0 0 180 180" style="width: 100%; height: 100%">
    <text transform="matrix(1 0 0 1 46.8557 104.3306)" style="font-size:29px;">About</text>
    <path class="about-icon one" style="fill:#E6E6E6;" d="M78.8,38.6l-32.3-9.9c-0.2-0.1-0.4-0.1-0.6,0l-29.9,9.9c-0.4,0.1-0.7,0.5-0.7,0.9
	c0,0.4,0.2,0.8,0.6,1l4.2,1.6v16.4c-1.9,0.5-3.2,2.1-3.2,4.1c0,0.3,0,0.6,0.1,0.9L13.6,76c-0.1,0.3,0,0.6,0.2,0.9
	c0.2,0.2,0.5,0.4,0.8,0.4h13.3c0.3,0,0.6-0.2,0.8-0.4c0.2-0.2,0.2-0.6,0.2-0.9l-3.5-12.5c0.1-0.3,0.1-0.6,0.1-0.9
	c0-2-1.4-3.6-3.2-4.1V42.9l6.4,2.5v13c0,5.4,18.1,6.7,18.3,6.7s18.3-1.4,18.3-6.7V45.8l13.6-5.3c0.4-0.1,0.7-0.5,0.6-1
	C79.5,39.1,79.2,38.7,78.8,38.6z M15.9,75.3l2.6-9.4c0.7,0.6,1.7,1,2.7,1s2-0.4,2.7-1l2.6,9.4H15.9z M23.4,62.6c0,1.2-1,2.2-2.2,2.2
	s-2.2-1-2.2-2.2s1-2.2,2.2-2.2S23.4,61.4,23.4,62.6z M46.9,63.1c-4.1,0-16.3-2.5-16.3-4.7v-2.7c4.7,3,16.2,3.9,16.3,3.9
	s11.6-0.8,16.3-3.9v2.7C63.3,60.6,51,63.1,46.9,63.1z M63.3,52.8c0,2.3-12.2,4.7-16.3,4.7s-16.3-2.5-16.3-4.7v-6.6L47,52.6
	c0.4,0.1,0.6,0,0.7,0l15.5-6L63.3,52.8L63.3,52.8z M47.4,50.6L19.3,39.6l26.9-8.9l29.2,8.9L47.4,50.6z"/>
    <path class="about-icon two" style="fill:#E6E6E6;" d="M151.5,147c-0.3-0.3-0.8-0.3-1.1,0c-0.1,0.1-0.2,0.3-0.2,0.5V165c0,0.4,0.3,0.8,0.8,0.8
	c0.1,0,0.2,0,0.3-0.1l3.3-1.5l0.9,2.1c0.1,0.2,0.2,0.3,0.4,0.4c0.1,0,0.2,0.1,0.3,0.1c0.1,0,0.2,0,0.3-0.1l4.6-2
	c0.4-0.2,0.5-0.6,0.4-1l-0.9-2.1l3.3-1.4c0.2-0.1,0.4-0.3,0.4-0.6c0-0.3,0-0.5-0.2-0.7L151.5,147z M159.3,160.4
	c-0.4,0.2-0.5,0.6-0.4,1l0.9,2.1l-3.3,1.4l-0.9-2.1c-0.1-0.2-0.2-0.3-0.4-0.4c-0.2-0.1-0.4-0.1-0.6,0l-2.9,1.4v-14.5l10.6,9.8
	L159.3,160.4z M150.1,137.5c0-5-4-9-9-9c-5,0-9,4-9,9c0,3.4,1.9,6.5,4.9,8c-6.3,1.7-10.9,7.2-11.5,13.7c-1.7-1.6-3.1-3.4-4.2-5.4
	c-4.3-7.6-3.9-17.1,1.2-24.3c5.2-7.4,14.2-11,23-9.2c1.1,0.2,2.2,0.5,3.2,0.9c1.9,0.7,3.7,1.6,5.3,2.7c1.2,0.9,2.4,1.9,3.5,2.9
	c1.4,1.4,2.6,3.1,3.5,4.8c0.5,0.9,0.9,1.8,1.3,2.8c0.4,1.1,0.8,2.2,1,3.4c0.3,1.6,0.5,3.2,0.5,4.8c0,1.3-0.1,2.5-0.3,3.8
	c-0.1,0.6-0.2,1.2-0.4,1.7c-0.4,1.7-1.1,3.4-1.9,5l-0.1,0.1c-0.2,0.4,0,0.8,0.3,1c0.4,0.2,0.8,0,1-0.3l0.1-0.1
	c6.2-11.9,1.6-26.6-10.3-32.8c-0.2-0.1-0.4-0.2-0.7-0.3c-0.6-0.3-1.3-0.6-2-0.9c-0.8-0.3-1.6-0.5-2.4-0.8c-3.8-1-7.8-1-11.6-0.1
	c-6.3,1.5-11.8,5.5-15.2,11c-2.3,3.8-3.6,8.2-3.5,12.6c0,13.4,10.9,24.3,24.3,24.3c2.4,0,4.8-0.4,7.1-1c0.4-0.1,0.6-0.5,0.5-0.9
	c-0.1-0.4-0.5-0.6-0.9-0.5c-7.1,2.2-14.9,0.7-20.7-4c0.1-7.8,6.5-14.1,14.3-14c1.5,0,2.9,0.3,4.3,0.7c0.7,0.2,1.4,0.5,2,0.9
	c0.4,0.2,0.8,0,1-0.3c0.2-0.4,0-0.8-0.3-1c-1-0.5-2-0.9-3.1-1.2C148.2,144,150.1,140.9,150.1,137.5z M141.1,144.9
	c-4.1,0-7.5-3.3-7.5-7.5s3.3-7.5,7.5-7.5s7.5,3.3,7.5,7.5l0,0C148.6,141.6,145.3,144.9,141.1,144.9z"/>
</svg>