<svg version="1.1" id="photography-main-icon" xmlns="http://www.w3.org/2000/svg" xmlns:xlink="http://www.w3.org/1999/xlink" x="0px" y="0px"
     viewBox="0 0 180 180" style="width: 100%; height: 100%">
    <text transform="matrix(1 0 0 1 0 104.3306)" style="font-size:28px;">Photography
    </text>
    <path class="photography-icon one" style="fill:#E6E6E6;" d="M148,73.7c-0.4,0-0.8,0-1.2-0.2l-36.2-9.7c-2.5-0.7-4-3.3-3.3-5.7l4.6-17c0.2-0.6,0.8-1,1.4-0.8
	s1,0.8,0.8,1.4l-4.6,17c-0.3,1.2,0.4,2.5,1.7,2.9l36.2,9.7c1.2,0.3,2.5-0.4,2.8-1.6l1.8-6.8c0.2-0.6,0.8-1,1.4-0.8
	c0.6,0.2,1,0.8,0.8,1.4l-1.8,6.8C152,72.3,150.1,73.7,148,73.7z M158.7,59.7h-37.5c-2.6,0-4.7-2.1-4.7-4.7V26.9
	c0-2.6,2.1-4.7,4.7-4.7h37.4c2.6,0,4.7,2.1,4.7,4.7V55C163.4,57.6,161.3,59.7,158.7,59.7z M121.2,24.6c-1.3,0-2.3,1.1-2.3,2.3V55
	c0,1.3,1.1,2.3,2.3,2.3h37.5c1.3,0,2.3-1.1,2.3-2.3V26.9c0-1.3-1.1-2.3-2.3-2.3C158.7,24.6,121.2,24.6,121.2,24.6z M128.3,38.6
	c-2.6,0-4.7-2.1-4.7-4.7s2.1-4.7,4.7-4.7c2.6,0,4.7,2.1,4.7,4.7C132.9,36.5,130.8,38.6,128.3,38.6z M128.3,31.6
	c-1.3,0-2.3,1.1-2.3,2.3c0,1.3,1.1,2.3,2.3,2.3c1.2,0,2.3-1.1,2.3-2.3C130.6,32.6,129.6,31.6,128.3,31.6z M117.9,57.2
	c-0.3,0-0.6-0.1-0.8-0.3c-0.5-0.5-0.5-1.2,0-1.7l11.1-11.1c1.3-1.3,3.6-1.3,5,0l3.3,3.3l9.1-10.9c0.7-0.8,1.6-1.3,2.7-1.3l0,0
	c1,0,2,0.4,2.7,1.2l12.2,14.3c0.4,0.5,0.4,1.2-0.1,1.7c-0.5,0.4-1.2,0.4-1.7-0.1L149.2,38c-0.2-0.3-0.5-0.4-0.9-0.4
	c-0.2,0-0.7,0.1-0.9,0.4l-9.9,11.9c-0.2,0.3-0.5,0.4-0.8,0.4s-0.6-0.1-0.9-0.3l-4.2-4.2c-0.4-0.4-1.2-0.4-1.7,0l-11.1,11.1
	C118.5,57.1,118.2,57.2,117.9,57.2z"/>
    <path class="photography-icon two" style="fill:#E6E6E6;" d="M80.9,162.4c1.7,0,3.1-1.4,3.1-3.1v-11.4c1.2-0.9,2.1-2.4,2.1-4.1c0-1.7-0.8-3.2-2.1-4.1v-11.4
	c0-1.7-1.4-3.1-3.1-3.1s-3.1,1.4-3.1,3.1v11.4c-1.2,0.9-2.1,2.4-2.1,4.1c0,1.7,0.8,3.2,2.1,4.1v11.4C77.8,161,79.2,162.4,80.9,162.4
	z M82,159.3c0,0.6-0.5,1-1,1s-1-0.5-1-1v-10.4c0.3,0.1,0.7,0.1,1,0.1c0.4,0,0.7,0,1-0.1V159.3z M79.9,128.4c0-0.6,0.5-1,1-1
	s1,0.5,1,1v10.4c-0.3-0.1-0.7-0.1-1-0.1c-0.4,0-0.7,0-1,0.1V128.4z M80.9,140.8c1.7,0,3.1,1.4,3.1,3.1c0,1.7-1.4,3.1-3.1,3.1
	s-3.1-1.4-3.1-3.1S79.2,140.8,80.9,140.8z M68.6,162.4c1.7,0,3.1-1.4,3.1-3.1v-19.6c1.2-0.9,2.1-2.4,2.1-4.1c0-1.7-0.8-3.2-2.1-4.1
	v-3.1c0-1.7-1.4-3.1-3.1-3.1c-1.7,0-3.1,1.4-3.1,3.1v3.1c-1.2,0.9-2.1,2.4-2.1,4.1c0,1.7,0.8,3.2,2.1,4.1v19.6
	C65.5,161,66.9,162.4,68.6,162.4z M69.6,159.3c0,0.6-0.5,1-1,1s-1-0.5-1-1v-18.7c0.3,0.1,0.7,0.1,1,0.1c0.4,0,0.7,0,1-0.1V159.3z
	 M67.5,128.4c0-0.6,0.5-1,1-1s1,0.5,1,1v2.2c-0.3-0.1-0.7-0.1-1-0.1c-0.4,0-0.7,0-1,0.1V128.4z M68.6,132.5c1.7,0,3.1,1.4,3.1,3.1
	c0,1.7-1.4,3.1-3.1,3.1c-1.7,0-3.1-1.4-3.1-3.1C65.5,133.9,66.9,132.5,68.6,132.5z M93.3,162.4c1.7,0,3.1-1.4,3.1-3.1v-3
	c1.2-0.9,2.1-2.4,2.1-4.1c0-1.7-0.8-3.2-2.1-4.1v-19.6c0-1.7-1.4-3.1-3.1-3.1s-3.1,1.4-3.1,3.1v19.6c-1.2,0.9-2.1,2.4-2.1,4.1
	c0,1.7,0.8,3.2,2.1,4.1v3.1C90.2,161,91.6,162.4,93.3,162.4z M94.4,159.3c0,0.6-0.5,1-1,1c-0.6,0-1-0.5-1-1v-2.2
	c0.3,0.1,0.7,0.1,1,0.1c0.4,0,0.7,0,1-0.1V159.3z M92.3,128.4c0-0.6,0.5-1,1-1c0.6,0,1,0.5,1,1v18.7c-0.3-0.1-0.7-0.1-1-0.1
	c-0.4,0-0.7,0-1,0.1C92.3,147.1,92.3,128.4,92.3,128.4z M93.3,149c1.7,0,3.1,1.4,3.1,3.1c0,1.7-1.4,3.1-3.1,3.1s-3.1-1.4-3.1-3.1
	C90.2,150.4,91.6,149,93.3,149z"/>
    <path class="photography-icon three"
          style="fill-rule:evenodd;clip-rule:evenodd;fill:#E6E6E6;" d="M59.7,70.6H14.9c-2.3,0-4.1-1.9-4.1-4.1V38.3c0-2.3,1.9-4.1,4.1-4.1h13.6l3.1-4.6
	c0.2-0.2,0.4-0.4,0.7-0.4h9.9c0.3,0,0.5,0.1,0.7,0.4l3.1,4.6h13.6c2.3,0,4.1,1.9,4.1,4.1v28.2C63.8,68.8,61.9,70.6,59.7,70.6z
	 M14.9,35.8c-1.4,0-2.5,1.1-2.5,2.5v28.2c0,1.4,1.1,2.5,2.5,2.5h44.7c1.4,0,2.5-1.1,2.5-2.5V38.3c0-1.4-1.1-2.5-2.5-2.5H45.6
	c-0.3,0-0.5-0.1-0.7-0.4l-3.1-4.6h-9l-3.1,4.6c-0.2,0.2-0.4,0.4-0.7,0.4H14.9z M22.4,35.8h-5c-0.5,0-0.8-0.4-0.8-0.8v-3.3
	c0-0.5,0.4-0.8,0.8-0.8h5c0.5,0,0.8,0.4,0.8,0.8V35C23.2,35.5,22.8,35.8,22.4,35.8z M18.2,34.2h3.3v-1.7h-3.3V34.2z M57.2,35.8h-5
	c-0.5,0-0.8-0.4-0.8-0.8v-3.3c0-0.5,0.4-0.8,0.8-0.8h5c0.5,0,0.8,0.4,0.8,0.8V35C58,35.5,57.6,35.8,57.2,35.8z M53,34.2h3.3v-1.7H53
	V34.2z M42.3,35.8h-9.9c-0.5,0-0.8-0.4-0.8-0.8c0-0.2,0-0.3,0.1-0.5l1.7-2.5c0.2-0.2,0.4-0.4,0.7-0.4h6.6c0.3,0,0.5,0.1,0.7,0.4
	l1.7,2.5c0.3,0.4,0.1,0.9-0.2,1.1C42.6,35.8,42.4,35.8,42.3,35.8z M33.9,34.2h6.8l-0.6-0.8h-5.7L33.9,34.2z M37.3,65.6
	C30,65.6,24,59.7,24,52.4S30,39.1,37.3,39.1s13.3,5.9,13.3,13.3S44.6,65.6,37.3,65.6z M37.3,40.8c-6.4,0-11.6,5.2-11.6,11.6
	S30.9,64,37.3,64s11.6-5.2,11.6-11.6S43.7,40.8,37.3,40.8z M37.3,62.3c-5.5,0-9.9-4.5-9.9-9.9s4.5-9.9,9.9-9.9s9.9,4.5,9.9,9.9
	S42.8,62.3,37.3,62.3z M37.3,44.1c-4.6,0-8.3,3.7-8.3,8.3s3.7,8.3,8.3,8.3s8.3-3.7,8.3-8.3S41.9,44.1,37.3,44.1z M11.6,42.5H29v1.7
	H11.6V42.5z M45.6,42.5H63v1.7H45.6V42.5z M50.5,55.7h-1.7v-1.7h1.7c0.9,0,1.7-0.7,1.7-1.7c0-0.9-0.7-1.7-1.7-1.7h-1.7v-1.7h1.7
	c1.8,0,3.3,1.5,3.3,3.3C53.9,54.2,52.4,55.7,50.5,55.7z M14.1,45.8h1.7v1.7h-1.7V45.8z M14.1,49.1h1.7v16.6h-1.7V49.1z M43.9,52.4
	h-1.7c0-2.7-2.2-5-5-5v-1.7C41,45.8,43.9,48.7,43.9,52.4z M37.3,59c-3.7,0-6.6-3-6.6-6.6h1.7c0,2.7,2.2,5,5,5V59z"/>
</svg>