<svg version="1.1" id="photography-main-icon" xmlns="http://www.w3.org/2000/svg" xmlns:xlink="http://www.w3.org/1999/xlink"
	 x="0px" y="0px" viewBox="0 0 180 180" style="width: 100%; height: 100%">
<text transform="matrix(1 0 0 1 5 104.3306)" style="font-size:28px;">Photography</text>
<path class="photography-icon one" style="fill:#E6E6E6;" d="M148,73.7c-0.4,0-0.8,0-1.2-0.2l-36.2-9.7c-2.5-0.7-4-3.3-3.3-5.7l4.6-17c0.2-0.6,0.8-1,1.4-0.8
	s1,0.8,0.8,1.4l-4.6,17c-0.3,1.2,0.4,2.5,1.7,2.9l36.2,9.7c1.2,0.3,2.5-0.4,2.8-1.6l1.8-6.8c0.2-0.6,0.8-1,1.4-0.8
	c0.6,0.2,1,0.8,0.8,1.4l-1.8,6.8C152,72.3,150.1,73.7,148,73.7z M158.7,59.7h-37.5c-2.6,0-4.7-2.1-4.7-4.7V26.9
	c0-2.6,2.1-4.7,4.7-4.7h37.4c2.6,0,4.7,2.1,4.7,4.7V55C163.4,57.6,161.3,59.7,158.7,59.7z M121.2,24.6c-1.3,0-2.3,1.1-2.3,2.3V55
	c0,1.3,1.1,2.3,2.3,2.3h37.5c1.3,0,2.3-1.1,2.3-2.3V26.9c0-1.3-1.1-2.3-2.3-2.3H121.2z M128.3,38.6c-2.6,0-4.7-2.1-4.7-4.7
	s2.1-4.7,4.7-4.7c2.6,0,4.7,2.1,4.7,4.7C132.9,36.5,130.8,38.6,128.3,38.6z M128.3,31.6c-1.3,0-2.3,1.1-2.3,2.3
	c0,1.3,1.1,2.3,2.3,2.3c1.2,0,2.3-1.1,2.3-2.3C130.6,32.6,129.6,31.6,128.3,31.6z M117.9,57.2c-0.3,0-0.6-0.1-0.8-0.3
	c-0.5-0.5-0.5-1.2,0-1.7l11.1-11.1c1.3-1.3,3.6-1.3,5,0l3.3,3.3l9.1-10.9c0.7-0.8,1.6-1.3,2.7-1.3l0,0c1,0,2,0.4,2.7,1.2l12.2,14.3
	c0.4,0.5,0.4,1.2-0.1,1.7c-0.5,0.4-1.2,0.4-1.7-0.1L149.2,38c-0.2-0.3-0.5-0.4-0.9-0.4c-0.2,0-0.7,0.1-0.9,0.4l-9.9,11.9
	c-0.2,0.3-0.5,0.4-0.8,0.4s-0.6-0.1-0.9-0.3l-4.2-4.2c-0.4-0.4-1.2-0.4-1.7,0l-11.1,11.1C118.5,57.1,118.2,57.2,117.9,57.2z"/>
<path class="photography-icon two" style="fill:#E6E6E6;" d="M90.9,162.4c1.7,0,3.1-1.4,3.1-3.1v-11.4c1.2-0.9,2.1-2.4,2.1-4.1c0-1.7-0.8-3.2-2.1-4.1v-11.4
	c0-1.7-1.4-3.1-3.1-3.1s-3.1,1.4-3.1,3.1v11.4c-1.2,0.9-2.1,2.4-2.1,4.1c0,1.7,0.8,3.2,2.1,4.1v11.4C87.8,161,89.2,162.4,90.9,162.4
	z M92,159.3c0,0.6-0.5,1-1,1s-1-0.5-1-1v-10.4c0.3,0.1,0.7,0.1,1,0.1c0.4,0,0.7,0,1-0.1V159.3z M89.9,128.4c0-0.6,0.5-1,1-1
	s1,0.5,1,1v10.4c-0.3-0.1-0.7-0.1-1-0.1c-0.4,0-0.7,0-1,0.1V128.4z M90.9,140.8c1.7,0,3.1,1.4,3.1,3.1c0,1.7-1.4,3.1-3.1,3.1
	s-3.1-1.4-3.1-3.1S89.2,140.8,90.9,140.8z M78.6,162.4c1.7,0,3.1-1.4,3.1-3.1v-19.6c1.2-0.9,2.1-2.4,2.1-4.1c0-1.7-0.8-3.2-2.1-4.1
	v-3.1c0-1.7-1.4-3.1-3.1-3.1s-3.1,1.4-3.1,3.1v3.1c-1.2,0.9-2.1,2.4-2.1,4.1c0,1.7,0.8,3.2,2.1,4.1v19.6
	C75.5,161,76.9,162.4,78.6,162.4z M79.6,159.3c0,0.6-0.5,1-1,1s-1-0.5-1-1v-18.7c0.3,0.1,0.7,0.1,1,0.1c0.4,0,0.7,0,1-0.1V159.3z
	 M77.5,128.4c0-0.6,0.5-1,1-1s1,0.5,1,1v2.2c-0.3-0.1-0.7-0.1-1-0.1c-0.4,0-0.7,0-1,0.1V128.4z M78.6,132.5c1.7,0,3.1,1.4,3.1,3.1
	c0,1.7-1.4,3.1-3.1,3.1s-3.1-1.4-3.1-3.1S76.9,132.5,78.6,132.5z M103.3,162.4c1.7,0,3.1-1.4,3.1-3.1v-3c1.2-0.9,2.1-2.4,2.1-4.1
	c0-1.7-0.8-3.2-2.1-4.1v-19.6c0-1.7-1.4-3.1-3.1-3.1s-3.1,1.4-3.1,3.1v19.6c-1.2,0.9-2.1,2.4-2.1,4.1c0,1.7,0.8,3.2,2.1,4.1v3.1
	C100.2,161,101.6,162.4,103.3,162.4z M104.4,159.3c0,0.6-0.5,1-1,1c-0.6,0-1-0.5-1-1v-2.2c0.3,0.1,0.7,0.1,1,0.1c0.4,0,0.7,0,1-0.1
	V159.3z M102.3,128.4c0-0.6,0.5-1,1-1c0.6,0,1,0.5,1,1v18.7c-0.3-0.1-0.7-0.1-1-0.1c-0.4,0-0.7,0-1,0.1
	C102.3,147.1,102.3,128.4,102.3,128.4z M103.3,149c1.7,0,3.1,1.4,3.1,3.1c0,1.7-1.4,3.1-3.1,3.1s-3.1-1.4-3.1-3.1
	C100.2,150.4,101.6,149,103.3,149z"/>
<path class="photography-icon three" style="fill:#E6E6E6;" d="M44.8,61.3c8.1,0,14.6-6.6,14.6-14.6s-6.6-14.6-14.6-14.6s-14.6,6.6-14.6,14.6S36.7,61.3,44.8,61.3z M44.8,34
	c7.1,0,12.8,5.7,12.8,12.8s-5.7,12.8-12.8,12.8S32,53.8,32,46.7S37.7,34,44.8,34z M44.8,54.2c4.1,0,7.4-3.4,7.4-7.5
	s-3.3-7.5-7.4-7.5c-0.5,0-0.9,0.4-0.9,0.9s0.4,0.9,0.9,0.9l0,0c3,0,5.5,2.5,5.5,5.6s-2.5,5.6-5.5,5.6s-5.5-2.5-5.5-5.6
	c0-0.5-0.4-0.9-0.9-0.9s-0.9,0.4-0.9,0.9l0,0C37.5,50.8,40.7,54.2,44.8,54.2z M63.1,36.5c1.6,0,2.9-1.3,2.9-3c0-1.6-1.3-3-2.9-3
	s-2.9,1.3-2.9,3C60.2,35.1,61.5,36.5,63.1,36.5z M63.1,32.4c0.6,0,1.1,0.5,1.1,1.1s-0.5,1.1-1.1,1.1S62,34.1,62,33.5
	S62.5,32.4,63.1,32.4z M65.9,67c2.9,0,5.2-2.4,5.2-5.3v-30c0-2.9-2.3-5.3-5.2-5.3H33.4l0,0c0-1.9-1.5-3.4-3.4-3.4h-4.4l0,0
	c-1.9,0-3.4,1.6-3.4,3.4v0.3c-2.1,0.7-3.7,2.7-3.7,5.1v30.1c0,2.9,2.3,5.3,5.2,5.3C23.7,67,65.9,67,65.9,67z M24.1,26.4
	c0-0.9,0.7-1.6,1.5-1.6H30c0.8,0,1.5,0.7,1.5,1.6l0,0H24.1L24.1,26.4z M20.4,61.8V31.7c0-1.7,1.2-3.1,2.8-3.4c0.1,0,0.2,0,0.3,0
	c0.1,0,0.2,0,0.3,0h8.6c0.1,0,0.2,0,0.3,0H66c1.8,0,3.3,1.5,3.3,3.4v30.1c0,1.9-1.5,3.4-3.3,3.4H23.7C21.9,65.2,20.4,63.7,20.4,61.8
	z M60.7,62.9L60.7,62.9h3.2c0.4,0,0.8,0,1.2-0.1c0.4-0.1,0.8-0.2,1.1-0.5c0.6-0.6,0.6-1.4,0.6-2.4v-6.6c0-0.5-0.4-0.9-0.9-0.9l0,0
	l0,0c-0.5,0-0.9,0.4-0.9,0.9v6.6c0,0.7-0.1,1-0.1,1.1c0,0,0,0-0.1,0c-0.2,0-0.5,0-0.9,0h-3.2c-0.5,0-0.9,0.4-0.9,0.9
	C59.8,62.5,60.2,62.9,60.7,62.9z"/>
</svg>
