<svg version="1.1" id="project-main-icon" xmlns="http://www.w3.org/2000/svg" xmlns:xlink="http://www.w3.org/1999/xlink" x="0px" y="0px"
     viewBox="0 0 180 180" style="width: 100%; height: 100%">
    <text transform="matrix(1 0 0 1 30.4249 104.3306)" style="font-size:29px;">Projects
    </text>
    <path class="projects-icon one" style="fill:#E6E6E6;" d="M124.8,45.5h7.8c0.1,0.2,0.1,0.3,0.2,0.4c0.1,0.4,0.3,0.8,0.5,1.2c0.1,0.1,0.1,0.3,0.2,0.4
	c0.1,0.2,0.2,0.4,0.3,0.6l-5.5,5.5c-0.1,0.1-0.2,0.3-0.2,0.4s0.1,0.3,0.2,0.4l7.1,7.1c0.2,0.2,0.7,0.2,0.9,0l5.5-5.5
	c0.2,0.1,0.4,0.2,0.6,0.3c0.1,0.1,0.3,0.1,0.4,0.2c0.4,0.2,0.8,0.3,1.2,0.5c0.2,0.1,0.3,0.1,0.4,0.2v7.8c0,0.4,0.3,0.6,0.6,0.6h5
	c0.4,0,0.6-0.3,0.6-0.6v-7.5c0-0.4-0.3-0.6-0.6-0.6s-0.6,0.3-0.6,0.6v6.9h-3.8v-7.6c0-0.3-0.2-0.5-0.5-0.6c-0.3-0.1-0.5-0.2-0.8-0.3
	c-0.8-0.3-1.6-0.6-2.4-1.1c-0.1-0.1-0.2-0.1-0.4-0.1c0,0,0,0-0.1,0c-0.1,0-0.2,0.1-0.3,0.2c0,0,0,0,0,0l-5.4,5.4l-6.2-6.2l5.4-5.4
	c0,0,0,0,0,0c0.1-0.1,0.1-0.2,0.2-0.3c0,0,0,0,0-0.1c0-0.1,0-0.2-0.1-0.4c-0.4-0.8-0.8-1.6-1.1-2.4c-0.1-0.3-0.2-0.5-0.3-0.8
	c-0.1-0.3-0.3-0.4-0.6-0.4h0h-7.6v-8.8h7.6c0.3,0,0.5-0.2,0.6-0.5c0.1-0.3,0.2-0.5,0.3-0.8c0.3-0.8,0.6-1.6,1.1-2.4
	c0.1-0.1,0.1-0.2,0.1-0.4c0,0,0,0,0-0.1c0-0.1-0.1-0.2-0.2-0.3c0,0,0,0,0,0l-5.4-5.4l6.2-6.2l5.4,5.4c0,0,0,0,0.1,0
	c0.1,0.1,0.1,0.1,0.2,0.1c0,0,0.1,0,0.1,0c0,0,0,0,0.1,0c0.1,0,0.2,0,0.3-0.1c0.8-0.4,1.6-0.8,2.4-1.1c0.3-0.1,0.5-0.2,0.8-0.3
	c0.3-0.1,0.5-0.3,0.5-0.6v-7.6h3.8v6.9c0,0.4,0.3,0.6,0.6,0.6c0.4,0,0.6-0.3,0.6-0.6v-7.5c0-0.4-0.3-0.6-0.6-0.6h-5
	c-0.4,0-0.6,0.3-0.6,0.6v7.8c-0.2,0.1-0.3,0.1-0.4,0.2c-0.4,0.1-0.8,0.3-1.2,0.5c-0.1,0.1-0.3,0.1-0.4,0.2c-0.2,0.1-0.4,0.2-0.6,0.3
	l-5.5-5.5c-0.1-0.1-0.3-0.2-0.4-0.2s-0.3,0.1-0.4,0.2l-7.1,7.1c-0.1,0.1-0.2,0.3-0.2,0.4s0.1,0.3,0.2,0.4l5.5,5.5
	c-0.1,0.2-0.2,0.4-0.3,0.6c-0.1,0.1-0.1,0.3-0.2,0.4c-0.2,0.4-0.3,0.8-0.5,1.2c-0.1,0.2-0.1,0.3-0.2,0.4h-7.8
	c-0.4,0-0.6,0.3-0.6,0.6v10C124.1,45.3,124.4,45.5,124.8,45.5z M149.8,54.3c-7.9,0-14.4-6.5-14.4-14.4s6.5-14.4,14.4-14.4
	c0.4,0,0.6-0.3,0.6-0.6c0-0.4-0.3-0.6-0.6-0.6c-8.6,0-15.6,7-15.6,15.6s7,15.6,15.6,15.6c0.4,0,0.6-0.3,0.6-0.6
	S150.2,54.3,149.8,54.3z M155.4,26.6v5.1h-5v-1.9c0-0.4-0.3-0.6-0.6-0.6c-5.9,0-10.6,4.8-10.6,10.6s4.8,10.6,10.6,10.6
	c0.4,0,0.6-0.3,0.6-0.6V48h5v5.1c-0.4,0.1-0.7,0.4-0.9,0.7c-0.3,0.4-0.4,0.9-0.3,1.4s0.4,0.9,0.8,1.2c0.3,0.2,0.7,0.3,1.1,0.3
	c0.1,0,0.2,0,0.4,0c0.5-0.1,0.9-0.4,1.2-0.8c0.3-0.4,0.4-0.9,0.3-1.4c-0.1-0.7-0.6-1.2-1.2-1.4v-5.8c0-0.4-0.3-0.6-0.6-0.6h-5.6
	v-2.5h10.2c0.3,0.7,1,1.3,1.7,1.3c0.1,0,0.2,0,0.4,0c0.5-0.1,0.9-0.4,1.2-0.8s0.4-0.9,0.3-1.4c-0.1-0.5-0.4-0.9-0.8-1.2
	c-0.4-0.3-0.9-0.4-1.4-0.3c-0.5,0.1-0.9,0.4-1.2,0.8c-0.1,0.1-0.2,0.3-0.2,0.4h-10.1v-2.5h17.7c0.3,0.7,1,1.3,1.7,1.3
	c0.1,0,0.2,0,0.4,0c0.5-0.1,0.9-0.4,1.2-0.8s0.4-0.9,0.3-1.4c-0.1-0.5-0.4-0.9-0.8-1.2c-0.4-0.3-0.9-0.4-1.4-0.3s-0.9,0.4-1.2,0.8
	c-0.1,0.1-0.2,0.3-0.2,0.4h-17.6v-2.5h10.2c0.3,0.7,1,1.3,1.7,1.3c0.1,0,0.2,0,0.4,0c1-0.2,1.7-1.2,1.5-2.2l0,0
	c-0.2-1-1.2-1.7-2.2-1.5c-0.7,0.1-1.2,0.6-1.4,1.2h-10.1V33h5.6c0.4,0,0.6-0.3,0.6-0.6v-5.7c0.7-0.3,1.3-1,1.3-1.8
	c0-1-0.8-1.9-1.9-1.9s-1.9,0.9-1.9,1.9C154.2,25.7,154.7,26.4,155.4,26.6z M149.2,49.3c-4.9-0.3-8.8-4.4-8.8-9.4s3.9-9,8.8-9.4V49.3
	z M155.5,54.6c0.1-0.1,0.2-0.2,0.4-0.3c0,0,0.1,0,0.1,0c0.3,0,0.6,0.2,0.6,0.5c0,0.2,0,0.3-0.1,0.5c-0.1,0.1-0.2,0.2-0.4,0.3
	c-0.2,0-0.3,0-0.5-0.1c-0.1-0.1-0.2-0.2-0.3-0.4C155.4,54.9,155.4,54.7,155.5,54.6z M161.8,43.3c0.1-0.1,0.2-0.2,0.4-0.3
	c0,0,0.1,0,0.1,0c0.1,0,0.2,0,0.4,0.1c0.1,0.1,0.2,0.2,0.3,0.4c0,0.2,0,0.3-0.1,0.5c-0.1,0.1-0.2,0.2-0.4,0.3
	c-0.3,0.1-0.7-0.2-0.7-0.5C161.7,43.6,161.7,43.4,161.8,43.3z M169.3,39.5c0.1-0.1,0.2-0.2,0.4-0.3c0,0,0.1,0,0.1,0
	c0.1,0,0.2,0,0.4,0.1c0.1,0.1,0.2,0.2,0.3,0.4c0,0.2,0,0.3-0.1,0.5c-0.1,0.1-0.2,0.2-0.4,0.3c-0.3,0.1-0.7-0.2-0.7-0.5
	C169.2,39.8,169.2,39.7,169.3,39.5z M162.2,35.5c0,0,0.1,0,0.1,0c0.3,0,0.6,0.2,0.6,0.5c0.1,0.3-0.2,0.7-0.5,0.7
	c-0.3,0.1-0.7-0.2-0.7-0.5C161.6,35.9,161.9,35.6,162.2,35.5z M156.1,24.3c0.4,0,0.6,0.3,0.6,0.6c0,0.4-0.3,0.6-0.6,0.6
	c-0.4,0-0.6-0.3-0.6-0.6C155.4,24.5,155.7,24.3,156.1,24.3z M147.3,48c0.4,0,0.6-0.3,0.6-0.6v-15c0-0.4-0.3-0.6-0.6-0.6
	c-0.4,0-0.6,0.3-0.6,0.6v15C146.7,47.8,146.9,48,147.3,48z M149.8,51.8c-6.6,0-11.9-5.3-11.9-11.9S143.2,28,149.8,28
	c0.4,0,0.6-0.3,0.6-0.6c0-0.4-0.3-0.6-0.6-0.6c-7.2,0-13.1,5.9-13.1,13.1S142.6,53,149.8,53c0.4,0,0.6-0.3,0.6-0.6
	S150.2,51.8,149.8,51.8z"/>
    <path class="projects-icon two" style="fill:#E6E6E6;" d="M93.5,162.4c0.2,0.1,0.3,0.1,0.5,0.1c0.5,0,1-0.3,1.2-0.8l15.1-35.3c0.3-0.6,0-1.4-0.6-1.7
	c-0.6-0.3-1.4,0-1.7,0.6c0,0,0,0.1,0,0.1l-15.1,35.3C92.6,161.4,92.9,162.1,93.5,162.4z M89.4,153.3c0.2,0.2,0.5,0.3,0.8,0.3
	c0.4,0,0.7-0.2,0.9-0.4c0.5-0.5,0.4-1.3-0.1-1.8l-9-7.9l9-7.9c0.5-0.4,0.6-1.2,0.2-1.8c-0.4-0.5-1.2-0.6-1.8-0.2c0,0-0.1,0-0.1,0.1
	l-10.1,8.8c-0.5,0.5-0.6,1.3-0.1,1.8c0,0,0.1,0.1,0.1,0.1L89.4,153.3z M113.8,133.8c-0.5-0.4-1.3-0.4-1.8,0.2
	c-0.4,0.5-0.4,1.2,0.1,1.7l9,7.9l-9,7.9c-0.5,0.5-0.6,1.3-0.1,1.8c0.2,0.3,0.6,0.4,0.9,0.4c0.3,0,0.6-0.1,0.8-0.3l10.1-8.8
	c0.5-0.5,0.6-1.3,0.1-1.8c0,0-0.1-0.1-0.1-0.1L113.8,133.8z"/>
    <path class="projects-icon three" style="fill:#E6E6E6;" d="M16.2,28.5v30.2c0,0.9,0.7,1.6,1.6,1.6H48c0.9,0,1.6-0.7,1.6-1.6V28.5c0-0.9-0.7-1.6-1.6-1.6H17.8
	C16.9,26.9,16.2,27.6,16.2,28.5z M14.7,28.5c0-1.7,1.4-3.1,3.1-3.1H48c1.7,0,3.1,1.4,3.1,3.1v30.2c0,1.7-1.4,3.1-3.1,3.1H17.8
	c-1.7,0-3.1-1.4-3.1-3.1V28.5z M26.7,49.8h12.4V37.4H26.7V49.8z M25.1,37.4c0-0.9,0.7-1.5,1.5-1.5h12.4c0.9,0,1.5,0.7,1.5,1.5v12.4
	c0,0.9-0.7,1.5-1.5,1.5H26.7c-0.9,0-1.5-0.7-1.5-1.5V37.4z M56.5,51h-5.4v-1.5h5.4c0.4,0,0.8,0.3,0.8,0.8S56.9,51,56.5,51z
	 M56.5,43.3h-5.4v-1.5h5.4c0.4,0,0.8,0.3,0.8,0.8S56.9,43.3,56.5,43.3z M56.5,35.5h-5.4V34h5.4c0.4,0,0.8,0.3,0.8,0.8
	C57.2,35.2,56.9,35.5,56.5,35.5z M9.3,51h5.4v-1.5H9.3c-0.4,0-0.8,0.3-0.8,0.8S8.8,51,9.3,51z M9.3,43.3h5.4v-1.5H9.3
	c-0.4,0-0.8,0.3-0.8,0.8S8.8,43.3,9.3,43.3z M9.3,35.5h5.4V34H9.3c-0.4,0-0.8,0.3-0.8,0.8C8.5,35.2,8.8,35.5,9.3,35.5z M41.4,67.2
	v-5.4h-1.5v5.4c0,0.4,0.3,0.8,0.8,0.8S41.4,67.6,41.4,67.2z M33.6,67.2v-5.4h-1.5v5.4c0,0.4,0.3,0.8,0.8,0.8
	C33.3,67.9,33.6,67.6,33.6,67.2z M25.9,67.2v-5.4h-1.5v5.4c0,0.4,0.3,0.8,0.8,0.8C25.6,67.9,25.9,67.6,25.9,67.2z M41.4,20v5.4h-1.5
	V20c0-0.4,0.3-0.8,0.8-0.8S41.4,19.5,41.4,20z M33.6,20v5.4h-1.5V20c0-0.4,0.3-0.8,0.8-0.8C33.3,19.2,33.6,19.5,33.6,20z M25.9,20
	v5.4h-1.5V20c0-0.4,0.3-0.8,0.8-0.8C25.6,19.2,25.9,19.5,25.9,20z"/>
</svg>