<svg version="1.1" id="project-main-icon" xmlns="http://www.w3.org/2000/svg" xmlns:xlink="http://www.w3.org/1999/xlink" x="0px"
	 y="0px" viewBox="0 0 180 180" style="width: 100%; height: 100%">
<text transform="matrix(1 0 0 1 32.4249 104.3306)" style="font-size:29px;">Projects</text>
<path class="projects-icon two" style="fill:#E6E6E6;" d="M86.1,165.9c0.2,0.1,0.3,0.1,0.5,0.1c0.5,0,0.9-0.3,1.1-0.7l13.7-32c0.3-0.5,0-1.3-0.5-1.5
	c-0.5-0.3-1.3,0-1.5,0.5v0.1l-13.7,32C85.3,165,85.6,165.6,86.1,165.9z M82.4,157.6c0.2,0.2,0.5,0.3,0.7,0.3c0.4,0,0.6-0.2,0.8-0.4
	c0.5-0.5,0.4-1.2-0.1-1.6l-8.2-7.2l8.2-7.2c0.5-0.4,0.5-1.1,0.2-1.6c-0.4-0.5-1.1-0.5-1.6-0.2c0,0-0.1,0-0.1,0.1l-9.2,8
	c-0.5,0.5-0.5,1.2-0.1,1.6l0.1,0.1L82.4,157.6z M104.6,139.9c-0.5-0.4-1.2-0.4-1.6,0.2c-0.4,0.5-0.4,1.1,0.1,1.5l8.2,7.2L103,156
	c-0.5,0.5-0.5,1.2-0.1,1.6c0.2,0.3,0.5,0.4,0.8,0.4c0.3,0,0.5-0.1,0.7-0.3l9.2-8c0.5-0.5,0.5-1.2,0.1-1.6l-0.1-0.1L104.6,139.9z"/>
<path class="projects-icon three" style="fill:#E6E6E6;" d="M31.2,28.1h0.8v-6.7c0-0.5,0.4-0.9,0.9-0.9c0.5,0,0.9,0.4,0.9,0.9v6.7h4.6v-9c-2.1-0.7-2.8-3.4-1.2-4.9
	c1.9-1.9,5.1-0.5,5.1,2.1c0,1.3-0.9,2.4-2.1,2.8v9h4.6v-6.7c0-0.5,0.4-0.9,0.9-0.9c0.5,0,0.9,0.4,0.9,0.9v6.7h4.6v-9
	c-2.1-0.7-2.8-3.4-1.2-4.9c1.9-1.9,5.1-0.5,5.1,2.1c0,1.3-0.9,2.4-2.1,2.8v9h0.8c1.4,0,2.5,1.1,2.5,2.5v0.8h6.7
	c0.5,0,0.9,0.4,0.9,0.9c0,0.5-0.4,0.9-0.9,0.9h-6.7v4.6h9c0.7-2.1,3.4-2.8,4.9-1.2c0.5,0.5,0.9,1.3,0.9,2.1c0,2.6-3.2,4-5.1,2.1
	c-0.3-0.3-0.6-0.7-0.7-1.2h-9v4.6h6.7c0.5,0,0.9,0.4,0.9,0.9c0,0.5-0.4,0.9-0.9,0.9h-6.7v4.6h9c0.7-2.1,3.4-2.8,4.9-1.2
	c0.5,0.5,0.9,1.3,0.9,2.1c0,2.6-3.2,4-5.1,2.1c-0.3-0.3-0.6-0.7-0.7-1.2h-9v0.8c0,1.4-1.1,2.5-2.5,2.5h-0.8v6.7
	c0,0.5-0.4,0.9-0.9,0.9c-0.5,0-0.9-0.4-0.9-0.9v-6.7h-4.6l0,9c2.1,0.7,2.8,3.4,1.2,4.9c-1.9,1.9-5.1,0.5-5.1-2.1
	c0-1.3,0.9-2.4,2.1-2.8v-9h-4.6v6.7c0,0.5-0.4,0.9-0.9,0.9c-0.5,0-0.9-0.4-0.9-0.9v-6.7h-4.6v9c2.1,0.7,2.8,3.4,1.2,4.9
	c-1.9,1.9-5.1,0.5-5.1-2.1c0-1.3,0.9-2.4,2.1-2.8l0-9h-0.8c-1.4,0-2.5-1.1-2.5-2.5v-0.8H22c-0.5,0-0.9-0.4-0.9-0.9
	c0-0.5,0.4-0.9,0.9-0.9h6.7v-4.6l-9,0c-0.7,2.1-3.4,2.8-4.9,1.2c-1.9-1.9-0.5-5.1,2.1-5.1c1.3,0,2.4,0.9,2.8,2l9,0v-4.6H22
	c-0.5,0-0.9-0.4-0.9-0.9c0-0.5,0.4-0.9,0.9-0.9h6.7v-4.6l-9,0c-0.7,2.1-3.4,2.8-4.9,1.2c-1.9-1.9-0.5-5.1,2.1-5.1
	c1.3,0,2.4,0.9,2.8,2.1l9,0v-0.8C28.7,29.2,29.8,28.1,31.2,28.1L31.2,28.1z M32.9,30.8c1.6,0,2.4,2,1.3,3.1
	c-1.2,1.2-3.1,0.3-3.1-1.3C31.1,31.6,31.9,30.8,32.9,30.8z M33,32.6L33,32.6L33,32.6C33,32.7,33,32.6,33,32.6z M36.1,33.8h12.7
	c1,0,1.8,0.8,1.8,1.8v12.7c0,1-0.8,1.8-1.8,1.8H36.1c-1,0-1.8-0.8-1.8-1.8l0-12.7C34.4,34.6,35.2,33.8,36.1,33.8L36.1,33.8z
	 M48.8,35.6H36.2v12.6h12.6V35.6z M16.1,31.5c-0.7,0.7-0.2,1.9,0.8,1.9c1,0,1.5-1.2,0.8-1.9C17.2,31,16.5,31,16.1,31.5z M16.1,44.3
	c-0.7,0.7-0.2,1.9,0.8,1.9c1,0,1.5-1.2,0.8-1.9C17.2,43.9,16.5,43.9,16.1,44.3z M32,68.4c0.7,0.7,1.9,0.2,1.9-0.8
	c0-1-1.2-1.5-1.9-0.8C31.6,67.2,31.6,67.9,32,68.4z M44.9,68.4c0.7,0.7,1.9,0.2,1.9-0.8c0-1-1.2-1.5-1.9-0.8
	C44.5,67.2,44.5,67.9,44.9,68.4z M32.9,53.9h21c0.3,0,0.6-0.3,0.6-0.6l0-22.6c0-0.3-0.3-0.6-0.6-0.6H31.2c-0.3,0-0.6,0.3-0.6,0.6
	v22.6c0,0.3,0.3,0.6,0.6,0.6H32.9z M68.9,52.4c0.2-0.2,0.3-0.5,0.3-0.8c0-1-1.2-1.5-1.9-0.8c-0.7,0.7-0.2,1.9,0.8,1.9
	C68.4,52.7,68.7,52.6,68.9,52.4z M68.9,39.5c0.2-0.2,0.3-0.5,0.3-0.8c0-1-1.2-1.5-1.9-0.8c-0.7,0.7-0.2,1.9,0.8,1.9
	C68.4,39.8,68.7,39.7,68.9,39.5z M52.9,15.5c-0.7-0.7-1.9-0.2-1.9,0.8c0,1,1.2,1.5,1.9,0.8C53.4,16.7,53.4,15.9,52.9,15.5z
	 M40.1,15.5c-0.7-0.7-1.9-0.2-1.9,0.8c0,1,1.2,1.5,1.9,0.8C40.5,16.7,40.5,15.9,40.1,15.5z"/>
<path class="projects-icon one" style="fill:#E6E6E6;" d="M135.3,46.9c0,4.2,3.4,7.5,7.5,7.5c4.2,0,7.5-3.4,7.5-7.5s-3.4-7.5-7.5-7.5C138.7,39.4,135.3,42.8,135.3,46.9
	z M137.4,46.9c0-3,2.4-5.4,5.4-5.4c3,0,5.4,2.4,5.4,5.4c0,3-2.4,5.4-5.4,5.4C139.8,52.3,137.4,49.9,137.4,46.9z M117.9,46.9V48h8.1
	v2.1l4.4,1c0.2,0.6,0.4,1.1,0.7,1.7l-2.4,3.8l4.5,4.5l3.8-2.4c0.6,0.3,1.1,0.5,1.7,0.7l1,4.4h2.1v8.1h1.1
	c13.7,0,24.9-11.2,24.9-24.9v-1.1l-8.1,0v-2.1l-4.4-1c-0.2-0.6-0.4-1.1-0.7-1.7l2.4-3.8l-4.5-4.5l-3.8,2.4c-0.6-0.3-1.1-0.5-1.7-0.7
	l-1-4.4h-2.1v-8.1h-1.1C129.1,22.1,117.9,33.2,117.9,46.9L117.9,46.9z M143.9,63.7h2.1l1-4.4c0.6-0.2,1.1-0.4,1.7-0.7l3.8,2.4
	l4.5-4.5l-2.4-3.8c0.3-0.6,0.5-1.1,0.7-1.7l4.4-1V48h5.9c-0.6,11.7-9.9,21-21.6,21.6V63.7z M128.2,45.5l3.9-0.9l0.2-0.6
	c0.2-0.8,0.6-1.6,1-2.4l0.3-0.6l-2.2-3.4l2-2l3.4,2.2l0.6-0.3c0.8-0.4,1.6-0.8,2.4-1l0.6-0.2l0.9-3.9h2.9l0.9,3.9l0.6,0.2
	c0.8,0.2,1.6,0.6,2.4,1l0.6,0.3l3.4-2.2l2,2L152,41l0.3,0.6c0.4,0.8,0.8,1.6,1,2.4l0.2,0.6l3.9,0.9v2.9l-3.9,0.9l-0.2,0.6
	c-0.2,0.8-0.6,1.6-1,2.4l-0.3,0.6l2.2,3.4l-2,2l-3.4-2.2l-0.6,0.3c-0.8,0.4-1.6,0.8-2.4,1l-0.6,0.2l-0.9,3.9h-2.9l-0.9-3.9l-0.6-0.2
	c-0.8-0.2-1.6-0.6-2.4-1l-0.6-0.3l-3.4,2.2l-2-2l2.2-3.4l-0.3-0.6c-0.4-0.8-0.8-1.6-1-2.4l-0.2-0.6l-3.9-0.9V45.5z M120.1,45.8
	c0.6-11.7,9.9-21,21.6-21.6v5.9h-2.1l-1,4.4c-0.6,0.2-1.1,0.4-1.7,0.7l-3.8-2.4l-4.5,4.5l2.4,3.8c-0.3,0.6-0.5,1.1-0.7,1.7l-4.4,1
	v2.1H120.1z"/>
</svg>
