<?xml version="1.0" standalone="no"?>
<!DOCTYPE svg PUBLIC "-//W3C//DTD SVG 20010904//EN"
 "http://www.w3.org/TR/2001/REC-SVG-20010904/DTD/svg10.dtd">
<svg version="1.0" xmlns="http://www.w3.org/2000/svg"
 width="700.000000pt" height="700.000000pt" viewBox="0 0 700.000000 700.000000"
 preserveAspectRatio="xMidYMid meet">
<metadata>
Created by potrace 1.14, written by Peter Selinger 2001-2017
</metadata>
<g transform="translate(0.000000,700.000000) scale(0.100000,-0.100000)"
fill="#000000" stroke="none">
<path d="M2159 6699 c-249 -37 -451 -212 -565 -493 -40 -99 -36 -84 -69 -236
-34 -157 -40 -230 -40 -485 1 -232 10 -365 40 -541 2 -12 6 -47 10 -77 l7 -54
-44 -8 c-54 -10 -45 -8 -174 -40 -511 -128 -940 -352 -1144 -598 -191 -229
-232 -503 -113 -747 116 -239 341 -473 569 -591 66 -34 75 -37 115 -28 65 15
110 64 116 126 8 75 -12 103 -125 176 -118 77 -125 83 -217 175 -77 77 -170
206 -207 288 -17 39 -22 68 -22 140 -1 86 1 95 37 165 70 139 212 263 438 382
170 89 447 188 698 247 145 35 129 47 171 -120 55 -217 92 -336 222 -715 l20
-60 -61 -112 c-179 -333 -340 -706 -450 -1046 -47 -145 -123 -434 -136 -517
-3 -19 -7 -46 -10 -60 -2 -14 -7 -43 -10 -65 -3 -23 -7 -50 -9 -60 -10 -50
-18 -211 -17 -325 3 -497 201 -817 561 -910 135 -35 382 -15 600 48 206 60
502 220 550 297 41 66 17 160 -49 199 -58 34 -110 25 -199 -33 -236 -156 -492
-236 -747 -234 -181 1 -313 107 -379 305 -16 49 -21 71 -32 147 -4 25 -8 55
-10 66 -6 27 -5 250 1 305 5 46 12 106 22 170 4 30 16 95 39 210 39 196 190
644 299 885 55 123 159 341 170 357 10 15 20 -1 70 -110 275 -605 618 -1183
979 -1647 39 -49 73 -92 76 -95 3 -3 23 -27 45 -55 127 -160 378 -418 541
-556 235 -200 458 -337 669 -413 130 -46 181 -56 306 -60 298 -11 531 138 673
429 42 87 89 222 101 295 3 19 8 42 10 50 8 28 15 74 21 145 3 38 8 86 10 105
5 49 5 316 0 365 -3 22 -7 77 -11 122 -3 46 -8 91 -9 100 -2 10 -7 45 -11 78
-4 32 -8 66 -10 75 -1 8 -5 36 -9 61 -7 45 -11 70 -21 119 -3 14 -8 41 -11 60
-4 19 -22 100 -41 180 -18 80 -36 155 -39 167 -11 55 -118 403 -164 538 -105
305 -312 798 -354 843 -70 77 -182 65 -233 -24 -28 -50 -24 -98 17 -182 16
-34 30 -64 30 -67 0 -2 13 -33 29 -69 100 -217 258 -644 328 -881 29 -100 100
-368 107 -405 2 -14 12 -59 21 -100 9 -41 18 -84 20 -95 12 -62 35 -207 40
-250 4 -27 8 -57 10 -65 19 -75 27 -524 11 -650 -49 -410 -211 -641 -457 -654
-336 -19 -821 307 -1312 880 -191 224 -493 649 -636 897 -242 416 -354 634
-500 972 -28 66 -60 138 -70 160 -40 88 -40 86 65 260 166 275 361 562 548
803 l81 105 250 -7 c137 -3 277 -8 310 -11 33 -2 98 -7 145 -10 47 -4 101 -8
120 -10 19 -2 64 -7 100 -10 76 -7 133 -14 175 -19 165 -22 207 -28 250 -36
28 -5 70 -12 95 -15 25 -3 52 -8 60 -10 8 -2 33 -6 55 -10 182 -27 758 -171
885 -222 8 -3 20 -7 25 -9 6 -1 60 -20 120 -42 504 -181 893 -423 1072 -666
199 -270 126 -521 -218 -748 -53 -34 -119 -75 -148 -91 -29 -15 -60 -42 -71
-60 -39 -63 -17 -166 41 -197 73 -39 108 -34 234 38 484 277 665 647 507 1041
-50 124 -183 296 -332 427 -169 148 -498 337 -790 454 -58 23 -114 46 -125 51
-36 16 -159 60 -205 73 -25 8 -97 30 -160 49 -109 34 -396 111 -450 121 -14 2
-47 10 -75 16 -27 6 -61 14 -75 17 -14 2 -68 13 -120 23 -94 18 -243 44 -310
54 -109 15 -353 46 -405 51 -33 3 -78 8 -100 10 -37 4 -110 10 -260 20 -33 2
-125 7 -205 10 -80 4 -146 8 -147 9 -9 8 396 423 522 536 418 377 836 631
1160 705 148 34 315 22 414 -29 47 -25 125 -105 152 -157 80 -153 113 -401 85
-629 -17 -136 -17 -165 1 -200 39 -75 128 -101 203 -59 48 27 66 68 81 184 14
101 17 373 6 450 -37 265 -120 445 -268 578 -128 116 -278 170 -479 171 -69 0
-143 -3 -165 -6 -279 -46 -581 -183 -909 -411 -86 -60 -317 -238 -352 -271
-10 -10 -100 -89 -158 -139 -39 -34 -241 -234 -326 -324 -104 -109 -276 -302
-330 -370 l-25 -31 -160 -7 c-88 -3 -178 -8 -200 -10 -22 -2 -78 -6 -125 -10
-47 -3 -98 -8 -115 -10 -16 -2 -55 -7 -85 -10 -64 -7 -111 -12 -160 -19 -19
-3 -54 -8 -77 -11 l-41 -6 -11 73 c-7 40 -14 91 -18 113 -3 22 -7 47 -8 55
-26 142 -26 606 0 730 3 14 8 39 11 55 40 224 149 411 278 477 182 94 456 28
761 -184 151 -105 182 -120 229 -113 102 15 155 116 111 210 -16 33 -138 127
-276 213 -112 69 -306 155 -399 177 -8 2 -37 9 -65 15 -65 15 -215 20 -286 9z
m391 -2054 c0 -2 -39 -57 -86 -122 -48 -65 -125 -176 -173 -246 -95 -141 -95
-141 -166 -257 l-50 -82 -26 79 c-14 43 -28 85 -31 93 -6 14 -55 188 -63 220
-2 8 -17 66 -34 129 -17 63 -28 117 -25 120 2 3 12 6 22 7 90 14 141 20 217
28 33 4 71 8 85 11 14 2 70 7 125 10 55 4 101 8 102 8 4 4 103 6 103 2z"/>
<path d="M3477 4084 c-1 -1 -23 -4 -48 -7 -74 -9 -129 -26 -199 -63 -276 -145
-389 -480 -256 -759 118 -248 374 -377 646 -325 90 17 207 79 275 146 75 74
87 89 124 161 56 107 76 257 52 383 -15 75 -80 204 -136 267 -57 65 -162 135
-242 162 -51 17 -207 43 -216 35z m151 -323 c209 -107 216 -403 11 -516 -48
-27 -63 -30 -139 -30 -95 1 -143 19 -204 78 -61 59 -81 111 -81 207 0 69 4 93
23 128 39 74 103 127 182 153 45 15 162 4 208 -20z"/>
</g>
</svg>
