<?xml version="1.0" encoding="utf-8"?>
<!-- Generator: Adobe Illustrator 26.0.2, SVG Export Plug-In . SVG Version: 6.00 Build 0)  -->
<svg version="1.1" id="Layer_1" xmlns="http://www.w3.org/2000/svg" xmlns:xlink="http://www.w3.org/1999/xlink" x="0px" y="0px"
	 viewBox="0 0 700 500" style="enable-background:new 0 0 700 500;" xml:space="preserve">
<g id="aurora-os-text">
	<text transform="matrix(1 0 0 1 554.47 123.4715)" style="fill:#1CABC4; font-family:'Helvetica-Bold'; font-size:14px;">10:09</text>
	<text transform="matrix(1 0 0 1 528.4397 118.2305)" style="fill:#1CABC4; font-family:'Helvetica-Bold'; font-size:8.5495px;">&gt;</text>
	<text transform="matrix(1 0 0 1 139.7724 123.4717)" style="fill:#1CABC4; font-family:'Helvetica-Bold'; font-size:14px;">AuroraOS</text>
</g>
<path id="aurora-os-animated-svg" style="fill:none;stroke:#1CABC4;stroke-width:2;stroke-miterlimit:10;" d="M600,88.7
	c0-2.8-2.3-5.1-5.1-5.1H136.1 M594.9,402.4c2.8,0,5.1-2.3,5.1-5.1V88.7 M131,397.3c0,2.8,2.3,5.1,5.1,5.1h458.7 M136.1,83.6
	c-2.8,0-5.1,2.3-5.1,5.1v308.5 M600,131.3H131 M600,102.1v20.3 M131,105.2h469 M141.8,89.7c-2.6,0-4.7,2.1-4.7,4.7s2.1,4.7,4.7,4.7
	c2.6,0,4.7-2.1,4.7-4.7S144.4,89.7,141.8,89.7z M158.2,89.7c-2.6,0-4.7,2.1-4.7,4.7s2.1,4.7,4.7,4.7s4.7-2.1,4.7-4.7
	S160.8,89.7,158.2,89.7z M173.9,89.7c-2.6,0-4.7,2.1-4.7,4.7s2.1,4.7,4.7,4.7c2.6,0,4.7-2.1,4.7-4.7S176.5,89.7,173.9,89.7z
	 M545.7,123.1v-9.7c0-1.2-1-2.3-2.3-2.3h-15.7c-1.2,0-2.3,1-2.3,2.3v9.7c0,1.2,1,2.3,2.3,2.3h15.7
	C544.7,125.3,545.7,124.3,545.7,123.1z M534.5,118.4h5 M371.9,222.5l-25.7,8.2l-18.8,2.6l17.9,0l-26.6,4.9l13.2,1.3l-11,1.5L313,247
	h11.4l8-5.9l-2.5,8.7l15.5-13.7l21.4-9 M366.7,220.2l-45.8,7.9l13.2,0.8l37.8-6.4L366.7,220.2z M379.6,220.2l9.2-0.6l-5.1-2.7
	l19.6,3.3l17.9-4.1l-46-2.1H371l-46,2.1l17.9,4.1l19.6-3.3l-5.1,2.7l9.2,0.6 M374.3,222.5l37.9,6.4l13.2-0.8l-45.8-7.9L374.3,222.5z
	 M379.5,227.1l21.4,9l15.5,13.7l-2.5-8.7l8,5.9h11.4l-8.1-5.9l-11-1.5l13.2-1.3l-26.6-4.9l17.9,0l-18.8-2.6l-25.8-8.2 M366.8,227.1
	l-29.6,21.4c0,0,36-22.5,36-22.5l36,22.5l-29.6-21.4 M373.2,234.6l27.7,14.1L373.2,226c0,0-27.7,22.8-27.7,22.8
	S373.2,234.6,373.2,234.6z M373.2,382.3c0,0,2.6-12,2.6-12l-2.1-6.8v-12.2l1.4-4.8l-1.2-6.7l2.8-8l3.8,7.1l-6.4-24l1.5-4.8l7.4,21.8
	l-6.4-33.9l5.8,7.3l5.1,7.7l-8.9-29v-8.4l8.3,20.2l-2.1-16.5l5,6.6l0.9,2.9l5.3,3.4l-0.6-4l-5-3.4l-4.6-6.4l13,3.3l-23.6-18.2
	l1.4-8.3l9,4.8l0.1,5.3l9.1,5.7l-0.8-7.7l-7.3-4.5l3.2-4.5l-15.6-12.8l32,19.5l11.7,2.2l-44.8-28.5 M373.2,234.6
	c0,0-44.8,28.5-44.8,28.5l11.7-2.2l32-19.5l-15.6,12.8l3.2,4.5l-7.3,4.5l-0.8,7.7l9.1-5.7l0.1-5.3l9-4.8l1.4,8.3l-23.6,18.2l13-3.3
	l-4.6,6.4l-5,3.4l-0.6,4l5.3-3.4l0.9-2.9l5-6.6l-2.1,16.5l8.3-20.2v8.4l-8.9,29l5.1-7.7l5.8-7.3l-6.4,33.9l7.4-21.8l1.5,4.8l-6.4,24
	l3.8-7.1l2.8,8l-1.2,6.7l1.4,4.8v12.2l-2.1,6.8l2.6,12 M375.3,213.9l32.6-8.6l-9.9-0.4l-23.5,7.7h-2.6l-23.5-7.7l-9.9,0.4l32.6,8.6
	H375.3z M373.2,146.2v20.9l-2.6,11.3l-4.5-10.3l4.6,21.7l0.4,8.6l-4.1-7.1l-12-4.4l14.1,14l-11.1-3.8l-9.6-0.2l23.5,15.6h2.6
	l23.5-15.6l-9.6,0.2l-11.1,3.8l14.1-14l-12,4.4l-4.1,7.1l0.4-8.6l4.6-21.7l-4.5,10.3l-2.6-11.3V146.2"/>
</svg>
