<?xml version="1.0" encoding="utf-8"?>
<!-- Generator: Adobe Illustrator 26.0.3, SVG Export Plug-In . SVG Version: 6.00 Build 0)  -->
<svg version="1.1" id="Layer_1" xmlns="http://www.w3.org/2000/svg" xmlns:xlink="http://www.w3.org/1999/xlink" x="0px" y="0px"
	 viewBox="0 0 471 320.8" style="enable-background:new 0 0 471 320.8;" xml:space="preserve">
<g id="aurora-os-text">
	<text transform="matrix(1 0 0 1 424.47 40.8715)" style="fill:#1CABC4; font-family:'Helvetica-Bold'; font-size:14px;">10:09</text>
	<text transform="matrix(1 0 0 1 398.4397 35.6305)" style="fill:#1CABC4; font-family:'Helvetica-Bold'; font-size:8.5495px;">&gt;</text>
	<text transform="matrix(1 0 0 1 9.7724 40.8717)" style="fill:#1CABC4; font-family:'Helvetica-Bold'; font-size:14px;">AuroraOS</text>
</g>
<path id="aurora-os-animated-svg" style="fill:none;stroke:#1CABC4;stroke-width:2;stroke-miterlimit:10;" d="M470,6.1
	c0-2.8-2.3-5.1-5.1-5.1H6.1 M464.9,319.8c2.8,0,5.1-2.3,5.1-5.1V6.1 M1,314.7c0,2.8,2.3,5.1,5.1,5.1h458.7 M6.1,1C3.3,1,1,3.3,1,6.1
	v308.5 M470,48.7H1 M470,19.5v20.3 M1,22.6h469 M11.8,7.1c-2.6,0-4.7,2.1-4.7,4.7s2.1,4.7,4.7,4.7c2.6,0,4.7-2.1,4.7-4.7
	S14.4,7.1,11.8,7.1z M28.2,7.1c-2.6,0-4.7,2.1-4.7,4.7s2.1,4.7,4.7,4.7s4.7-2.1,4.7-4.7S30.8,7.1,28.2,7.1z M43.9,7.1
	c-2.6,0-4.7,2.1-4.7,4.7s2.1,4.7,4.7,4.7c2.6,0,4.7-2.1,4.7-4.7S46.5,7.1,43.9,7.1z M415.7,40.5v-9.7c0-1.2-1-2.3-2.3-2.3h-15.7
	c-1.2,0-2.3,1-2.3,2.3v9.7c0,1.2,1,2.3,2.3,2.3h15.7C414.7,42.7,415.7,41.7,415.7,40.5z M404.5,35.8h5 M241.9,139.9l-25.7,8.2
	l-18.8,2.6h17.9l-26.6,4.9l13.2,1.3l-11,1.5l-7.9,6h11.4l8-5.9l-2.5,8.7l15.5-13.7l21.4-9 M236.7,137.6l-45.8,7.9l13.2,0.8l37.8-6.4
	L236.7,137.6z M249.6,137.6l9.2-0.6l-5.1-2.7l19.6,3.3l17.9-4.1l-46-2.1H241l-46,2.1l17.9,4.1l19.6-3.3l-5.1,2.7l9.2,0.6
	 M244.3,139.9l37.9,6.4l13.2-0.8l-45.8-7.9L244.3,139.9z M249.5,144.5l21.4,9l15.5,13.7l-2.5-8.7l8,5.9h11.4l-8.1-5.9l-11-1.5
	l13.2-1.3l-26.6-4.9h17.9l-18.8-2.6l-25.8-8.2 M236.8,144.5l-29.6,21.4l36-22.5l36,22.5l-29.6-21.4 M243.2,152l27.7,14.1l-27.7-22.7
	l-27.7,22.8L243.2,152z M243.2,299.7l2.6-12l-2.1-6.8v-12.2l1.4-4.8l-1.2-6.7l2.8-8l3.8,7.1l-6.4-24l1.5-4.8l7.4,21.8l-6.4-33.9
	l5.8,7.3l5.1,7.7l-8.9-29V193l8.3,20.2l-2.1-16.5l5,6.6l0.9,2.9l5.3,3.4l-0.6-4l-5-3.4l-4.6-6.4l13,3.3l-23.6-18.2l1.4-8.3l9,4.8
	l0.1,5.3l9.1,5.7l-0.8-7.7l-7.3-4.5l3.2-4.5l-15.6-12.8l32,19.5l11.7,2.2l-44.8-28.5 M243.2,152l-44.8,28.5l11.7-2.2l32-19.5
	l-15.6,12.8l3.2,4.5l-7.3,4.5l-0.8,7.7l9.1-5.7l0.1-5.3l9-4.8l1.4,8.3L217.6,199l13-3.3l-4.6,6.4l-5,3.4l-0.6,4l5.3-3.4l0.9-2.9
	l5-6.6l-2.1,16.5l8.3-20.2v8.4l-8.9,29l5.1-7.7l5.8-7.3l-6.4,33.9l7.4-21.8l1.5,4.8l-6.4,24l3.8-7.1l2.8,8l-1.2,6.7l1.4,4.8v12.2
	l-2.1,6.8l2.6,12 M245.3,131.3l32.6-8.6l-9.9-0.4l-23.5,7.7h-2.6l-23.5-7.7l-9.9,0.4l32.6,8.6H245.3z M243.2,63.6v20.9l-2.6,11.3
	l-4.5-10.3l4.6,21.7l0.4,8.6l-4.1-7.1l-12-4.4l14.1,14l-11.1-3.8l-9.6-0.2l23.5,15.6h2.6l23.5-15.6l-9.6,0.2l-11.1,3.8l14.1-14
	l-12,4.4l-4.1,7.1l0.4-8.6l4.6-21.7l-4.5,10.3l-2.6-11.3L243.2,63.6"/>
</svg>
