<?xml version="1.0" encoding="utf-8"?>
<!-- Generator: Adobe Illustrator 26.0.3, SVG Export Plug-In . SVG Version: 6.00 Build 0)  -->
<svg version="1.1" id="Layer_1" xmlns="http://www.w3.org/2000/svg" xmlns:xlink="http://www.w3.org/1999/xlink" x="0px" y="0px"
	 viewBox="0 0 541.4 359.3" style="enable-background:new 0 0 541.4 359.3;" xml:space="preserve">
<path id="joystick-animated-svg" style="fill:none;stroke:#00B9D2;stroke-width:2;stroke-linecap:round;stroke-linejoin:round;stroke-miterlimit:10;" d="
	M144.3,155c-28,7.1-55.3-14.3-55-43.2c0.2-28.6,27.3-49.5,55-42.4c19.4,4.8,33.5,22.9,33.3,42.8C177.8,132.1,163.7,150.2,144.3,155z
	 M385,195.7c0.1-20-13.9-38.1-33.3-42.8c-27.7-7-54.8,13.9-55,42.4c-0.3,28.9,27,50.3,55,43.2C371.1,233.8,385.2,215.7,385,195.7z
	 M495.5,356.9c-16.1-1.3-30.7-9.5-43.2-19.3c-21.8-16.7-42.5-40.4-64-57.5c-10-7.9-19.8-14-32.4-16.6c-27.6-5.7-57.1-5-85.2-5.4
	c-28.1,0.4-57.5-0.3-85.2,5.4c-12.6,2.6-22.5,8.8-32.4,16.6c-21,16.7-41.4,40-62.6,56.4c-12.9,10.2-27.9,19-44.6,20.3 M170.1,112.2
	c0.1-16.5-11.6-31.6-27.6-35.5c-23.2-5.9-45.9,11.9-45.6,35.8c0.2,23.7,22.7,41,45.6,35.2C158.5,143.8,170.3,128.7,170.1,112.2z
	 M159,112.2c0.1-11.5-8.1-22-19.2-24.7c-15.9-4.1-31.7,8-31.8,24.5c-0.2,16.6,15.6,29.1,31.8,25C150.9,134.2,159.1,123.7,159,112.2z
	 M377.5,195.7c0.1-16.5-11.6-31.6-27.6-35.5c-22.9-5.8-45.5,11.5-45.6,35.2c-0.2,23.9,22.4,41.7,45.6,35.8
	C365.9,227.3,377.6,212.3,377.5,195.7z M366.3,195.7c0.1-11.5-8.1-22-19.2-24.7c-15.9-4.1-31.7,8-31.8,24.5
	c-0.2,16.6,15.6,29.1,31.8,25C358.2,217.8,366.5,207.2,366.3,195.7z M244.5,111.7c0-9.8-10.3-16.3-19.2-12.1
	c-10.1,4.9-10.1,19.2,0,24.1C234.1,128,244.5,121.5,244.5,111.7z M316.2,123.8c10.1-4.9,10.1-19.2,0-24.1
	c-8.8-4.3-19.2,2.2-19.2,12.1C297,121.5,307.3,128,316.2,123.8z M245.4,202.6c0.1-19.9-13.9-37.9-33.2-42.7
	c-27.6-7-54.6,13.8-54.8,42.3c-0.3,28.8,26.9,50.1,54.8,43C231.5,240.5,245.6,222.4,245.4,202.6z M188.1,244.5
	c-1.4-36.1,7.5-27.2-28.5-28.6 M243.4,215.9c-36.1,1.4-27.2-7.5-28.6,28.5 M159.5,189.2c36.1-1.4,27.2,7.5,28.6-28.5 M214.8,160.6
	c1.4,36.1-7.5,27.2,28.5,28.6 M479.8,65c-14.6-17.9-52.9-30.5-75.2-36.4c-7.4-1.7-15.2-4-22.8-2.6c-3.6,0.7-6.7,2.7-9.4,5.1
	c-10.2,9.3-21.4,20.8-30.7,30.9c-2.5,2.7-5.2,5.3-8.1,7.7c-3.9,3.1-8.3,5.7-13.1,7.1c-2.9,0.9-5.9,1.4-8.9,1.7
	c-11.7,1.2-28.8,1.2-40.7,1.1c-11.9,0-29,0-40.7-1.1c-3-0.4-6-0.9-8.9-1.7c-5.1-1.5-9.8-4.3-13.9-7.7c-4.9-4-10.7-10.7-15.2-15.3
	c-6.9-7-15.7-16-23-22.6c-2.7-2.3-5.9-4.4-9.4-5.1c-7.6-1.4-15.4,0.9-22.8,2.6C114.7,34.5,76.3,47.1,61.6,65 M61.6,65
	c-4.5,6-7.3,13.3-10.3,20.1c-16.3,41.1-26.7,86.7-37.2,129.7c-5.4,24-10.4,48.8-11.9,73.4c-0.6,10.7-0.9,21.6,1.1,32.2
	c2.3,12.4,7.9,22.1,18.9,28.6c10.8,6.3,23.7,8.8,36.1,8.4c14.2-0.5,27.4-6.7,38.8-14.8c18.5-12.9,37.1-32.4,54.1-47.2
	c7.4-6.3,15.2-12.5,23.8-17.2c9.9-5.3,21.2-7,32.2-8.3c20.5-2.1,42.7-2.3,63.3-2.3c20.7,0.1,42.8,0.2,63.3,2.3
	c11,1.2,22.3,3,32.2,8.3c8.6,4.7,16.4,10.8,23.8,17.2c17.9,15.5,37,35.8,56.7,48.9c10.8,7.2,23.2,12.5,36.3,13
	c12.5,0.5,25.3-2,36.1-8.4c11.1-6.5,16.7-16.2,18.9-28.6c2-10.6,1.8-21.5,1.1-32.2c-1.5-24.6-6.5-49.4-11.9-73.4
	c-10.5-42.9-21-88.6-37.2-129.7c-3-6.9-5.8-14.1-10.3-20.1 M483,69.9c-9.1-19-20.3-26.7-39.2-34.7c-12-5.1-24.5-9.3-37-12.7
	c-8.4-2.2-17-4.3-25.6-4.5c-4.1-0.1-8.2,0.6-12,2c-3.1,1.1-6.2,2.4-9.5,2.8c-9.9,1.3-77.4,0.6-88.8,0.8c-11.8-0.3-78.5,0.5-88.8-0.8
	c-3.3-0.4-6.4-1.7-9.5-2.8c-3.8-1.5-7.9-2.2-12-2c-8.7,0.2-17.3,2.3-25.6,4.5c-12.5,3.4-25.1,7.7-37,12.7
	c-18.9,8-30.1,15.6-39.2,34.7 M468,49.1c-2.6-7-5.1-14.7-11.2-19.5c-7.6-6.2-16.7-10.5-25.7-14.3c-15.9-6.5-32.9-10.6-49.8-13.3
	c-4.1-0.6-8.3,0.2-12.1,1.7c-5.1,2-10.3,5.4-15,8c-1,0.5-1.9,1-3,1.3c-5.2,1.7-73.3,0.6-80.5,1c-7.4-0.4-75,0.8-80.5-1
	c-1-0.3-2-0.8-3-1.3c-4.8-2.6-9.9-6-15-8c-3.8-1.6-8-2.3-12.1-1.7c-17.9,2.9-35.9,7.4-52.6,14.6c-7.8,3.5-15.7,7.4-22.4,12.8
	c-6.3,4.8-9,12.7-11.6,19.9 M438,73.5c0.1-8.8-6.2-17-14.8-19c-12.2-3.2-24.4,6.2-24.4,18.9c-0.2,12.8,12.1,22.4,24.4,19.2
	C431.7,90.5,438.1,82.3,438,73.5z M438,150.4c0.1-8.8-6.2-17-14.8-19c-12.2-3.2-24.4,6.2-24.4,18.9c-0.2,12.8,12.1,22.4,24.4,19.2
	C431.7,167.4,438.1,159.2,438,150.4z M379.9,92.3c-8.8-0.1-17,6.2-19,14.8c-3.1,12.2,6.2,24.4,18.9,24.4
	c12.8,0.2,22.4-12.1,19.2-24.4C396.9,98.6,388.7,92.2,379.9,92.3z M456.8,92.3c-8.8-0.1-17,6.2-19,14.8
	c-3.1,12.2,6.2,24.4,18.9,24.4c12.8,0.2,22.4-12.1,19.2-24.4C473.8,98.6,465.6,92.2,456.8,92.3z M482.5,69
	c-2.9-5.9-6.5-11.6-11-16.4c-1-1-2-2.1-3-3c-0.6-0.2-1.1-2-1.3-2.5c-0.5-0.8-0.9-2.8-1.4-3.7c-1.5-3.8-3.2-7.6-5.8-10.7
	c-4.2-4.8-9.9-8-15.4-11.1C430,13.8,414,8.8,397.9,5.1C391,3.8,384,1.6,376.9,1.8c-7.4,0.5-14.2,5.1-20.6,8.7c-1.8,1-3.5,2-5.5,2.6
	c-1.5,0.4-3.2,0.5-4.7,0.6c-37.6,0.5-107.4,0.2-145,0.2c-3.6-0.1-7.8,0.1-11.3-0.9c-3.4-1.3-6.7-3.5-9.7-5.2
	c-4.1-2.3-8.4-4.5-13.1-5.5c-2.3-0.5-4.6-0.4-6.9-0.2c-10.9,1.6-21.8,4.3-32.4,7.3c-12.4,3.6-24.6,8.6-35.7,15.2
	c-5.1,3.1-10.2,6.7-13.2,12c-1.3,2.2-2.3,4.7-3.3,7c-0.3,0.9-1.1,2.7-1.4,3.7c-0.3,0.5-0.6,2.4-1.3,2.5
	c-6.2,5.6-10.8,12.8-14.5,20.3 M511.5,352.8c10.6-4.1,19.8-11.6,23.8-22.5c10.2-26.4,0.2-77.1-5.7-105.1
	c-9.6-41.9-20.4-86.3-34.5-126.9c-3.6-10-7.6-20-12.6-29.3 M45.9,356.9c11.1,1.5,22.6,0.3,33-4c13.2-5.4,24.6-14.4,35.3-23.6
	c19.7-16.6,38.9-38.9,61.7-51.3c8.8-4.5,18.7-6.3,28.4-7.5c17.3-2,36.1-2.4,53.6-2.6c21.3-0.1,44.3-0.1,65.5,1.3
	c9.7,0.7,19.6,1.7,29,4c8,1.8,15.4,5.5,22.1,10.2c17.1,11.7,34.6,30.1,50.2,43.7c15.4,13.3,32.3,27.2,53.1,29.9
	c11.4,1.5,23.1,0,33.8-4.2 M58.5,69.9c-4.9,9-8.6,18.8-12.2,28.5c-14.1,40.6-24.9,85-34.5,126.9c-5.1,23.7-9.4,48.2-10,72.5
	c-0.2,14.1,0.6,29.6,9.2,41.4c8.2,10.8,21.8,16,34.9,17.8"/>
</svg>
