<?xml version="1.0" encoding="utf-8"?>
<!-- Generator: Adobe Illustrator 26.0.3, SVG Export Plug-In . SVG Version: 6.00 Build 0)  -->
<svg version="1.1" id="Layer_1" xmlns="http://www.w3.org/2000/svg" xmlns:xlink="http://www.w3.org/1999/xlink" x="0px" y="0px"
	 viewBox="0 0 368.8 352.2" style="enable-background:new 0 0 368.8 352.2;" xml:space="preserve">
<path id="klc3-side-animated-svg" style="opacity:0.5;fill:none;stroke:#00B9D2;stroke-width:2;stroke-miterlimit:10;" d="
	M264.7,59.4h-50.3V86h57.4v18.6h-78.5V1h76v18.4h-54.8v22h50.3V59.4z M360.8,59.4h-50.3V86h57.4v18.6h-78.5V1h76v18.4h-54.8v22h50.3
	V59.4z"/>
<path id="klc3-animated-svg" style="fill:none;stroke:#00B9D2;stroke-width:2;stroke-miterlimit:10;" d="M92.5,104.6H64.6l-32-45.3
	L22.3,70v34.7H1V1h21.3v42.7L62.3,1h28L47.8,43.7L92.5,104.6z M104.6,1h21.7v85h51.3v18.6h-73V1z M104.4,1h21.7v85h51.3v18.6h-73V1z
	 M168.3,218.9c-7.7,7.1-17.6,10.6-29.7,10.6c-14.9,0-26.6-4.8-35.2-14.3c-8.5-9.6-12.8-22.8-12.8-39.5c0-18.1,4.9-32,14.6-41.8
	c8.4-8.5,19.2-12.8,32.2-12.8c17.4,0,30.2,5.7,38.2,17.2c4.5,6.4,6.8,12.9,7.2,19.3h-21.7c-1.4-5-3.2-8.7-5.4-11.2
	c-3.9-4.5-9.8-6.8-17.5-6.8c-7.9,0-14.1,3.2-18.6,9.5c-4.5,6.4-6.8,15.3-6.8,27c0,11.6,2.4,20.3,7.2,26.1c4.8,5.8,10.9,8.7,18.3,8.7
	c7.6,0,13.4-2.5,17.4-7.5c2.2-2.7,4-6.7,5.5-12h21.4C180.7,202.6,175.9,211.8,168.3,218.9z M123.7,267c-2.2,3-3.3,7-3.2,12h-18.7
	c0.2-5.1,1.1-9.9,2.6-14.4c1.6-4,4.2-7.7,7.7-11c2.6-2.4,5.7-4.2,9.4-5.5c3.6-1.3,8-1.9,13.3-1.9c9.7,0,17.6,2.5,23.6,7.6
	c6,5,9,11.8,9,20.3c0,6-1.8,11.1-5.3,15.2c-2.2,2.6-4.6,4.3-7,5.3c1.8,0,4.5,1.6,7.9,4.7c5.1,4.7,7.7,11.2,7.7,19.4
	c0,8.6-3,16.2-9,22.7s-14.8,9.8-26.5,9.8c-14.4,0-24.5-4.7-30.1-14.1c-3-5-4.6-11.6-4.9-19.7h19.7c0,4.1,0.7,7.5,2,10.1
	c2.4,4.9,6.9,7.4,13.3,7.4c3.9,0,7.4-1.3,10.3-4c2.9-2.7,4.4-6.6,4.4-11.6c0-6.7-2.7-11.2-8.2-13.4c-3.1-1.3-8-1.9-14.6-1.9v-14.3
	c6.5-0.1,11.1-0.7,13.6-1.9c4.5-2,6.7-6,6.7-12c0-3.9-1.1-7.1-3.4-9.5c-2.3-2.4-5.5-3.7-9.6-3.7C129.3,262.5,125.9,264,123.7,267z"
	/>
</svg>
