<?xml version="1.0" encoding="utf-8"?>
<!-- Generator: Adobe Illustrator 26.3.1, SVG Export Plug-In . SVG Version: 6.00 Build 0)  -->
<svg version="1.1" id="Layer_1" xmlns="http://www.w3.org/2000/svg" xmlns:xlink="http://www.w3.org/1999/xlink" x="0px" y="0px"
	 viewBox="0 0 471 320.8" style="enable-background:new 0 0 471 320.8;" xml:space="preserve">
<g id="ozone-text">
	<text transform="matrix(1 0 0 1 10.4721 67.3404)" style="fill:#1CABC4; font-family:'Helvetica-Bold'; font-size:14px;">&gt;</text>
	<text transform="matrix(1 0 0 1 9.7724 40.8717)" style="fill:#1CABC4; font-family:'Helvetica-Bold'; font-size:14px;">Ozone</text>
</g>
<path id="ozone-animated-svg" style="fill:none;stroke:#1CABC4;stroke-width:2;stroke-miterlimit:10;" d="M470,6.1
	c0-2.8-2.3-5.1-5.1-5.1H6.1 M464.9,319.8c2.8,0,5.1-2.3,5.1-5.1V6.1 M1,314.7c0,2.8,2.3,5.1,5.1,5.1h458.7 M6.1,1C3.3,1,1,3.3,1,6.1
	v308.5 M470,48.7H1 M470,19.5v20.3 M1,22.6h469 M11.8,7.1c-2.6,0-4.7,2.1-4.7,4.7s2.1,4.7,4.7,4.7s4.7-2.1,4.7-4.7
	S14.4,7.1,11.8,7.1z M28.2,7.1c-2.6,0-4.7,2.1-4.7,4.7s2.1,4.7,4.7,4.7s4.7-2.1,4.7-4.7S30.8,7.1,28.2,7.1z M43.9,7.1
	c-2.6,0-4.7,2.1-4.7,4.7s2.1,4.7,4.7,4.7c2.6,0,4.7-2.1,4.7-4.7S46.5,7.1,43.9,7.1z M21,69h8.3 M294.8,198.4
	c1.5-17.6-1.2-35.6-7.1-50.1 M294.8,198.4 M283.2,236.9c5.6-9.5,9.1-20.4,10.8-31.7 M274.9,237.8c5.6-12.4,10.3-26.2,11-43.8
	 M286,190.5c0.1-11.5-1.6-24.6-5.9-39.8 M267,239.2c0.7-1.7,1.4-3.5,2.1-5.5 M269.1,233.7 M271.1,227.4c5.4-19.5,7.1-46.4,0.9-75.1
	 M256,240.4c1.9-6.5,3.4-15.2,4.4-25 M260.6,213c1.6-17.8,1.4-39.2-1.3-59.4 M244.7,240.8 M245.5,233c1.6-19.1,2.6-52.6,0.8-78.4
	 M187.4,148c-4.6,11.2-7.2,24.4-7.5,37.9 M179.9,185.9 M179.9,193.3c0.7,15.2,4.6,30.9,12,43.5 M189.3,182.7
	c-1.4,23.1,4.2,40.8,10.9,55.7 M195,150.8c-3,10.6-4.7,20.2-5.4,28.9 M207.5,237.7c0.3,0.8,0.3,0.8,0.6,1.5 M203.1,152.3
	c-6.4,29.8-4.5,57.1,1.4,76.7 M214.3,209.9c0.9,11.8,2.6,22.7,4.9,30.4 M215.9,153.7c-2.4,17.6-2.9,35.2-1.9,51.2 M228.8,154.6
	c-2.1,29.8-0.4,69.7,1.5,86.1 M174.7,193.2c-1-14.9,2-30,10.6-47.1 M174.7,193.2 M202.2,238.9c-6.2-0.9-11.4-2-15.1-3.4l-0.3-0.4
	c-5.4-11.7-9.1-22.2-11-33 M238.8,241c-11.1,0-22.2-0.5-31.7-1.5 M238.8,241 M270.5,239.1c-7.5,1-15.8,1.6-24.7,1.8 M270.8,239.1
	 M296.6,212.6c-1.9,7.2-4.6,14.6-8.2,22.4l-0.2,0.1c-3.7,1.5-7.9,2.5-13.9,3.4 M298.6,202.9c-0.1,0.6-0.1,0.6-0.2,1.1 M290.5,146.8
	c8.2,21.2,10.8,38.5,8.1,56.1 M240.7,154.1 M282.6,147.5 M187.9,142c-0.4,0.2-0.8,0.3-1,0.5c-3.1,2.1-2.4,3.6-2.4,3.6
	c14.9,12.5,100.3,8.7,106.4,0c0,0,0.7-1.3-1.5-2.9 M283.9,141.3c-1.9-0.4-3.8-0.6-6.5-1 M259.1,138.1 M227.7,137.2
	c-1.4,0.1-2.7,0.1-4.1,0.2 M217.5,137.9c-2.5,0.2-5.1,0.4-7.6,0.7 M216.2,140.2c-1.6,0.1-3.1,0.1-4.6,0.2 M216.2,140.2 M228.2,139.9
	c-1.3,0-2.7,0.1-4.1,0.1 M258.9,140.3 M284.8,143.2 M213.5,143.8c-1.3-3.3-3.8-5.5-7-8.3c-3.2-2.8-14.6-6.2-14.6-6.2
	s-9.6-2.8-11.2-7.4c-1.6-4.6-7.1-12.5-7.1-12.5c1.1,6.5,1.3,8.8-1.4,12.9c-2.7,4.1-5.6,5.4-8.7,7.8l1.1,1.5c0,0,6.2-2.3,8.2-2.7
	s3.1-1.1,4.3-0.4c1.3,0.8,3.7,1.4,7.3,5.9s3.8,10.6,3.8,10.6l0.3,1.1c14.9,12.5,88.2,8.7,94.3,0 M226.7,153.7
	c0.3-10.2-0.9-7.6-2.2-12.5c-1.3-5-0.1-9.4-0.1-9.4s1.3-4.2,4.7-8.4c3.5-4.2,3.7-6.9,3.7-6.9s-2.8,2.8-8.6,4.1
	c-5.7,1.3-11.3-1.7-16.1-2.9c-4.8-1.3,7.8,7.8,8.2,8.2s1.5,1,2,2.6c0.5,1.5,0.1,7-0.6,8.9c-0.8,1.9-2.9,5.5-5.7,7.8
	c-2.8,2.3-4.8,4.4-5.2,7.4 M207.6,136.4c0.5-1.3,1-2.6,1.4-3.8 M211.2,125.6c0.3-1,0.5-2,0.7-3 M212.6,118.6
	c1.2-10-2.3-12.3-2.3-12.3c-13.8,5.6-16.5,23.1-16.5,23.1 M232.8,135.7c0,0,0.2-7.9,1-12.8s0.7-17.3-12.7-23.2c0,0-5.2,3.4-4.5,19.5
	 M226.5,146.3c4-5.9-1.5-15.9-1.5-15.9 M230.8,154c5.5-5.3,2.9-10.8,2.9-10.8c-3.2,4.9-7.8,2.9-7.8,2.9 M196.4,121.1
	c0,0-4.4,3.8-6,7.6 M258.9,123.8c5.8-11.3-0.1-16.3-0.1-16.3c-10.5,1.2-16.4,11.5-21.8,31.4 M258.8,124.1 M255.9,128.8 M253.6,131.8
	 M240.7,127.2c-4.1-1.1-7.5-0.5-7.5-0.5 M245,117.3c0,0-6.3-0.4-11.4,6.5 M233.8,143.2c2.3-4,7.5-9.4,11.2-9.8
	c3.7-0.4,8.8-1.9,10.7-3.7c1.9-1.8,6.2-5.1,6.3-7.7c0.1-2.6-1.1-3.3-1.1-3.3 M283.9,138.9c-8.3,0.8-9.5,3.1-9.5,3.1 M288.3,137.4
	c7.3-4,14.7-14.4,14.9-16.8c0,0-14.9-13.1-31.7,13.1c0,0-3,1.8-8.2-2.2 M278.3,148.3c0,0-6.4-11.4-11.3-14.7 M252.8,151
	c4.2,1.7,18.2-8.6,13.5-7s-8.2-1.5-8.2-1.5 M236.6,138.8c0,0-3.7-3-3.8-3.8s-1,4.2-3.7,4.7c-2.7,0.4,4.9,2.4,4.9,2.4 M283.5,120.6
	c0,0-7.2-1.9-13.1,0.2 M288.2,133.2l-3.4,2.6c0,0-1.7,5.4-2.2,9.3c-0.5,3.8,6.8-1.3,6.8-1.3L288.2,133.2z M292.8,134
	c0,0,1.8,2.3,2.4,4.4c0,0,2.5-3.8,5.7-4.4c0,0-3.1-1.7-4.1-3.5 M251.1,153.3c0,0,7.6-9.4,8.3-15c0.7-5.6,6.4-9.1,8.6-10.1
	s9.2-2.2,12.4-5.7c0,0-6.9,0.9-11.4-2.7s-5.3-8.2-8.3-9.1 M240.7,154.1 M282.6,147.5 M187.4,146.3 M239.3,154 M207.6,130.2
	c0,0,2.9,6.1,3.8,4.8c0.9-1.3-0.1-1.9,0.7-4s3.1-4,1.4-5.2c-1.6-1.2-4.7,0.7-4.7,0.7L207.6,130.2z M216.4,125.7c0,0-3.4,1.8-1.3,3
	c2.1,1.2,3.5,4.4,3.5,4.4 M261,124.9c-0.8-0.7-4.2-2-4.2-2c-1,1.2-2.6,3.5-2.1,3.9c1.7,1.3,1,2.9,1,2.9 M241.6,186.6
	c0.6-0.7,0.9-1.8,0.9-2.9c0-2.3-1.4-4.1-3.2-4.1s-3.2,1.8-3.2,4.1c0,2,1.2,3.7,2.7,4 M282.5,189.1c-0.3-1.7-1.3-2.9-2.5-2.9
	c-1.4,0-2.6,1.8-2.6,4.1s1.2,4.1,2.6,4.1c1,0,1.9-0.9,2.3-2.2 M189.7,182.7c0.3,2,1.3,3.5,2.4,3.5c1.4,0,2.6-2.2,2.6-5
	c0-2.8-1.1-5-2.6-5c-1.2,0-2.1,1.5-2.4,3.5 M220,199.6 M220.3,201.5c0.5,1.4,1.3,2.4,2.3,2.4c1.5,0,2.6-2.2,2.6-4.8
	s-1.2-4.8-2.6-4.8c-1.5,0-2.6,2.2-2.6,4.8 M258.6,214.1 M259.1,212.2c0-0.2,0-0.4,0-0.6c0-2.5-1.2-4.5-2.8-4.5c-1.5,0-2.8,2-2.8,4.5
	c0,2.5,1.2,4.5,2.8,4.5c1,0,1.8-0.8,2.3-2 M192.2,179c0,0-9.1,0.8-15.4,10.6c-6.3,9.9-16,39.8-15.8,51.2c0,0,2.5,2.7,7.1,1
	c0,0,4.4-29.7,5.8-33.9c1.3-4.3,7.3-23.2,18.5-26.3 M201,244.5c0,0-5.7-1.3-6-0.9s2.3,2.6,3.8,3.3c1.6,0.6-5.1-0.6-5.9,0
	c-0.8,0.6,5.3,1.8,6.8,1.7s-4.3,1-3.4,1.8c0.9,0.8,4.7,0,5.3-0.4c0.6-0.4,3.5-0.3,4.3,0c0.9,0.3,4.3,3.2,3.3,0.4
	c-0.9-2.6,3.5-1.9,4.3-1.6c0.7,0.3-1.7-2.8-3.4-2.7s2.7-1.3,3.4-2.2c0.6-0.9-6,0.3-6.8,1.1 M160.8,239.6c0,0-4.8-0.1-5.1,0.2
	s2.2,1.2,3.8,1.9c1.6,0.6-4.1,0.6-4.9,1.1c-0.8,0.6,4.3,0.7,5.9,0.6s-0.9,1,0,1.9c0.9,0.8,4.1-0.1,4.6-0.5s4.3,0.7,5,0.9
	c0.9,0.3,2.9-0.9,0.3-1.8s4.1-1.4,4.9-1.2c0.7,0.3-2.8-1.9-4.5-1.8s2.7-1.3,3.4-2.2c0.6-0.9-4.8,0.2-5.7,1 M222.6,197.6
	c-4.6,2.5-9.8,6.7-12.6,14c-2.8,7.3-9,29.2-9,34.7c0,0,3.7,2.7,5.6,0.4c0,0,1.6-16.5,3.3-23.7c1.7-7.2,6-20.4,13.2-23 M238.8,183
	c0,0,0.9,35.8,0.6,38.7c-0.3,2.9-0.6,28-1.3,29.1c0,0,3.8,3.1,7.9,0c0,0-0.9-33.4-1.3-39.7c-0.4-6.3-2.5-24.9-4.4-28.1 M255.1,212.7
	c0,0,6.7,1.4,9.8,8.7c3.1,7.3,7.1,21,6.6,26.8c0,0,3.3,1.5,5.2-0.6c0,0-4-17.6-6.4-22.2c-2.4-4.6-6-12.3-14.3-14.4 M279.5,191.2
	c8,1.9,13.2,9.3,15.7,17.3c2.5,8,7.6,22.9,7.4,33.2c0,0,3.3,2.7,7.3-0.8c0,0-6.1-25.8-9.5-32.8c-3.4-7.1-8.8-16.9-20.5-19.7
	 M238.4,250c0,0-5.4-2.8-5.7-2.4c-0.3,0.4,2.9,3.9,4.5,4.5c1.6,0.6-6.7-1-7.5-0.5c-0.8,0.6,6.9,2.3,8.5,2.1c1.6-0.2-4.6,0.9-3.7,1.8
	c0.9,0.8,6.3-0.3,6.9-0.7c0.6-0.4,0.7,1.9,1.4,2.2c0.9,0.3,1.2-2.5,3.4-2.4c2.8,0.1,2.9,1.2,4.8,0.6c0.8-0.3-0.7-4-2.4-3.8
	c-1.7,0.2,4.2-1,4.8-2c0.6-0.9-6.3-1.1-7.2-0.3 M271.4,245.1c0,0-7.3-0.7-8.6,0.8c-0.3,0.4,3.9,1.8,5.5,2.5c1.6,0.6-5.2,0.8-6,1.3
	s5.4,0.5,6.9,0.4s0.7,1.2,0.9,2.7c0.2,1.2,3.2-0.9,3.7-1.3c0.6-0.4,3.4,1.4,4.2,1.7c0.9,0.3,3.8-1.7,1.2-2.6
	c-2.6-0.9,5.5-1.1,5.9-1.8c1.1-1.6-3.8-1.3-5.5-1.2s3.6-5.1,2.5-4.9c-4.3,0.6-5.3,1.3-6.2,2.1 M302.6,239.2c0,0-4.6-0.9-4.9-0.5
	c-0.3,0.4,0.6,1.7,2.2,2.4c1.6,0.6-3.8-0.3-4.6,0.3c-0.8,0.6,3.4,2,5,1.9s-2.7,2.9-1.8,3.7c0.9,0.8,5.6-1.8,6.2-2.1
	c0.6-0.4,1.2,2.4,2,2.6c0.9,0.3,2-5.4,4.1-3.6c0.6,0.5,3.2,1.7,3.9,2s-0.1-2.4-1.5-3.7c-1.3-1.1,1.7-3.4,2.3-4.3
	c0.6-0.9-4.8,0.2-5.7,1"/>
</svg>
