<?xml version="1.0" encoding="utf-8"?>
<!-- Generator: Adobe Illustrator 26.0.2, SVG Export Plug-In . SVG Version: 6.00 Build 0)  -->
<svg version="1.1" id="Capa_1" xmlns="http://www.w3.org/2000/svg" xmlns:xlink="http://www.w3.org/1999/xlink" x="0px" y="0px"
	 viewBox="0 0 700 362.8" style="enable-background:new 0 0 700 362.8;" xml:space="preserve">
<style type="text/css">
	.st0{fill:none;stroke:#1CABC4;stroke-width:2;stroke-miterlimit:10;}
</style>
<path id="robomaster-animated-svg" class="st0" d="M400.3,54.6c-2.8-2.8-6.4-2.8-9.2-1c-2.8,2.8-5.8,9.7-5.8,9.7l3.1,4.1
	c0,0,10.6-2.6,13.4-4.5C404.6,59.4,403.1,57.4,400.3,54.6 M319.6,143.2c4.6,9.4,15.7,17.7,29.4,17.7c12.9,0,23.9-8.3,29.4-17.7
	H319.6z M377.5,118.6c-6.4-15.5-13.9-19.3-29.4-19.3c-12.9-1-24.3,7.4-28.7,19.3H377.5z M193.5,138h-12.9c-0.5,0.7-3.3,4.3-3.6,4.6
	v10.1v1l3.6,3.6c0.5,1.7,3.3,9.7,3.6,9.4h9.2L193.5,138L193.5,138z M234.6,269.7c13.2,0,23.9,10.7,23.9,23.9s-10.7,23.9-23.9,23.9
	s-23.9-10.7-23.9-23.9S221.4,269.7,234.6,269.7z M231.3,352.7c-3.5-0.3-1.3-4.3-1.8-6.4c1.2-10.2-12.9-5.8-17.5-2.8
	c-4,3.1-14.5-2.1-8.3-5.4c11.2-13.9-20.3-8.1-21.1-18.3c25.4-8.4-7.3-15.2-5.4-28.6c28.1-1,0.3-17.5,11.1-29.4
	c17.5,15.5,10.4-13.7,20.3-18.5c2.3-0.3,3.3,1.8,3.6,3.6c4.8,19,18.5-15,26.7-8.3c2.6,4.1-1.8,13,6.4,12.9c7.1,0.7,19.3-10.6,22.1,0
	c-16.2,15.2,17.3,9.6,19.3,20.3c-13.9,3.8-11.2,11.1,1,18.5c4.8,3.8,7.6,12.4,0,11.1c-18.8-1.5,1.8,19.3-5.4,27.6
	c-1.5,2.8-3.6-0.5-4.6-1.8c-13.4-9.1-7.8,21.1-17.5,21.1c-1.7,0.3-2.5-2.3-2.8-3.6C250.9,327.6,241.7,354.9,231.3,352.7z
	 M468.2,269.7c-12.9,0-23.9,10.1-23.9,23.9c0,12.9,10.1,23.9,23.9,23.9c13.9,0,23.9-10.1,23.9-23.9
	C491.3,280.7,481,269.7,468.2,269.7 M472,351.2c-9.9,1.5-17.2-23.4-24.9-10.1c-0.8,1.5-1.2,5.8-3.6,5.4
	c-10.2-0.8-5.1-31.4-18.5-21.1c-11.2,8.4,1.7-22.8-1.8-23.9c-1.5-2.5-7.1-1.8-10.1-1.8c-8.9-7.1,15-16.5,11.9-22.9
	c0.7-3.3-7.4-5.6-9.2-7.4c4.5-13.2,34.2-2,19.3-22.1c6.4-9.4,27.4,11.9,27.6-4.6c0.5-2.1-1.7-6.1,1.8-6.4c10.6-1,18.7,25.3,25.8,8.3
	c0.5-1.8,1-4,3.6-3.6c8.7,2.8,4.6,30.9,17.5,21.1c11.2-8.4-1.7,22.8,1.8,23.9c5.9,4.5,19-2.1,8.3,11.9c-12.2,8.6-13.9,15-1,20.3
	c-1.3,10.7-32.5,4.6-21.1,18.5c6.1,4.5-4.6,8.3-8.3,5.4c-5.3-3.1-19.1-7.3-17.5,2.8C473.4,346.8,474.9,350.7,472,351.2 M197.1,166.7
	h51.3c1.7,0,2.6,0.2,2.8-0.2c4.3-2.5,9.4-2.6,14.4-2.6v-24.1c-4.6,0-11.1,0.5-15.4-1.8c-1,0-1,0-1.8,0h-51.3V166.7z M303.1,159.1
	c-1-1-2.8-1.8-4.6-1.8h-14.9c-2.8,0-5.4-1.2-5.4-3.8v-31.7h-5.4l-1,3.3l-1.8,3.6l-1,1V183c0,1,0,1,1,1l2.8,2.8h1H327
	C326.9,186.6,303.1,159.1,303.1,159.1z M171.7,271.8c13.7-36.8,52.2-49.5,86.5-39.3l30.4-14c6.8-3-105.2,4.5-111.6,10.2
	C169,235.8,169.9,274.8,171.7,271.8 M407.9,74.6l1-1l-3-11.2l-2.8,2.8c0.8,0.2-15.5,5.8-15.5,5.8l-5.4-6.4c0,0,4.6-9.9,7.4-12.7
	l-81.1,1.7c-1,0-1.8,1-2.8,1.8l-10.1,14.7l1,4.6h111.3L407.9,74.6L407.9,74.6z M340.1,163.4c-19.1-5-32-24.1-25.1-42.3h-33.2v30.5
	c0,1.3,0,2.6,2.3,2.5c6.6-0.2,15.2,0.2,16.8,0.2c5.3,0.3,24.3,27.9,27.7,30.4c1.8,1.8,8.4,1,8.4,1l7.4-14.7c2.1-3.6-2.8-2.8-3.6-3.6
	L340.1,163.4z M261.6,92.9v16.5l1.8,1.8v2.8l2.8,2.8h9.1l1.8-2.8V94.7L261.6,92.9z M431,80.8c0-1.8-1.8-2.8-2.8-2.8H262.5
	c-1.8,0-2.8,1-2.8,2.8v5.6c0,1.8,1,3.6,2.8,3.6l26.7,1.8c3.6,0,5.4,2.8,5.4,6.4v8.3c0,3.6,3.1,4.3,6.4,4.8h15.2l0,0
	c6.4-11.1,19.5-17,34.7-16.8c10.1,0.2,19.3,4.6,25.8,11.9l1-3.3l30.4,16.5l8.7-5.6H435c0,0,5,0,3.3-3.3
	C436.6,107.4,431,80.8,431,80.8z M316,129c0,3.6,0.7,6.9,1.7,10.7h62.7c1-2.8,1.8-6.4,1.8-10.1c0-3.7-1-6.4-1.8-8.4h-61.9
	C316.6,123.3,316,126.4,316,129 M300.9,115c-4.6,0-9.9-3.6-9.9-8.3v-8.3c0-1.8-0.2-2-2-3l-8.3-1v20.5l1.8,2.8H315c0-1,1-1.8,1-2.8
	h-15.1V115z M435.3,117.6H416l-6.4,3.8l10.7,6.3c5.4,2.8,4.1,9.2,1.3,14.7l-22.1,44.2c1.8,0,2.8-1,4.6-1.8l34-23.9
	c1.8-1.8,3.6-3.6,3.6-6.4v-31.4C440.9,120.5,438.1,117.6,435.3,117.6 M447.5,88.3c-0.5-4-11.2-5.3-10.9-2.8
	c0.8,11.2,6.6,24.3,6.3,30.4h6.4l3.6-2.8v-3.7C452.1,108.6,447.5,88.3,447.5,88.3z M457.4,10.3l-3.6-4.6c-1-1-2.8-1.8-4.6,0
	l-53.3,44.2c3.6-0.7,10.2,3.5,10.2,8.9l51.7-44.9C458.4,13.2,458.4,11.3,457.4,10.3 M348.1,171.3l-34,68.2h55.3l49.5-99.5
	c1.8-4.6,1-10.1-3.6-11.9L375.7,106c5.4,6.4,8.7,13.9,9.2,22.9c0.8,15.2-15.7,35.8-35.8,35.8c-1.8,0-3.6,0-5.4-1l3.6,1.8
	C348.1,166.7,349,169.5,348.1,171.3 M366.5,298.9h-28.6c-9.2,0-16.5-7.4-16.5-16.5c0-9.2,7.4-16.5,16.5-16.5h28.6
	c9.2,0,16.5,7.4,16.5,16.5C383.1,291.6,374.7,298.9,366.5,298.9z M275.5,242.6c26.6,20.5,30.9,54.5,20.8,80.1l111.8,1.5
	c-15.4-25.1-7.8-64.1,15.7-80.9C424.7,242.3,275.5,242.6,275.5,242.6z M234.6,232.5c34.7,0,62.7,28.1,62.7,62.7
	s-28.1,62.7-62.7,62.7s-62.7-28.1-62.7-62.7S199.9,232.5,234.6,232.5z M466.7,230.9c34.7,0,62.7,28.1,62.7,62.7
	s-28.1,62.8-62.7,62.8S404,328.3,404,293.7S432,230.9,466.7,230.9z M397.8,239.3l32.7-27.7c0,0,61.2,6.6,66.2,7.4
	c28.2,4.1,27.4,0.5,32,46.9c0,0-12.7-25.8-34.2-33.3c-31.4-11.2-49.2-3.5-67.7,6.9L397.8,239.3L397.8,239.3z"/>
</svg>
