<?xml version="1.0" encoding="utf-8"?>
<!-- Generator: Adobe Illustrator 26.0.3, SVG Export Plug-In . SVG Version: 6.00 Build 0)  -->
<svg version="1.1" id="Capa_1" xmlns="http://www.w3.org/2000/svg" xmlns:xlink="http://www.w3.org/1999/xlink" x="0px" y="0px"
	 viewBox="0 0 360.9 355.3" style="enable-background:new 0 0 360.9 355.3;" xml:space="preserve">
<style type="text/css">
	.st0{fill:none;stroke:#1CABC4;stroke-width:2;stroke-miterlimit:10;}
</style>
<path id="robomaster-animated-svg" class="st0" d="M230.8,51c-2.8-2.8-6.4-2.8-9.2-1c-2.8,2.8-5.8,9.7-5.8,9.7l3.1,4.1
	c0,0,10.6-2.6,13.4-4.5C235.1,55.8,233.6,53.8,230.8,51 M150.1,139.6c4.6,9.4,15.7,17.7,29.4,17.7c12.9,0,23.9-8.3,29.4-17.7H150.1z
	 M208,115c-6.4-15.5-13.9-19.3-29.4-19.3c-12.9-1-24.3,7.4-28.7,19.3C149.9,115,208,115,208,115z M24,134.4H11.1
	c-0.5,0.7-3.3,4.3-3.6,4.6v10.1v1l3.6,3.6c0.5,1.7,3.3,9.7,3.6,9.4h9.2L24,134.4L24,134.4z M65.1,266.1c13.2,0,23.9,10.7,23.9,23.9
	s-10.7,23.9-23.9,23.9S41.2,303.2,41.2,290S51.9,266.1,65.1,266.1z M61.8,349.1c-3.5-0.3-1.3-4.3-1.8-6.4
	c1.2-10.2-12.9-5.8-17.5-2.8c-4,3.1-14.5-2.1-8.3-5.4c11.2-13.9-20.3-8.1-21.1-18.3c25.4-8.4-7.3-15.2-5.4-28.6
	c28.1-1,0.3-17.5,11.1-29.4c17.5,15.5,10.4-13.7,20.3-18.5c2.3-0.3,3.3,1.8,3.6,3.6c4.8,19,18.5-15,26.7-8.3
	c2.6,4.1-1.8,13,6.4,12.9c7.1,0.7,19.3-10.6,22.1,0c-16.2,15.2,17.3,9.6,19.3,20.3c-13.9,3.8-11.2,11.1,1,18.5
	c4.8,3.8,7.6,12.4,0,11.1c-18.8-1.5,1.8,19.3-5.4,27.6c-1.5,2.8-3.6-0.5-4.6-1.8c-13.4-9.1-7.8,21.1-17.5,21.1
	c-1.7,0.3-2.5-2.3-2.8-3.6C81.4,324,72.2,351.3,61.8,349.1z M298.7,266.1c-12.9,0-23.9,10.1-23.9,23.9c0,12.9,10.1,23.9,23.9,23.9
	c13.9,0,23.9-10.1,23.9-23.9C321.8,277.1,311.5,266.1,298.7,266.1 M302.5,347.6c-9.9,1.5-17.2-23.4-24.9-10.1
	c-0.8,1.5-1.2,5.8-3.6,5.4c-10.2-0.8-5.1-31.4-18.5-21.1c-11.2,8.4,1.7-22.8-1.8-23.9c-1.5-2.5-7.1-1.8-10.1-1.8
	c-8.9-7.1,15-16.5,11.9-22.9c0.7-3.3-7.4-5.6-9.2-7.4c4.5-13.2,34.2-2,19.3-22.1c6.4-9.4,27.4,11.9,27.6-4.6
	c0.5-2.1-1.7-6.1,1.8-6.4c10.6-1,18.7,25.3,25.8,8.3c0.5-1.8,1-4,3.6-3.6c8.7,2.8,4.6,30.9,17.5,21.1c11.2-8.4-1.7,22.8,1.8,23.9
	c5.9,4.5,19-2.1,8.3,11.9c-12.2,8.6-13.9,15-1,20.3c-1.3,10.7-32.5,4.6-21.1,18.5c6.1,4.5-4.6,8.3-8.3,5.4
	c-5.3-3.1-19.1-7.3-17.5,2.8C303.9,343.2,305.4,347.1,302.5,347.6 M27.6,163.1h51.3c1.7,0,2.6,0.2,2.8-0.2c4.3-2.5,9.4-2.6,14.4-2.6
	v-24.1c-4.6,0-11.1,0.5-15.4-1.8c-1,0-1,0-1.8,0H27.6V163.1z M133.6,155.5c-1-1-2.8-1.8-4.6-1.8h-14.9c-2.8,0-5.4-1.2-5.4-3.8v-31.7
	h-5.4l-1,3.3l-1.8,3.6l-1,1v53.3c0,1,0,1,1,1l2.8,2.8h1h53.2C157.4,183,133.6,155.5,133.6,155.5z M2.2,268.2
	c13.7-36.8,52.2-49.5,86.5-39.3l30.4-14c6.8-3-105.2,4.5-111.6,10.2C-0.5,232.2,0.4,271.2,2.2,268.2 M238.4,71l1-1l-3-11.2l-2.8,2.8
	c0.8,0.2-15.5,5.8-15.5,5.8l-5.4-6.4c0,0,4.6-9.9,7.4-12.7L139,50c-1,0-1.8,1-2.8,1.8l-10.1,14.7l1,4.6L238.4,71L238.4,71L238.4,71z
	 M170.6,159.8c-19.1-5-32-24.1-25.1-42.3h-33.2V148c0,1.3,0,2.6,2.3,2.5c6.6-0.2,15.2,0.2,16.8,0.2c5.3,0.3,24.3,27.9,27.7,30.4
	c1.8,1.8,8.4,1,8.4,1l7.4-14.7c2.1-3.6-2.8-2.8-3.6-3.6L170.6,159.8z M92.1,89.3v16.5l1.8,1.8v2.8l2.8,2.8h9.1l1.8-2.8V91.1
	L92.1,89.3z M261.5,77.2c0-1.8-1.8-2.8-2.8-2.8H93c-1.8,0-2.8,1-2.8,2.8v5.6c0,1.8,1,3.6,2.8,3.6l26.7,1.8c3.6,0,5.4,2.8,5.4,6.4
	v8.3c0,3.6,3.1,4.3,6.4,4.8h15.2l0,0c6.4-11.1,19.5-17,34.7-16.8c10.1,0.2,19.3,4.6,25.8,11.9l1-3.3l30.4,16.5l8.7-5.6h18.2
	c0,0,5,0,3.3-3.3C267.1,103.8,261.5,77.2,261.5,77.2z M146.5,125.4c0,3.6,0.7,6.9,1.7,10.7h62.7c1-2.8,1.8-6.4,1.8-10.1
	c0-3.7-1-6.4-1.8-8.4H149C147.1,119.7,146.5,122.8,146.5,125.4 M131.4,111.4c-4.6,0-9.9-3.6-9.9-8.3v-8.3c0-1.8-0.2-2-2-3l-8.3-1
	v20.5l1.8,2.8h32.5c0-1,1-1.8,1-2.8h-15.1V111.4z M265.8,114h-19.3l-6.4,3.8l10.7,6.3c5.4,2.8,4.1,9.2,1.3,14.7L230,183
	c1.8,0,2.8-1,4.6-1.8l34-23.9c1.8-1.8,3.6-3.6,3.6-6.4v-31.4C271.4,116.9,268.6,114,265.8,114 M278,84.7c-0.5-4-11.2-5.3-10.9-2.8
	c0.8,11.2,6.6,24.3,6.3,30.4h6.4l3.6-2.8v-3.7C282.6,105,278,84.7,278,84.7z M287.9,6.7l-3.6-4.6c-1-1-2.8-1.8-4.6,0l-53.3,44.2
	c3.6-0.7,10.2,3.5,10.2,8.9l51.7-44.9C288.9,9.6,288.9,7.7,287.9,6.7 M178.6,167.7l-34,68.2h55.3l49.5-99.5c1.8-4.6,1-10.1-3.6-11.9
	l-39.6-22.1c5.4,6.4,8.7,13.9,9.2,22.9c0.8,15.2-15.7,35.8-35.8,35.8c-1.8,0-3.6,0-5.4-1l3.6,1.8
	C178.6,163.1,179.5,165.9,178.6,167.7 M197,295.3h-28.6c-9.2,0-16.5-7.4-16.5-16.5c0-9.2,7.4-16.5,16.5-16.5H197
	c9.2,0,16.5,7.4,16.5,16.5C213.6,288,205.2,295.3,197,295.3z M106,239c26.6,20.5,30.9,54.5,20.8,80.1l111.8,1.5
	c-15.4-25.1-7.8-64.1,15.7-80.9C255.2,238.7,106,239,106,239z M65.1,228.9c34.7,0,62.7,28.1,62.7,62.7s-28.1,62.7-62.7,62.7
	S2.4,326.2,2.4,291.6S30.4,228.9,65.1,228.9z M297.2,227.3c34.7,0,62.7,28.1,62.7,62.7s-28.1,62.8-62.7,62.8s-62.7-28.1-62.7-62.7
	S262.5,227.3,297.2,227.3z M228.3,235.7L261,208c0,0,61.2,6.6,66.2,7.4c28.2,4.1,27.4,0.5,32,46.9c0,0-12.7-25.8-34.2-33.3
	c-31.4-11.2-49.2-3.5-67.7,6.9L228.3,235.7L228.3,235.7z"/>
</svg>
