<?xml version="1.0" encoding="utf-8"?>
<!-- Generator: Adobe Illustrator 26.0.2, SVG Export Plug-In . SVG Version: 6.00 Build 0)  -->
<svg version="1.1" id="Capa_1" xmlns="http://www.w3.org/2000/svg" xmlns:xlink="http://www.w3.org/1999/xlink" x="0px" y="0px"
	 viewBox="0 0 700 500" style="enable-background:new 0 0 700 500;" xml:space="preserve">
<path id="robomaster-animated-svg" style="fill:none;stroke:#1CABC4;stroke-width:2;stroke-miterlimit:10;" d="M400.3,123.2
	c-2.8-2.8-6.4-2.8-9.2-1c-2.8,2.8-5.8,9.7-5.8,9.7l3.1,4.1c0,0,10.6-2.6,13.4-4.5C404.6,128,403.1,126,400.3,123.2 M319.6,211.8
	c4.6,9.4,15.7,17.7,29.4,17.7c12.9,0,23.9-8.3,29.4-17.7H319.6z M377.5,187.2c-6.4-15.5-13.9-19.3-29.4-19.3
	c-12.9-1-24.3,7.4-28.7,19.3H377.5z M193.5,206.6h-12.9c-0.5,0.7-3.3,4.3-3.6,4.6v10.1v1l3.6,3.6c0.5,1.7,3.3,9.7,3.6,9.4h9.2
	L193.5,206.6L193.5,206.6z M234.6,338.3c13.2,0,23.9,10.7,23.9,23.9s-10.7,23.9-23.9,23.9s-23.9-10.7-23.9-23.9
	S221.4,338.3,234.6,338.3z M231.3,421.3c-3.5-0.3-1.3-4.3-1.8-6.4c1.2-10.2-12.9-5.8-17.5-2.8c-4,3.1-14.5-2.1-8.3-5.4
	c11.2-13.9-20.3-8.1-21.1-18.3c25.4-8.4-7.3-15.2-5.4-28.6c28.1-1,0.3-17.5,11.1-29.4c17.5,15.5,10.4-13.7,20.3-18.5
	c2.3-0.3,3.3,1.8,3.6,3.6c4.8,19,18.5-15,26.7-8.3c2.6,4.1-1.8,13,6.4,12.9c7.1,0.7,19.3-10.6,22.1,0c-16.2,15.2,17.3,9.6,19.3,20.3
	c-13.9,3.8-11.2,11.1,1,18.5c4.8,3.8,7.6,12.4,0,11.1c-18.8-1.5,1.8,19.3-5.4,27.6c-1.5,2.8-3.6-0.5-4.6-1.8
	c-13.4-9.1-7.8,21.1-17.5,21.1c-1.7,0.3-2.5-2.3-2.8-3.6C250.9,396.2,241.7,423.5,231.3,421.3z M468.2,338.3
	c-12.9,0-23.9,10.1-23.9,23.9c0,12.9,10.1,23.9,23.9,23.9c13.9,0,23.9-10.1,23.9-23.9C491.3,349.3,481,338.3,468.2,338.3 M472,419.8
	c-9.9,1.5-17.2-23.4-24.9-10.1c-0.8,1.5-1.2,5.8-3.6,5.4c-10.2-0.8-5.1-31.4-18.5-21.1c-11.2,8.4,1.7-22.8-1.8-23.9
	c-1.5-2.5-7.1-1.8-10.1-1.8c-8.9-7.1,15-16.5,11.9-22.9c0.7-3.3-7.4-5.6-9.2-7.4c4.5-13.2,34.2-2,19.3-22.1
	c6.4-9.4,27.4,11.9,27.6-4.6c0.5-2.1-1.7-6.1,1.8-6.4c10.6-1,18.7,25.3,25.8,8.3c0.5-1.8,1-4,3.6-3.6c8.7,2.8,4.6,30.9,17.5,21.1
	c11.2-8.4-1.7,22.8,1.8,23.9c5.9,4.5,19-2.1,8.3,11.9c-12.2,8.6-13.9,15-1,20.3c-1.3,10.7-32.5,4.6-21.1,18.5
	c6.1,4.5-4.6,8.3-8.3,5.4c-5.3-3.1-19.1-7.3-17.5,2.8C473.4,415.4,474.9,419.3,472,419.8 M197.1,235.3h51.3c1.7,0,2.6,0.2,2.8-0.2
	c4.3-2.5,9.4-2.6,14.4-2.6v-24.1c-4.6,0-11.1,0.5-15.4-1.8c-1,0-1,0-1.8,0h-51.3V235.3z M303.1,227.7c-1-1-2.8-1.8-4.6-1.8h-14.9
	c-2.8,0-5.4-1.2-5.4-3.8v-31.7h-5.4l-1,3.3l-1.8,3.6l-1,1v53.3c0,1,0,1,1,1l2.8,2.8h1H327C326.9,255.2,303.1,227.7,303.1,227.7z
	 M171.7,340.4c13.7-36.8,52.2-49.5,86.5-39.3l30.4-14c6.8-3-105.2,4.5-111.6,10.2C169,304.4,169.9,343.4,171.7,340.4 M407.9,143.2
	l1-1l-3-11.2l-2.8,2.8c0.8,0.2-15.5,5.8-15.5,5.8l-5.4-6.4c0,0,4.6-9.9,7.4-12.7l-81.1,1.7c-1,0-1.8,1-2.8,1.8l-10.1,14.7l1,4.6
	h111.3V143.2z M340.1,232c-19.1-5-32-24.1-25.1-42.3h-33.2v30.5c0,1.3,0,2.6,2.3,2.5c6.6-0.2,15.2,0.2,16.8,0.2
	c5.3,0.3,24.3,27.9,27.7,30.4c1.8,1.8,8.4,1,8.4,1l7.4-14.7c2.1-3.6-2.8-2.8-3.6-3.6L340.1,232z M261.6,161.5V178l1.8,1.8v2.8
	l2.8,2.8h9.1l1.8-2.8v-19.3L261.6,161.5z M431,149.4c0-1.8-1.8-2.8-2.8-2.8H262.5c-1.8,0-2.8,1-2.8,2.8v5.6c0,1.8,1,3.6,2.8,3.6
	l26.7,1.8c3.6,0,5.4,2.8,5.4,6.4v8.3c0,3.6,3.1,4.3,6.4,4.8h15.2l0,0c6.4-11.1,19.5-17,34.7-16.8c10.1,0.2,19.3,4.6,25.8,11.9l1-3.3
	l30.4,16.5l8.7-5.6H435c0,0,5,0,3.3-3.3C436.6,176,431,149.4,431,149.4z M316,197.6c0,3.6,0.7,6.9,1.7,10.7h62.7
	c1-2.8,1.8-6.4,1.8-10.1s-1-6.4-1.8-8.4h-61.9C316.6,191.9,316,195,316,197.6 M300.9,183.6c-4.6,0-9.9-3.6-9.9-8.3V167
	c0-1.8-0.2-2-2-3l-8.3-1v20.5l1.8,2.8H315c0-1,1-1.8,1-2.8h-15.1V183.6z M435.3,186.2H416l-6.4,3.8l10.7,6.3
	c5.4,2.8,4.1,9.2,1.3,14.7l-22.1,44.2c1.8,0,2.8-1,4.6-1.8l34-23.9c1.8-1.8,3.6-3.6,3.6-6.4v-31.4
	C440.9,189.1,438.1,186.2,435.3,186.2 M447.5,156.9c-0.5-4-11.2-5.3-10.9-2.8c0.8,11.2,6.6,24.3,6.3,30.4h6.4l3.6-2.8V178
	C452.1,177.2,447.5,156.9,447.5,156.9z M457.4,78.9l-3.6-4.6c-1-1-2.8-1.8-4.6,0l-53.3,44.2c3.6-0.7,10.2,3.5,10.2,8.9l51.7-44.9
	C458.4,81.8,458.4,79.9,457.4,78.9 M348.1,239.9l-34,68.2h55.3l49.5-99.5c1.8-4.6,1-10.1-3.6-11.9l-39.6-22.1
	c5.4,6.4,8.7,13.9,9.2,22.9c0.8,15.2-15.7,35.8-35.8,35.8c-1.8,0-3.6,0-5.4-1l3.6,1.8C348.1,235.3,349,238.1,348.1,239.9
	 M366.5,367.5h-28.6c-9.2,0-16.5-7.4-16.5-16.5c0-9.2,7.4-16.5,16.5-16.5h28.6c9.2,0,16.5,7.4,16.5,16.5
	C383.1,360.2,374.7,367.5,366.5,367.5z M275.5,311.2c26.6,20.5,30.9,54.5,20.8,80.1l111.8,1.5c-15.4-25.1-7.8-64.1,15.7-80.9
	C424.7,310.9,275.5,311.2,275.5,311.2z M234.6,301.1c34.7,0,62.7,28.1,62.7,62.7s-28.1,62.7-62.7,62.7s-62.7-28.1-62.7-62.7
	S199.9,301.1,234.6,301.1z M466.7,299.5c34.7,0,62.7,28.1,62.7,62.7S501.3,425,466.7,425S404,396.9,404,362.3S432,299.5,466.7,299.5
	z M397.8,307.9l32.7-27.7c0,0,61.2,6.6,66.2,7.4c28.2,4.1,27.4,0.5,32,46.9c0,0-12.7-25.8-34.2-33.3c-31.4-11.2-49.2-3.5-67.7,6.9
	L397.8,307.9L397.8,307.9z"/>
</svg>
