<?xml version="1.0" encoding="utf-8"?>
<!-- Generator: Adobe Illustrator 26.3.1, SVG Export Plug-In . SVG Version: 6.00 Build 0)  -->
<svg version="1.1" id="Layer_1" xmlns="http://www.w3.org/2000/svg" xmlns:xlink="http://www.w3.org/1999/xlink" x="0px" y="0px"
	 viewBox="0 0 303.9 303.9" style="enable-background:new 0 0 303.9 303.9;" xml:space="preserve">
<path id="rv32i-processor-animated-svg" style="fill:none;stroke:#1CABC4;stroke-width:2;stroke-miterlimit:10;" d="M250,238
	c0,6.6-5.4,12-12,12H65.9c-6.6,0-12-5.4-12-12V65.9 M53.9,65.9c0-6.6,5.4-12,12-12H238c6.6,0,12,5.4,12,12V238 M235.9,232.4V71.5
	c0-1.9-1.6-3.5-3.5-3.5H71.5c-1.9,0-3.5,1.6-3.5,3.5 M67.9,71.5v160.9c0,1.9,1.6,3.5,3.5,3.5h160.9c1.9,0,3.5-1.6,3.5-3.5 M151.9,29
	v24.9 M171.9,29v24.9 M191.9,29v24.9 M211.9,29v24.9 M91.9,29v24.9 M111.9,29v24.9 M131.9,29v24.9 M151.9,250v24.9 M171.9,250v24.9
	 M191.9,250v24.9 M211.9,250v24.9 M91.9,250v24.9 M111.9,250v24.9 M131.9,250v24.9 M250,151.9h24.9 M250,131.9h24.9 M250,111.9h24.9
	 M250,91.9h24.9 M250,211.9h24.9 M250,191.9h24.9 M250,171.9h24.9 M29,151.9h24.9 M29,131.9h24.9 M29,111.9h24.9 M29,91.9h24.9
	 M29,211.9h24.9 M29,191.9h24.9 M29,171.9h24.9 M93.6,154.1h-2v9.2c0,1.2-0.3,2.1-0.8,2.7c-0.5,0.6-1.2,0.9-2.1,0.9
	c-0.9,0-1.6-0.3-2.1-0.9s-0.8-1.5-0.8-2.6v-22c0-1.2,0.3-2.2,0.8-2.7c0.6-0.6,1.5-0.8,2.7-0.8h9.4c1.3,0,2.4,0.1,3.3,0.2
	s1.8,0.3,2.5,0.7c0.9,0.4,1.7,0.9,2.4,1.6c0.7,0.7,1.2,1.5,1.6,2.5c0.4,0.9,0.5,1.9,0.5,3c0,2.1-0.6,3.8-1.8,5.1
	c-1.2,1.3-3,2.2-5.5,2.7c1,0.5,2,1.4,2.9,2.4c0.9,1.1,1.8,2.2,2.5,3.4s1.3,2.3,1.7,3.3c0.4,1,0.6,1.6,0.6,2s-0.1,0.8-0.4,1.1
	c-0.2,0.4-0.6,0.7-1,0.9s-0.9,0.3-1.4,0.3c-0.7,0-1.2-0.2-1.6-0.5s-0.8-0.7-1.1-1.2c-0.3-0.5-0.8-1.2-1.3-2.1l-2.3-3.9
	c-0.8-1.4-1.6-2.5-2.2-3.2c-0.7-0.7-1.3-1.2-2-1.5C95.5,154.2,94.7,154.1,93.6,154.1z M97,142h-5.4v7.9h5.2c1.4,0,2.6-0.1,3.5-0.4
	c1-0.2,1.7-0.7,2.2-1.2c0.5-0.6,0.8-1.4,0.8-2.4c0-0.8-0.2-1.5-0.6-2.1s-1-1.1-1.7-1.4C100.3,142.2,99,142,97,142z M114.9,163.3
	v-22.6c0-1.2,0.3-2.1,0.8-2.6c0.5-0.6,1.2-0.9,2.1-0.9s1.6,0.3,2.1,0.9s0.8,1.5,0.8,2.6v22.6c0,1.2-0.3,2.1-0.8,2.7
	c-0.5,0.6-1.2,0.9-2.1,0.9c-0.8,0-1.5-0.3-2.1-0.9C115.1,165.3,114.9,164.4,114.9,163.3z M148.9,157.7c0,1.7-0.4,3.3-1.3,4.7
	c-0.9,1.4-2.2,2.5-3.9,3.2s-3.8,1.2-6.1,1.2c-2.8,0-5.2-0.5-7-1.6c-1.3-0.8-2.4-1.8-3.2-3.1c-0.8-1.3-1.2-2.5-1.2-3.7
	c0-0.7,0.2-1.3,0.7-1.8s1.1-0.8,1.9-0.8c0.6,0,1.1,0.2,1.6,0.6c0.4,0.4,0.8,1,1.1,1.7c0.4,0.9,0.8,1.7,1.2,2.3
	c0.4,0.6,1,1.1,1.8,1.5s1.8,0.6,3,0.6c1.7,0,3.1-0.4,4.2-1.2s1.6-1.8,1.6-3c0-1-0.3-1.7-0.9-2.3c-0.6-0.6-1.3-1-2.2-1.4
	c-0.9-0.4-2.1-0.6-3.7-1c-2.1-0.5-3.8-1-5.2-1.7c-1.4-0.7-2.5-1.5-3.3-2.6s-1.2-2.5-1.2-4.2c0-1.6,0.4-3,1.3-4.2
	c0.9-1.2,2.1-2.2,3.7-2.8c1.6-0.7,3.5-1,5.7-1c1.8,0,3.3,0.2,4.6,0.7c1.3,0.4,2.3,1,3.2,1.7c0.8,0.7,1.5,1.5,1.9,2.3
	s0.6,1.6,0.6,2.3s-0.2,1.3-0.7,1.9c-0.5,0.6-1.1,0.8-1.8,0.8c-0.7,0-1.2-0.2-1.5-0.5c-0.3-0.3-0.7-0.9-1.1-1.6
	c-0.5-1.1-1.1-1.9-1.9-2.5c-0.7-0.6-1.9-0.9-3.5-0.9c-1.5,0-2.7,0.3-3.6,1c-0.9,0.7-1.4,1.4-1.4,2.4c0,0.6,0.2,1.1,0.5,1.5
	c0.3,0.4,0.7,0.8,1.3,1.1c0.5,0.3,1.1,0.5,1.7,0.7c0.6,0.2,1.5,0.4,2.8,0.7c1.6,0.4,3.1,0.8,4.4,1.2c1.3,0.5,2.4,1,3.3,1.7
	c0.9,0.7,1.6,1.5,2.1,2.5C148.6,155.1,148.9,156.3,148.9,157.7z M178.2,157.3c0,0.9-0.2,1.9-0.7,3c-0.4,1.1-1.2,2.1-2.1,3.1
	c-1,1-2.2,1.9-3.7,2.5s-3.2,1-5.2,1c-1.5,0-2.9-0.1-4.1-0.4c-1.2-0.3-2.4-0.7-3.4-1.3s-1.9-1.4-2.8-2.4c-0.8-0.9-1.4-1.9-1.9-3
	s-0.9-2.3-1.2-3.6c-0.3-1.3-0.4-2.6-0.4-4c0-2.3,0.3-4.4,1-6.2c0.7-1.8,1.6-3.4,2.9-4.7c1.2-1.3,2.7-2.3,4.4-3c1.7-0.7,3.5-1,5.4-1
	c2.3,0,4.4,0.5,6.2,1.4s3.2,2.1,4.2,3.4c1,1.4,1.4,2.6,1.4,3.9c0,0.7-0.2,1.2-0.7,1.8s-1,0.8-1.7,0.8s-1.3-0.2-1.7-0.5
	s-0.8-1-1.2-1.8c-0.8-1.4-1.6-2.5-2.7-3.2c-1-0.7-2.3-1.1-3.8-1.1c-2.4,0-4.3,0.9-5.7,2.7c-1.4,1.8-2.1,4.4-2.1,7.7
	c0,2.2,0.3,4.1,0.9,5.6c0.6,1.5,1.5,2.6,2.7,3.3c1.1,0.7,2.5,1.1,4,1.1c1.7,0,3.1-0.4,4.2-1.2c1.2-0.8,2-2,2.6-3.6
	c0.2-0.8,0.6-1.4,0.9-1.8c0.4-0.5,1-0.7,1.8-0.7c0.7,0,1.3,0.2,1.8,0.7C178,156,178.2,156.6,178.2,157.3z M190.1,158.3h-6.2
	c-0.9,0-1.7-0.2-2.1-0.7c-0.5-0.4-0.7-1-0.7-1.7s0.2-1.3,0.7-1.7s1.2-0.7,2.2-0.7h6.2c1,0,1.7,0.2,2.2,0.7c0.5,0.4,0.7,1,0.7,1.7
	s-0.2,1.3-0.7,1.7C191.8,158.1,191,158.3,190.1,158.3z M201,141l6.5,19.2l6.5-19.3c0.3-1,0.6-1.7,0.8-2.1c0.2-0.4,0.4-0.8,0.8-1.1
	c0.4-0.3,0.9-0.5,1.6-0.5c0.5,0,1,0.1,1.4,0.4c0.4,0.2,0.8,0.6,1,1c0.2,0.4,0.4,0.8,0.4,1.2c0,0.3,0,0.6-0.1,0.9s-0.2,0.7-0.3,1
	s-0.2,0.6-0.4,1l-6.9,18.7c-0.2,0.7-0.5,1.4-0.7,2s-0.5,1.2-0.9,1.7s-0.8,0.9-1.3,1.2s-1.2,0.5-2,0.5s-1.4-0.2-2-0.5s-1-0.7-1.3-1.2
	s-0.6-1.1-0.9-1.7c-0.2-0.6-0.5-1.3-0.7-2l-6.8-18.6c-0.1-0.3-0.2-0.7-0.4-1c-0.1-0.3-0.2-0.7-0.3-1.1s-0.1-0.7-0.1-1
	c0-0.7,0.3-1.3,0.8-1.8s1.2-0.8,2-0.8c1,0,1.7,0.3,2.1,0.9C200.2,138.6,200.6,139.7,201,141z"/>
</svg>
