<?xml version="1.0" encoding="utf-8"?>
<!-- Generator: Adobe Illustrator 26.3.1, SVG Export Plug-In . SVG Version: 6.00 Build 0)  -->
<svg version="1.1" id="Layer_1" xmlns="http://www.w3.org/2000/svg" xmlns:xlink="http://www.w3.org/1999/xlink" x="0px" y="0px"
	 viewBox="0 0 266.1 266.1" style="enable-background:new 0 0 266.1 266.1;" xml:space="preserve">
<path id="rv32i-processor-animated-svg" style="fill:none;stroke:#1CABC4;stroke-width:2;stroke-miterlimit:10;" d="M231.1,219.1
	c0,6.6-5.4,12-12,12H47c-6.6,0-12-5.4-12-12V47 M35,47c0-6.6,5.4-12,12-12h172.1c6.6,0,12,5.4,12,12v172.1 M217,213.5V52.6
	c0-1.9-1.6-3.5-3.5-3.5H52.6c-1.9,0-3.5,1.6-3.5,3.5 M49,52.6v160.9c0,1.9,1.6,3.5,3.5,3.5h160.9c1.9,0,3.5-1.6,3.5-3.5 M133,10.1
	V35 M153,10.1V35 M173,10.1V35 M193,10.1V35 M73,10.1V35 M93,10.1V35 M113,10.1V35 M133,231.1V256 M153,231.1V256 M173,231.1V256
	 M193,231.1V256 M73,231.1V256 M93,231.1V256 M113,231.1V256 M231.1,133H256 M231.1,113H256 M231.1,93H256 M231.1,73H256 M231.1,193
	H256 M231.1,173H256 M231.1,153H256 M10.1,133H35 M10.1,113H35 M10.1,93H35 M10.1,73H35 M10.1,193H35 M10.1,173H35 M10.1,153H35
	 M74.7,135.2h-2v9.2c0,1.2-0.3,2.1-0.8,2.7c-0.5,0.6-1.2,0.9-2.1,0.9s-1.6-0.3-2.1-0.9s-0.8-1.5-0.8-2.6v-22c0-1.2,0.3-2.2,0.8-2.7
	c0.6-0.6,1.5-0.8,2.7-0.8h9.4c1.3,0,2.4,0.1,3.3,0.2s1.8,0.3,2.5,0.7c0.9,0.4,1.7,0.9,2.4,1.6c0.7,0.7,1.2,1.5,1.6,2.5
	c0.4,0.9,0.5,1.9,0.5,3c0,2.1-0.6,3.8-1.8,5.1c-1.2,1.3-3,2.2-5.5,2.7c1,0.5,2,1.4,2.9,2.4c0.9,1.1,1.8,2.2,2.5,3.4s1.3,2.3,1.7,3.3
	c0.4,1,0.6,1.6,0.6,2s-0.1,0.8-0.4,1.1c-0.2,0.4-0.6,0.7-1,0.9s-0.9,0.3-1.4,0.3c-0.7,0-1.2-0.2-1.6-0.5s-0.8-0.7-1.1-1.2
	c-0.3-0.5-0.8-1.2-1.3-2.1l-2.3-3.9c-0.8-1.4-1.6-2.5-2.2-3.2c-0.7-0.7-1.3-1.2-2-1.5C76.6,135.3,75.8,135.2,74.7,135.2z
	 M78.1,123.1h-5.4v7.9h5.2c1.4,0,2.6-0.1,3.5-0.4c1-0.2,1.7-0.7,2.2-1.2c0.5-0.6,0.8-1.4,0.8-2.4c0-0.8-0.2-1.5-0.6-2.1
	s-1-1.1-1.7-1.4C81.4,123.3,80.1,123.1,78.1,123.1z M96,144.4v-22.6c0-1.2,0.3-2.1,0.8-2.6c0.5-0.6,1.2-0.9,2.1-0.9s1.6,0.3,2.1,0.9
	s0.8,1.5,0.8,2.6v22.6c0,1.2-0.3,2.1-0.8,2.7c-0.5,0.6-1.2,0.9-2.1,0.9c-0.8,0-1.5-0.3-2.1-0.9C96.2,146.4,96,145.5,96,144.4z
	 M130,138.8c0,1.7-0.4,3.3-1.3,4.7c-0.9,1.4-2.2,2.5-3.9,3.2s-3.8,1.2-6.1,1.2c-2.8,0-5.2-0.5-7-1.6c-1.3-0.8-2.4-1.8-3.2-3.1
	s-1.2-2.5-1.2-3.7c0-0.7,0.2-1.3,0.7-1.8s1.1-0.8,1.9-0.8c0.6,0,1.1,0.2,1.6,0.6c0.4,0.4,0.8,1,1.1,1.7c0.4,0.9,0.8,1.7,1.2,2.3
	s1,1.1,1.8,1.5s1.8,0.6,3,0.6c1.7,0,3.1-0.4,4.2-1.2s1.6-1.8,1.6-3c0-1-0.3-1.7-0.9-2.3c-0.6-0.6-1.3-1-2.2-1.4s-2.1-0.6-3.7-1
	c-2.1-0.5-3.8-1-5.2-1.7s-2.5-1.5-3.3-2.6s-1.2-2.5-1.2-4.2c0-1.6,0.4-3,1.3-4.2c0.9-1.2,2.1-2.2,3.7-2.8c1.6-0.7,3.5-1,5.7-1
	c1.8,0,3.3,0.2,4.6,0.7c1.3,0.4,2.3,1,3.2,1.7c0.8,0.7,1.5,1.5,1.9,2.3s0.6,1.6,0.6,2.3s-0.2,1.3-0.7,1.9c-0.5,0.6-1.1,0.8-1.8,0.8
	s-1.2-0.2-1.5-0.5s-0.7-0.9-1.1-1.6c-0.5-1.1-1.1-1.9-1.9-2.5c-0.7-0.6-1.9-0.9-3.5-0.9c-1.5,0-2.7,0.3-3.6,1
	c-0.9,0.7-1.4,1.4-1.4,2.4c0,0.6,0.2,1.1,0.5,1.5s0.7,0.8,1.3,1.1c0.5,0.3,1.1,0.5,1.7,0.7c0.6,0.2,1.5,0.4,2.8,0.7
	c1.6,0.4,3.1,0.8,4.4,1.2c1.3,0.5,2.4,1,3.3,1.7c0.9,0.7,1.6,1.5,2.1,2.5C129.7,136.2,130,137.4,130,138.8z M159.3,138.4
	c0,0.9-0.2,1.9-0.7,3c-0.4,1.1-1.2,2.1-2.1,3.1c-1,1-2.2,1.9-3.7,2.5s-3.2,1-5.2,1c-1.5,0-2.9-0.1-4.1-0.4c-1.2-0.3-2.4-0.7-3.4-1.3
	s-1.9-1.4-2.8-2.4c-0.8-0.9-1.4-1.9-1.9-3s-0.9-2.3-1.2-3.6s-0.4-2.6-0.4-4c0-2.3,0.3-4.4,1-6.2s1.6-3.4,2.9-4.7
	c1.2-1.3,2.7-2.3,4.4-3s3.5-1,5.4-1c2.3,0,4.4,0.5,6.2,1.4s3.2,2.1,4.2,3.4c1,1.4,1.4,2.6,1.4,3.9c0,0.7-0.2,1.2-0.7,1.8
	s-1,0.8-1.7,0.8s-1.3-0.2-1.7-0.5s-0.8-1-1.2-1.8c-0.8-1.4-1.6-2.5-2.7-3.2c-1-0.7-2.3-1.1-3.8-1.1c-2.4,0-4.3,0.9-5.7,2.7
	s-2.1,4.4-2.1,7.7c0,2.2,0.3,4.1,0.9,5.6c0.6,1.5,1.5,2.6,2.7,3.3c1.1,0.7,2.5,1.1,4,1.1c1.7,0,3.1-0.4,4.2-1.2c1.2-0.8,2-2,2.6-3.6
	c0.2-0.8,0.6-1.4,0.9-1.8c0.4-0.5,1-0.7,1.8-0.7c0.7,0,1.3,0.2,1.8,0.7C159.1,137.1,159.3,137.7,159.3,138.4z M171.2,139.4H165
	c-0.9,0-1.7-0.2-2.1-0.7c-0.5-0.4-0.7-1-0.7-1.7s0.2-1.3,0.7-1.7s1.2-0.7,2.2-0.7h6.2c1,0,1.7,0.2,2.2,0.7c0.5,0.4,0.7,1,0.7,1.7
	s-0.2,1.3-0.7,1.7C172.9,139.2,172.1,139.4,171.2,139.4z M182.1,122.1l6.5,19.2l6.5-19.3c0.3-1,0.6-1.7,0.8-2.1
	c0.2-0.4,0.4-0.8,0.8-1.1c0.4-0.3,0.9-0.5,1.6-0.5c0.5,0,1,0.1,1.4,0.4c0.4,0.2,0.8,0.6,1,1s0.4,0.8,0.4,1.2c0,0.3,0,0.6-0.1,0.9
	s-0.2,0.7-0.3,1s-0.2,0.6-0.4,1l-6.9,18.7c-0.2,0.7-0.5,1.4-0.7,2s-0.5,1.2-0.9,1.7s-0.8,0.9-1.3,1.2s-1.2,0.5-2,0.5s-1.4-0.2-2-0.5
	s-1-0.7-1.3-1.2s-0.6-1.1-0.9-1.7c-0.2-0.6-0.5-1.3-0.7-2l-6.8-18.6c-0.1-0.3-0.2-0.7-0.4-1c-0.1-0.3-0.2-0.7-0.3-1.1
	s-0.1-0.7-0.1-1c0-0.7,0.3-1.3,0.8-1.8s1.2-0.8,2-0.8c1,0,1.7,0.3,2.1,0.9C181.3,119.7,181.7,120.8,182.1,122.1z"/>
</svg>
