<?xml version="1.0" encoding="utf-8"?>
<!-- Generator: Adobe Illustrator 26.0.3, SVG Export Plug-In . SVG Version: 6.00 Build 0)  -->
<svg version="1.1" id="Layer_1" xmlns="http://www.w3.org/2000/svg" xmlns:xlink="http://www.w3.org/1999/xlink" x="0px" y="0px"
	 viewBox="0 0 306.8 310.2" style="enable-background:new 0 0 306.8 310.2;" xml:space="preserve">
<path id="wireless-charging-table-side-animated-svg" style="opacity:0.5;fill:none;stroke:#1CABC4;stroke-width:2;stroke-linecap:round;stroke-linejoin:round;stroke-miterlimit:10;" d="
	M172.1,60.5c-4.2-1.8-10.9-2.9-18.3-2.9c-8,0-15,1.3-19.2,3.3 M177.8,50.8c-5.5-1.8-14.1-2.9-23.8-2.9c-10.4,0-19.5,1.3-24.9,3.3
	 M165.8,69.1c-2.8-1.1-7.2-1.9-12.2-1.9c-5.3,0-10,0.8-12.7,2.1 M171,14.3V4.1c0-1.7-1.4-3.1-3.1-3.1h-30c-1.7,0-3.1,1.4-3.1,3.1
	v10.2c0,1.7,1.4,3.1,3.1,3.1h30C169.6,17.4,171,16,171,14.3z M173,13.4h1.6c0.8,0,1.4-0.6,1.4-1.4V6.5c0-0.8-0.6-1.4-1.4-1.4H173
	 M152.9,14l2.9-4.8h-5.7l2.7-4.9"/>
<path id="wireless-charging-table-animated-svg" style="fill:none;stroke:#1CABC4;stroke-width:2;stroke-linecap:round;stroke-linejoin:round;stroke-miterlimit:10;" d="
	M295.8,79.6c5.5,0,10,4.5,10,10v209.6c0,5.5-4.5,10-10,10h-6.7c-5.5,0-10-4.5-10-10l0,0c0-5.5-4.5-10-10-10H38.7
	c-5.5,0-10,4.5-10,10l0,0c0,5.5-4.5,10-10,10H11 M11,309.1c-5.5,0-10-4.5-10-10V89.6c0-5.5,4.5-10,10-10h284.9 M28.5,269.3h248
	c2.8,0,5.2-2.3,5.2-5.2V124.9l-25.1-25.2 M256.6,99.6h-208l-25.2,25.3v139.3c0,2.8,2.3,5.2,5.2,5.2 M180.2,168.6h101.5 M23.4,168.6
	h103.1 M180.2,158.9h101.5 M23.4,158.9h103.1 M177.5,109.9h-48.2c-1.5,0-2.8,1.2-2.8,2.8v69c0,1.5,1.2,2.8,2.8,2.8h48.2
	c1.5,0,2.8-1.2,2.8-2.8v-69C180.2,111.2,179,109.9,177.5,109.9z M218.4,34v-5.3c0-1-0.8-1.8-1.8-1.8H90.4c-1,0-1.8,0.8-1.8,1.8V34
	c0,1,0.8,1.8,1.8,1.8h126.2C217.6,35.9,218.4,35,218.4,34z M165.1,117.6c-3.8,0-6.8,3-6.8,6.8s3,6.8,6.8,6.8s6.8-3,6.8-6.8
	S168.9,117.6,165.1,117.6z"/>
</svg>
