<?xml version="1.0" encoding="utf-8"?>
<!-- Generator: Adobe Illustrator 26.0.2, SVG Export Plug-In . SVG Version: 6.00 Build 0)  -->
<svg version="1.1"
	 id="svg2" xmlns:cc="http://creativecommons.org/ns#" xmlns:dc="http://purl.org/dc/elements/1.1/" xmlns:inkscape="http://www.inkscape.org/namespaces/inkscape" xmlns:rdf="http://www.w3.org/1999/02/22-rdf-syntax-ns#" xmlns:sodipodi="http://sodipodi.sourceforge.net/DTD/sodipodi-0.dtd" xmlns:svg="http://www.w3.org/2000/svg"
	 xmlns="http://www.w3.org/2000/svg" xmlns:xlink="http://www.w3.org/1999/xlink" x="0px" y="0px" viewBox="0 0 1602.7 2139.4"
	 style="enable-background:new 0 0 1602.7 2139.4;" xml:space="preserve">
<style type="text/css">
	.st0{fill:none;stroke:#1CABC4;stroke-width:2;}
	.st1{fill:#0D6EFD;}
	.st2{fill:url(#SVGID_1_);}
	.st3{fill:none;stroke:#FFFFFF;stroke-width:2;stroke-miterlimit:10;}
	.st4{fill:#FD7E14;}
	.st5{fill:#FFFFFF;}
	.st6{fill:#DEE2E6;}
</style>
<defs>
	
		<inkscape:perspective  id="perspective10" inkscape:persp3d-origin="372.04724 : 350.78739 : 1" inkscape:vp_x="0 : 526.18109 : 1" inkscape:vp_y="0 : 1000 : 0" inkscape:vp_z="744.09448 : 526.18109 : 1" sodipodi:type="inkscape:persp3d">
		</inkscape:perspective>
	
		<inkscape:perspective  id="perspective2824" inkscape:persp3d-origin="0.5 : 0.33333333 : 1" inkscape:vp_x="0 : 0.5 : 1" inkscape:vp_y="0 : 1000 : 0" inkscape:vp_z="1 : 0.5 : 1" sodipodi:type="inkscape:persp3d">
		</inkscape:perspective>
</defs>
<sodipodi:namedview  bordercolor="#666666" borderopacity="1.0" id="base" inkscape:current-layer="layer1" inkscape:cx="625.17606" inkscape:cy="385.25041" inkscape:document-units="px" inkscape:pageopacity="0.0" inkscape:pageshadow="2" inkscape:window-height="705" inkscape:window-maximized="1" inkscape:window-width="1366" inkscape:window-x="-8" inkscape:window-y="-8" inkscape:zoom="0.43852551" pagecolor="#ffffff" showgrid="false">
	</sodipodi:namedview>
<g id="layer1" transform="translate(275.17606,-309.45844)" inkscape:groupmode="layer" inkscape:label="Ebene 1">
	<path id="path2830" class="st0" d="M103,2426c-6-2.2-7.7-4.4-6.3-8.2c0.7-1.7,1.9-3.2,2.8-3.2c0.9,0,4.8,2,8.7,4.5
		c3.9,2.5,8.6,5.1,10.5,5.8l3.5,1.3l-4.3,0.1c-2.4,0.1-5.8,0.3-7.7,0.6S105.2,2426.8,103,2426L103,2426z M89.4,2414.4
		c-1.1-0.6-3-0.8-4.2-0.5c-1.5,0.5-2.6-0.2-3.7-2.3c-0.9-1.6-2.4-3.2-3.5-3.6c-2.4-0.8-7.3-8.9-10.1-16.4c-1.4-3.8-3.3-6.4-5.5-7.7
		c-4-2.2-4.2-3.3-1.2-4.2c3.5-1.1,4.2-7.3,1.2-11.4c-1.4-2-2.1-4.3-1.7-5.4c0.5-1.3-0.9-3.6-4.2-7c-4.2-4.3-5-5.9-5.2-10.4
		c-0.1-2.9-0.8-6.1-1.6-7c-0.9-1.1-1.1-5.2-0.6-13.3c0.6-8.8,0.2-14.2-1.3-21.7c-2.3-11.2-3.4-32.1-2.8-51.1
		c0.1-4.1-0.4-9.6-1.2-12.4c-1.9-6.7-10.5-15.2-21.1-20.8c-7.6-4-8.7-5-11.7-11.2c-1.8-3.7-5.2-9.3-7.7-12.4c-2.4-3.1-5-7.6-5.8-10
		c-2.5-7.8-6.9-15.6-10-17.5c-1.6-1.1-3.4-3.8-4.1-6.1c-1-3.7-0.8-4.7,2.5-9.4c3.5-5.1,3.5-5.3,1.2-5.9c-5.8-1.5-3.3-9.2,7-22.3
		c6.9-8.7,8.9-15.3,7-23c-0.7-2.9-1.4-6-1.4-6.8c-0.1-0.8-0.6-1.5-1.2-1.5s-0.5-1.1,0.2-2.4c1.1-2,0.8-2.6-1.8-3.8
		c-3.8-1.7-9.4,0-9.5,2.8c0,3.4-1.5,3.7-6.5,1.1c-2.6-1.4-5.4-2.5-6.1-2.5c-0.7,0-3.5-1.9-6.2-4.2s-5.5-4.7-6.3-5.4
		c-0.8-0.6-1.5-2.4-1.5-3.9c0-1.5-1-3.7-2.3-4.8c-1.3-1.2-2.9-3.9-3.7-6.2c-1-3-1.7-3.7-2.6-2.8c-1.9,1.9-4.8,1.6-11.8-1.5
		c-3.7-1.6-7.5-4.4-9-6.5c-1.5-2-4.2-4.5-6.2-5.5c-3.2-1.7-4-1.6-8.7,0.1l-5.1,2l-15.8-7.6c-9.7-4.7-17.2-9.2-19.5-11.6
		c-3.6-3.8-3.7-4.2-2.5-9c1.1-4.3,0.9-5.7-1.5-10.6c-1.5-3.1-4.8-7.9-7.3-10.6s-4.3-5.4-3.9-6c0.3-0.6-1.4-4.4-3.9-8.5
		c-2.9-4.7-4.9-9.6-5.4-13.3c-0.6-4.7-1.4-6.1-3.8-7.2c-2.5-1.1-3.2-1-4.7,1c-2,2.8-1.5,5.7,3,15.4c1.8,3.9,3.7,9.8,4.2,13
		c0.5,3.2,1.9,7.8,3.1,10.3c3,5.8,1,5.7-3.6-0.2c-2.8-3.5-3.5-5.4-3-7.6c0.6-2.3,0-3.5-2.9-5.6c-4.3-3.2-5.3-5.3-3.7-8.3
		c0.9-1.7,0.5-3.6-1.9-8.3c-2.4-4.7-2.9-7-2.3-10.5c1-5.7-1.6-10.9-6.4-12.9c-2.8-1.1-3.7-2.4-4.3-5.8c-0.4-2.4-1.2-6-1.7-8.1
		c-0.6-2.2-0.5-4.1,0.1-4.5c0.6-0.4,0.2-2-0.9-3.6c-1.6-2.4-1.7-3.5-0.6-5.9c0.7-1.6,1-3.5,0.6-4.2c-0.4-0.7,0.6-2.6,2.2-4.3
		c1.6-1.7,3.8-5.2,4.8-7.7c1-2.5,4.2-7.1,7-10.3c2.8-3.2,6.4-8.7,8-12.3c2.2-5,3.4-6.5,5.4-6.6c1.4,0,2.5,0.6,2.4,1.5
		c-0.4,3.4,2.3,2.3,5.3-2.1c1.8-2.6,2.7-4.9,2.1-5.1c-0.6-0.2-1.1-1.2-1.1-2.2c0-1-2.4-4.2-5.4-7.1c-5-4.8-5.3-5.5-3.6-7.3
		c1.3-1.5,1.5-2.6,0.6-4.1c-1.6-2.8,0.9-9.1,3.6-9.1c1.1,0,1.4-0.4,0.7-0.9c-1.5-1.1-2.2-3.7-2-7.4c0.3-5.9-1-8.4-5.3-10.2
		c-2.4-1-6-3.1-8-4.6c-2.1-1.6-4.7-2.8-5.8-2.8c-1.1,0-6.3-1.1-11.4-2.4c-8.3-2.1-9.7-2.2-12.6-0.7c-5.9,3.1-12.2,4.3-14.8,2.9
		c-1.9-1-4-0.4-11.3,3.4c-4.9,2.6-10.8,5.1-13.1,5.6c-2.3,0.5-6.6,2.1-9.7,3.7c-8.6,4.4-21,8.7-24.4,8.7c-2.2,0-0.7-1,5.2-3.3
		c10-4,20.2-9.1,21.2-10.7c1.2-1.9-1.4-2.6-4.4-1.2c-2.2,1-3.6,0.9-6.2-0.4l-3.3-1.7l3.6-1.9c4.1-2.1,5.4-4.5,4.4-8.3
		c-0.9-3.6,4.1-6.3,14.9-7.9c5.8-0.9,10.2-2.3,13.2-4.4c5.2-3.6,4.3-6.3-1.3-3.9c-2.7,1.1-4.6,1.1-8.6,0.1c-4.8-1.3-5-1.5-2.8-3.1
		c3.6-2.6,11.1-4.2,16-3.4c3.1,0.5,5.6,0.2,8.3-1.2l3.8-1.9l-2.5-2.6c-1.4-1.5-2.5-3-2.5-3.3c0-1.1,7.1-3.3,10.7-3.3
		c1.8,0,6.6-1.3,10.8-2.9c4.2-1.6,13.8-3.7,21.4-4.8c12.3-1.7,14.9-1.7,24.2-0.2c5.7,0.9,13.5,2.1,17.4,2.5s10.8,1.8,15.3,3
		c10.5,2.9,17.4,2.9,29.2-0.1c5.2-1.3,10.4-2.1,11.7-1.7c1.2,0.4,3.3,0.1,4.6-0.6c1.8-1,3.2-0.9,5.8,0.5c2.3,1.2,5.2,1.6,9.2,1.1
		c4.2-0.5,7.8,0,13.1,1.8c4,1.4,8.5,2.5,10,2.5c2.6,0,2.6,0,0.3,1.7c-2.2,1.6-2.2,1.7-0.1,2.5c1.2,0.5,5.3,0.5,9.1,0.1
		c6.9-0.7,7-0.7,8.9,3l1.9,3.8l2.5-3.2c1.5-1.8,4.9-3.9,8.1-4.8c4.9-1.5,6.3-1.5,11.2,0c3.4,1.1,7.6,1.4,10.6,1
		c3.9-0.6,5.7-0.2,8.3,1.6c3.2,2.3,3.3,2.3,6.2,0.1c1.6-1.2,4.9-2.8,7.3-3.5c5.8-1.6,7.8-5.1,4.3-7.5c-2.5-1.7-2.4-1.9,4.1-5
		c4.8-2.4,7-2.9,8-2s0.9,2,0,3.8c-1.6,3.1,0.4,7.7,3,6.8c0.9-0.4,2.5-0.3,3.4,0c1.5,0.6,1.5,1.1-0.2,3.6c-4.5,6.9,5.6,5,12.5-2.4
		c2.8-3,7.1-3.9,11.2-2.4c2.6,1,2.4,1.8-2,6.6c-5.2,5.7-7.8,6.8-15.6,6.8c-3.8,0-8.2,0.8-10.3,1.9c-2.9,1.5-4.3,1.6-6.5,0.6
		c-4.2-1.9-5.7-0.3-2.7,2.9l2.6,2.7l-5.1,1.5c-2.8,0.8-7.5,1.5-10.5,1.6c-4.2,0.1-5.3,0.6-5.3,2.3c0,1.4-2.1,2.9-6.5,4.8
		c-14.3,5.9-26.5,16.4-22.1,19.2c0.8,0.5,2.1,2.4,2.9,4.2c0.9,2,2.6,3.5,4.7,3.9c1.8,0.4,6.5,2.2,10.4,4.1s8.7,3.8,10.6,4.3
		c5.4,1.2,5.4,1.3,2.9,7.6c-2.1,5.4-2.2,6.2-0.5,9.4c1,1.9,2.5,3.5,3.3,3.4c3.9-0.1,7.5-3.7,9.8-9.6c2.1-5.6,3.1-6.7,9.3-10
		c9.1-4.9,12.9-9.7,11.9-15c-0.7-3.5-0.3-4.3,2.7-6.5c1.9-1.3,4.4-4.6,5.6-7.2c2.6-5.8,6.8-7.8,13.9-6.6c6.3,1,13.7,5,14.6,7.8
		c0.4,1.2,0.1,3.2-0.7,4.6c-1.1,2.1-0.9,3,1.3,5.3l2.6,2.8l4.3-2.2c2.4-1.2,6.1-3.6,8.4-5.3l4.1-3.1l1,2.6c0.5,1.4,0.7,3.3,0.3,4.2
		c-0.3,0.9-0.1,2.7,0.6,3.9c0.8,1.4,0.8,3,0.2,4.2c-0.7,1.3-0.2,3.4,1.7,6.7c2.7,4.8,2.7,4.8,0.3,6.5c-3.1,2.2-1.1,4.5,2.3,2.7
		c3.4-1.8,7.4-1.6,9.8,0.6c3.6,3.2,0.6,7.1-8.9,11.6c-10.3,4.9-14.9,5.8-28.4,5.9c-10,0.1-11.3,0.4-21,5c-5.7,2.7-10.3,5.4-10.3,6
		c0,2.4,1.8,2.2,8.7-1c4-1.9,9.3-3.4,11.8-3.4c4.2,0,4.4,0.1,3.1,2.6c-0.8,1.4-2.4,3.4-3.7,4.5c-2,1.6-2.1,2.3-0.9,5
		c1.9,4.1,6.7,6,12.5,5.1l4.6-0.8l-3.5,2.4c-1.9,1.3-5.1,2.8-7.1,3.2s-6,2-9,3.5c-3,1.5-6,2.3-6.8,1.8c-1.9-1.2,0.1-2.9,6.2-5.4
		c5.4-2.3,4.5-4.7-1.3-3.6c-2.3,0.4-9.6,3.2-16.3,6.2c-10.5,4.6-12.3,5.8-12.9,8.6c-0.8,3.4-3.3,5-12.3,7.8c-2.9,0.9-6.6,3-8.3,4.7
		s-4.9,4.3-7.1,5.7c-2.2,1.4-4.4,3.9-4.8,5.5c-0.6,2.7-0.8,2.7-1.6,0.7c-1.5-3.8-3.7-0.1-3.8,6.5c-0.1,6.7-3.5,11.3-11,14.8
		c-7.7,3.6-18.6,12.1-20.8,16.2c-1.9,3.6-2,5-0.8,14.3c1.1,8.7,1.1,10.9-0.4,13.7c-1.1,2.1-2.4,3.1-3.5,2.7c-2.5-1-5.6-11.4-4.8-16
		c0.6-3.2,0.2-4.4-2.2-6.7c-1.9-1.8-3.7-2.5-5.2-2c-1.3,0.4-4.8-0.4-8-1.7c-4.8-2-6.3-2.2-9.7-1.1c-2.3,0.8-4.6,2.6-5.3,4.2
		c-1.1,2.5-1.9,2.8-4.9,2.1c-2-0.4-5.1-1.5-6.8-2.4c-4.3-2.2-6.7-2.1-11.6,0.7c-2.3,1.3-6.9,3.8-10.3,5.5c-3.9,2-6.6,4.3-7.3,6.2
		c-0.6,1.7-2.8,8.2-4.8,14.4l-3.7,11.4l1.9,7.4c3.5,13.5,8.4,17.6,18.5,15.4c7.7-1.6,12.2-5,13.9-10.1c1.1-3.3,2.2-4.3,5.7-5.3
		c5.2-1.4,7.4-1.5,9.4-0.2c1.7,1,1.1,2.8-6.3,18.8c-5.1,11-4.7,12,4,10.7c7.9-1.1,15.2-0.3,16,1.9c0.3,0.9-0.2,6.7-1.2,12.9
		c-1.8,11.1-1.8,11.4,0.8,15.5c1.4,2.3,4.1,5,5.9,5.9c2.9,1.5,3.8,1.5,7.5,0c5.8-2.4,9-2.2,13.1,1.1c3.2,2.6,3.7,2.7,6.3,1
		c1.5-1,3.6-3.5,4.6-5.5c2.3-4.5,6.1-7.7,9.4-7.8c1.3,0,3.7-1.4,5.2-3c3.1-3.3,8.6-4.4,5.9-1.2c-2.2,2.7-3.5,11.4-2.1,14.1
		c1.2,2.2,1.3,2.2,3.5-0.5c1.6-1.9,1.9-3.2,1-4c-2-2-1.4-3.7,2.4-6.5c3.9-2.9,7-2.6,10.3,1c2.5,2.6,15.7,6.2,19.5,5.3
		c5.8-1.5,21.4,8,27.3,16.6c2.8,4.1,11.7,8.1,15.6,7.2c8.1-2,19.1,6.1,21.7,15.9c0.8,2.9,1.9,5.6,2.6,6.1c1.7,1.1-0.9,5.3-6.5,10.7
		c-3.6,3.4-4.5,4.9-3.5,5.9c1,1,2.7,0.1,6.7-3.6c5.8-5.4,7.8-5.9,10.7-3c1.8,1.8,1.7,2.1-0.7,4.7c-1.4,1.5-3.5,2.8-4.5,2.9
		c-1.1,0-0.6,0.6,1,1.2c2.3,0.9,3.5,0.7,5.9-1.3c6.2-5,7.7-5.3,13.2-2.2c3.6,2,5,3.5,4.9,5.2c-0.5,4.5,0.6,5.5,3.7,3.5
		c2.5-1.6,4.2-1.7,12.5-0.6c8.8,1.2,10,1.7,14.2,5.9c3.1,3.1,6.7,5.2,11.1,6.5c6,1.7,6.6,2.3,7.7,6.3c1.6,5.8-0.3,12.3-5.2,18.4
		c-2.1,2.6-4.7,6.5-5.8,8.6c-1.1,2.1-3.3,5.2-5,6.9c-2.9,2.9-3,3.6-2.3,10.4c1.4,13.3-5.1,38.1-11.4,43.4c-2,1.7-3.8,2.1-7,1.6
		c-2.7-0.4-4.6-0.1-5.1,0.7c-0.5,0.7-3,2.3-5.7,3.5s-6.7,3.7-8.9,5.6c-3.8,3.3-3.9,3.6-2.7,7.5c1.5,4.5,0.5,9.8-2.7,14.3
		c-1,1.5-1.9,4-1.9,5.5c0,1.6-1.2,4.5-2.7,6.5c-1.5,2-4.4,6.6-6.5,10.2c-5,8.9-8.1,10.4-15.4,7.8c-6.3-2.3-9.7-2.5-9.7-0.8
		c0,0.7,1.3,1.8,2.8,2.5c1.5,0.7,3.9,3.6,5.3,6.4c2.1,4.2,2.3,5.6,1.2,8c-1.7,3.7-8.1,6.8-14.1,6.8c-5.3,0-6.6,1.3-4.8,4.7
		c1.1,2.1,0.4,5.5-1.8,8.1c-0.2,0.2-2-0.5-4.1-1.6c-5-2.6-6.7-0.9-4.2,3.9c1,2,3,3.9,4.3,4.4c2.3,0.7,2.4,0.9,0.5,3
		c-1.1,1.2-1.7,3.1-1.3,4.1c0.4,1.1-0.5,3.6-2.4,5.9c-3,3.9-3,4.2-1.1,7.1c1.1,1.7,2.8,3.3,3.8,3.7c3.6,1.4,4.1,6,1.4,11.3
		c-2.7,5.3-3.1,10.7-1,13.2C98.7,2411.6,92.3,2416.1,89.4,2414.4L89.4,2414.4z M2.4,1902.9c3.2-6.6,9-11.5,13.8-11.5
		c3.4,0,3.4,0.6,0.3,4.5L14,1899l2.5,2c2,1.6,3.1,1.8,5.4,0.7c1.6-0.7,3.2-2.3,3.6-3.6c0.5-1.7,1.4-2.1,3.5-1.6
		c1.9,0.5,3.1,0.1,3.9-1.3c2.4-4.3-3.7-9.8-8.2-7.4c-3.2,1.7-7.4-1.7-6.5-5.3c0.3-1.3-0.4-3.7-1.5-5.2c-2.4-3.2-6.2-3.6-14.3-1.3
		c-2.9,0.8-6.3,1.4-7.4,1.4c-1.2,0-1.8,0.4-1.4,1c0.4,0.6,0.3,1.1-0.3,1.1s-2.3,1-3.9,2.3l-2.9,2.3l3.3,1.3c2.6,1,4.1,0.8,7-0.6
		c3.4-1.7,4-1.7,7.7,0c2.2,1.1,5.2,1.6,6.8,1.2c1.5-0.4,3.1-0.2,3.5,0.5c0.4,0.7-1.3,1.5-3.8,1.9c-6.9,1.2-10.5,4-15.5,12.4
		c-4.2,7-4.4,7.9-2.8,9.7c1.6,1.8,2.1,1.8,4.3,0.3C-1.7,1909.9,0.8,1906.3,2.4,1902.9L2.4,1902.9z M23.8,1910.2
		c4.2-2.1,4.6-2.7,3.1-4.2s-2.4-1.4-7.2,0.7c-5.7,2.5-7.5,5.9-3.1,5.9C17.9,1912.7,21.2,1911.6,23.8,1910.2z M44.8,1901.3
		c2.5-1.7,2.6-2.1,0.8-3c-2.6-1.4-10.1,1-10.1,3.3C35.4,1903.9,41.3,1903.7,44.8,1901.3z M133.5,2411.3c0-0.5,0.6-1.6,1.4-2.4
		s1-1.4,0.4-1.4s-1.6,0.9-2.4,1.9c-1.1,1.5-1.9,1.7-3.7,0.6c-1.3-0.7-1.6-1.3-0.7-1.3c0.9,0,1.2-0.6,0.8-1.2
		c-0.8-1.2,1.3-1.6,7.1-1.2c5.2,0.4,5.7,1.1,2.5,3.6C135.9,2412.3,133.5,2412.9,133.5,2411.3L133.5,2411.3z M1119.8,2381.7
		c-3.4-2.1,3.7-6.9,21.1-14.2c4.9-2,12.3-6.3,16.5-9.5c7.1-5.4,7.7-5.6,9.2-3.6c2.1,3.1,0.9,5.3-4.4,7.7c-2.5,1.1-5.7,3.3-7,4.9
		s-3.5,2.8-4.8,2.8s-4.4,1.8-6.8,4C1135.2,2381.2,1124.7,2384.7,1119.8,2381.7L1119.8,2381.7z M1037.2,2366.3
		c-1.2-0.8-1.3-1.6-0.3-3.4c0.7-1.3,1.3-4.1,1.3-6.1c0-3.3,0.3-3.6,2.7-2.8c1.5,0.5,4.5,1,6.8,1.1c2.3,0.1,4.5,0.2,5,0.3
		c2,0.4-3.3,6.3-8,9.1C1039.1,2367.8,1039.3,2367.7,1037.2,2366.3L1037.2,2366.3z M1173.6,2356c-0.4-0.4,0.6-1.8,2.2-3
		c2.4-1.9,2.7-2.7,1.6-4.7c-1.5-2.8,0.7-5.9,6-8.1c4.1-1.7,5.1-5.1,4-13.3c-0.7-5.7-0.7-6,1.2-4.5c1.4,1.2,1.8,2.7,1.3,5.4
		c-0.6,3-0.1,4.5,2.4,7.5c2.7,3.2,3.5,3.5,5.6,2.4c2.1-1.1,2.3-1,1.7,0.7c-0.4,1.1-0.8,2.2-0.8,2.5c0,0.3-1.7,1.3-3.8,2.4
		c-2.1,1.1-6.2,3.9-9.2,6.4c-4.8,3.9-9.6,7.1-10.9,7.1C1174.6,2356.7,1174.1,2356.4,1173.6,2356L1173.6,2356z M1048.8,2340.7
		c-2.5-2.6-2.9-2.7-5.3-1.2c-3,2-8.8,0.8-13.4-2.7c-2.4-1.9-2.6-2.5-1.4-4.9c1.1-2,1.1-3.4,0.1-5.6c-0.7-1.6-1.3-3.9-1.3-5.2
		c0-2.9-1.9-3-3.4-0.2c-0.6,1.1-1.5,1.7-1.9,1.3c-0.4-0.4,1-2.7,3-5.1c5.1-5.8,3.1-7.4-3.6-2.9c-2.9,2-5.5,4.1-5.7,4.7
		c-0.2,0.7-1.6-1.4-3.1-4.5c-1.6-3.4-4.4-6.8-6.9-8.4c-3.8-2.5-5-2.7-12.2-2c-10.6,1.1-20.8,3.7-27.4,7c-3,1.5-9,3.1-13.5,3.6
		c-4.5,0.5-11.6,2.2-15.8,3.7c-6.4,2.4-8.3,2.7-11.6,1.6c-4.4-1.4-6.2-4.4-3.4-5.5c1-0.4,2.9-3.1,4.1-6c2-4.7,2.1-6.1,0.9-12.2
		c-1-5-1-9.7-0.1-17.4c0.7-5.8,0.9-11.7,0.6-13.1s0.2-4.8,1.3-7.6c1.9-4.9,2.3-5.2,15-10.6c7.2-3,14.5-5.5,16.3-5.5
		c4.9,0,10.9-4.6,14.3-11c2.1-3.9,3.5-5.4,4.7-4.9c3.4,1.3,4.1,1.1,3.9-1.5c-0.2-1.6,0.5-2.8,1.9-3.3c1.2-0.4,3.5-2.5,5-4.8
		c1.6-2.3,4.8-4.9,7.4-5.9c4.3-1.7,4.7-1.7,7.1,0.4c4.3,3.9,7.4,5.1,8.9,3.3c0.7-0.9,1-1.9,0.5-2.3c-1.4-1.4,4.8-9.1,7.9-9.9
		c1.6-0.4,5-1.7,7.4-3c3.8-1.9,5.2-2,9.4-0.9c9.2,2.5,9.5,2.9,6.1,8.1c-4.4,6.7-3.2,9.3,7.6,16.9c5,3.5,9.7,6.2,10.5,5.9
		c0.8-0.3,3.2-3,5.4-6c3-4.1,4.2-7.2,4.6-12c0.7-6.9,4-16.5,5.7-16.5c0.6,0,1.8,2.8,2.9,6.3c1,3.5,3.1,7.5,4.7,9
		c3.7,3.5,5.8,13.2,4.2,18.9c-1.1,3.8-0.9,4.4,2.9,8.3c2.2,2.3,5.8,7.9,7.8,12.4s5.8,11,8.3,14.3l4.6,6l-1.3,9.3
		c-0.9,6.8-2.4,11.3-5.3,16.4c-4.5,7.9-11.1,15.4-14.6,16.5c-1.3,0.4-4.2,3.4-6.5,6.6c-2.3,3.2-4.7,5.8-5.4,5.8
		c-0.6,0-3.3,2.8-6,6.1c-4.4,5.6-5.3,6.1-9.9,6.2c-3.6,0.1-6.3,1-9.2,3.3l-4.1,3.2L1048.8,2340.7L1048.8,2340.7z M472.8,2315.9
		c-2.5-2.5-2.9-3.8-2.4-7.2c0.5-3.2,0-5.1-2.2-8.5c-1.6-2.3-2.9-4.8-2.9-5.6s-2.1-4.1-4.6-7.5c-3.9-5.3-4.8-7.4-5.4-14.1
		c-1.1-11.8-4.9-24.6-10-33.8c-2.5-4.6-4.9-10.5-5.3-13.1c-0.9-5.7,1.4-14.1,6.7-24.4l3.5-6.8l-2-5.9c-1.1-3.3-1.6-7.2-1.2-8.9
		c0.5-2,0-4.3-1.5-6.7c-1.3-2.1-3.1-6.7-4.1-10.2c-1.4-4.8-3.3-7.9-7.1-11.7c-7.5-7.3-8.5-10.2-6.1-18.2
		c4.7-16.3-0.4-25.8-12.9-23.9c-4.9,0.7-5,0.6-5.7-2.8c-0.5-2.6-2-4.2-5.5-6c-4.7-2.4-6.7-2.4-12.4-0.1c-1.3,0.5-6.6,2.4-11.8,4.1
		c-7.8,2.6-10.2,2.9-13.6,1.9c-3.2-0.9-5.9-0.7-12.5,1.1c-6.8,1.9-9.3,2.1-13,1.1c-7.7-2.1-20.9-14-22.8-20.5
		c-1.5-5-10.5-16.7-13.6-17.6c-2-0.5-2.2-1-1-1.7c1.2-0.8,1-1.2-0.9-1.7c-3-0.8-3.3-3.2-0.4-3.2c1.8,0,1.8-0.2,0.3-1.2
		c-1.1-0.7-1.2-1.2-0.3-1.2c0.9,0,0.6-1.5-1-4.2c-2.3-3.8-2.3-4.3-0.6-6.3c5.3-5.8,6.4-18.4,2.4-26.3c-1.9-3.8-0.7-9,3.4-14.4
		c1.5-2,4.5-7,6.7-11.1c3.7-7.1,12.1-16.9,14.3-16.9c2.5,0,10.5-8.7,10.5-11.3c0-6.1,3.6-12.1,9.5-15.9c3.2-2,6.9-5.5,8.3-7.7
		c2.8-4.5,3.2-4.7,6.5-2.4c1.3,0.9,4.5,2,7.1,2.4c4,0.7,5.9,0.2,11.8-3c10.2-5.5,16.5-6.8,28.2-6.1c7.7,0.5,11.2,0.2,14.9-1.3
		c5.5-2.2,10.2-0.9,9,2.5c-0.4,1-0.2,2.5,0.5,3.3c0.8,1,0.8,2.5,0,4.8c-1.1,2.9-0.8,3.7,1.8,6.5c1.7,1.8,4.7,3.6,6.8,4
		c9.5,1.9,12.2,3.1,14.2,6.4c1.4,2.4,3.3,3.7,6.4,4.3c2.4,0.5,5.9,1.6,7.8,2.6c3.2,1.6,3.6,1.6,6.3-0.9c1.8-1.7,2.6-3.5,2.2-4.8
		c-0.4-1.2-0.1-3.2,0.6-4.5c1.8-3.4,7-3.1,15.1,1c8.8,4.4,25.6,7.6,31.5,5.9c2.9-0.8,5.6-0.8,8.1,0c8.2,2.5,12.3,0.5,13.5-6.3
		c0.4-2.3,1-4.1,1.4-4.1c0.8,0,1.2-3.4,1.3-10.9c0-2.4,0.6-4.4,1.3-4.4c0.8,0,0.8-0.9-0.1-2.5c-1.5-2.7-4.4-2.7-11.4,0.2
		c-3.3,1.4-4.3,1.3-7.3-0.5c-3.9-2.3-7.9-2.6-9-0.8c-0.9,1.4-6.9,0.4-10.2-1.6c-2.4-1.5-4.6-5.8-4.6-9.1c0-1.2-1.2-3.1-2.7-4.1
		c-2.3-1.6-2.4-2-0.9-3c1-0.6,3-0.9,4.5-0.5c1.9,0.4,3.6-0.3,5.8-2.5c2.1-2.1,4.6-3.2,7.4-3.3c2.3-0.1,5.7-1.2,7.5-2.4
		c3.9-2.6,12.8-1.9,19.6,1.6c9.3,4.6,17.5,4.4,20.8-0.7c1.7-2.6,1.7-3.2,0.1-5.7c-1-1.5-5.8-5-10.6-7.8l-8.8-5l1.7-3.2
		c0.9-1.8,1.4-3.5,1-3.9c-0.4-0.4-0.2-1.4,0.3-2.2c0.5-0.9,1.1-2.2,1.2-3.1c0.3-1.8-1.6-1.3-11,2.9c-5.5,2.4-6.3,3.2-5.1,4.6
		c0.8,1,2.6,1.8,4,1.8c1.9,0,1.5,0.6-2,2.4c-4.2,2.2-4.7,2.3-7.5,0.5c-2.4-1.5-2.7-2.3-1.5-3.6c1.1-1.3,0.9-1.8-0.8-2.5
		c-1.2-0.5-2.8-1.6-3.5-2.5c-3.4-4.5-14.1,7.4-17.2,19.1c-1.5,5.5-1.4,5.8,1.3,7.9l2.9,2.2l-5.3,1.1c-2.9,0.6-6.8,0.7-8.7,0.2
		c-3.4-0.9-7.8,0.5-7.8,2.5c0,0.6-0.8,0.8-1.8,0.4s-2.5-0.1-3.5,0.7c-1.4,1.2-1.3,2.2,1.1,6.6c2.6,4.8,2.7,5.5,1,8.7
		c-2,4-3.9,3.7-6.7-1.1c-2-3.4-2-3.4,0.7-3.8c3.3-0.5,3.5-2.6,0.3-3.1c-7.3-1.2-11.2-5-11.2-11.1c0-4.7-4.4-9.9-9.7-11.5
		c-2.8-0.8-5.8-2.6-6.7-3.9c-0.9-1.3-3.6-3.2-5.9-4.1s-5-2.8-5.8-4c-1.2-1.8-2-2-3.9-1c-1.3,0.7-2.3,2-2.3,2.9
		c0,3.1,15.1,16.9,22.4,20.7c7.8,3.9,9,5.3,3.6,4.2c-4.8-1.1-6.1,0-4.5,3.6c1.2,2.5,1,3.3-1.4,5.6l-2.7,2.6l0.6-3.5
		c1-5.6-6.4-13.6-12.5-13.6c-2.2,0-10.8-8.3-13.1-12.7c-2.4-4.7-5.1-5.6-8.9-3c-5.7,3.9-10,5.2-14.5,4.4c-6-1-9.7,1.1-8.8,4.9
		c0.5,2,0.2,2.9-0.9,2.9c-0.9,0-3.2,1.3-5,3s-3.8,3-4.3,3c-1.5,0-5.6,7.5-5.6,10.1c0,2.5-4.6,7.5-9.1,9.8c-1.4,0.7-4.7,1.3-7.3,1.3
		c-3.6,0-5.1,0.6-6.1,2.4c-1.3,2.4-1.3,2.4-4.4-0.6c-2.8-2.8-4.5-3.6-10.2-4.4c-3-0.5-3.5-7.3-1.3-17c1-4.2,1.4-8.8,1.1-10.3
		c-1.1-4.5,2.4-7.1,8.2-6.2c13.5,2.1,21.4,2.2,23.3,0.3c2.5-2.5,3.7-11,2.1-15.7c-1-3.1-2.4-4.3-6.6-5.9c-6.1-2.3-6.3-4.6-0.3-4.7
		c2.3,0,5.6-1,7.3-2.1c1.7-1.1,3.7-1.8,4.3-1.4c1.7,1,8-2.6,10.1-5.8c1-1.5,3-3.1,4.4-3.5s5.3-3.1,8.5-6.2c4.6-4.3,7-5.6,11-6.1
		c4.9-0.6,9.8-4.6,7.5-6.1c-1.4-0.9-2.6-6.7-1.8-8.8c0.4-1,2.1-2.7,3.7-3.8l3-2l-0.8,4.9c-0.7,4.2-0.5,4.8,1.3,4.5
		c1.1-0.2,3.3-1,4.8-1.8c2.2-1.2,2.8-1.2,3.4,0.4c1,2.6-1.8,5.7-3.7,4.1c-1.1-0.9-1.8-0.9-2.4,0.1c-0.6,1-1.1,0.9-1.8-0.2
		c-0.5-0.9-1.2-1.3-1.6-1c-0.3,0.3,0.6,2.1,2.1,4c2.5,3.1,3,3.3,6.5,2c3.1-1.1,4.5-1,7.1,0.4c2.9,1.5,3.9,1.4,9.6-0.7
		c4.9-1.9,6.9-2.1,9.1-1.1c2,0.9,3.5,0.9,5.4-0.1c5.3-2.7,6.8-4.8,6.1-8.6c-1-5.6,0.8-7.5,5.5-5.7c3.2,1.2,4.1,1.2,5.6-0.3
		c1.5-1.5,1.4-2.1-1.1-4.8c-2.4-2.6-2.6-3.2-1.1-4.2c1-0.6,4.5-0.9,8-0.5c6.3,0.7,14.1-1.8,12.7-4c-1.2-1.9-8.4-2.5-14.5-1.1
		c-5.4,1.2-6.8,1.1-11-0.8c-6.4-2.9-7.2-6.3-2.8-12.5c5.7-7.9,6.7-10.4,5.1-12.4c-2.4-2.9-4.8-1.9-10.2,4.1
		c-2.9,3.2-6.8,6.5-8.8,7.3c-1.9,0.8-4.3,3-5.3,4.9c-1.6,3.1-1.6,3.8,0,6.2c1,1.5,2.9,3.1,4.2,3.5c3.6,1.1,2.9,3.3-2.3,6.9
		c-1.6,1.1-3.7,4.2-4.7,6.9c-1.3,3.4-3.2,5.7-6.2,7.4c-4.2,2.4-4.4,2.4-6.7,0.3c-1.3-1.2-2.7-3.6-3.1-5.4c-0.4-1.8-2.2-5-3.9-7.1
		l-3.2-3.9l-4.1,2.5c-2.3,1.4-5.2,2.5-6.5,2.5c-3.7,0-8.1-4.1-8.4-7.8c-0.1-1.9-0.6-4.3-1.1-5.4c-1.1-2.6,4.2-7.6,9.7-9.1
		c5.5-1.5,16.7-9.4,18.6-13c0.8-1.6,3.7-4.9,6.4-7.3s4.8-4.9,4.8-5.5c0-0.6,2.5-2.1,5.6-3.2c3.1-1.1,8.3-3.1,11.5-4.4
		c4-1.6,9-2.5,15.4-2.7c11.1-0.3,18.4,1.2,24.5,5c3,1.9,5.4,2.5,7.7,2.1c4.1-0.8,25.8,5.9,26.7,8.3c0.9,2.4-5.3,4.6-10.7,3.8
		c-2.5-0.4-7.5-1.3-11.3-2.1c-5.1-1.1-7.2-1.1-8.2-0.1c-1,1-0.5,1.7,1.9,2.8c1.8,0.8,4,3,4.9,4.8c2.4,4.6,10,8.4,14,6.9
		c3.8-1.4,3.8-1.9-0.2-4.1c-3.7-2-2-2.4,2.7-0.7c3.7,1.4,7.9-0.3,6.9-2.9c-0.5-1.2,0.8-2.1,4.5-3c7.8-2,8.4-2.3,7.7-3.9
		c-2.4-6-2.5-5.8,1.1-5.4c1.9,0.2,3.3,1,3.1,1.8c-0.2,0.8,0.8,2,2.2,2.8c2.1,1.1,3.7,0.7,9.3-2.2c8.3-4.3,14.7-5.7,17.1-3.8
		c1.3,1.1,3.6,1.1,10,0c4.5-0.8,8.8-1.1,9.4-0.7c0.6,0.4,1.5,0.1,1.9-0.5c0.9-1.5-1.6-4.9-3.1-4.1c-1.7,1.1-7.3-0.8-6.1-2
		c1.2-1.2,34.1,6.4,36.1,8.4c1.3,1.3,5.5-0.4,5.5-2.3c0-0.6-2.3-2.3-5.2-3.7c-8.9-4.3-9.5-11.2-1.1-13.3c4.8-1.2,6.9,0.2,13.7,9.1
		c8.7,11.6,8.5,11,5.6,15c-2.1,3-2.2,3.7-0.8,4.2c2.8,1.1,8.7-2.7,9.5-6c1-3.9-0.8-7.2-5.2-9.5c-3.4-1.8-5.9-5-5.9-7.7
		c0-0.9,1.3-1.2,3.8-0.7c3.8,0.7,7-0.7,15.7-6.9c2-1.4,5.3-2.3,8.7-2.4c6.9-0.2,9.1-1.3,7.1-3.7c-0.8-0.9-1.2-1.9-0.9-2.2
		c1.5-1.5,21-4.2,25.4-3.6c4.3,0.6,5.6,0.3,9.2-2.4c2.3-1.7,4.1-3.6,4.1-4.2c0-1.4-10.3-1.3-11.2,0.1c-1.2,2-2.8,1.3-2.4-1
		c0.4-2-0.6-2.3-9.2-3c-23.5-1.8-25.4-2.3-22.6-5.1c2.5-2.5,8.6-2.4,13.6,0.1c2.1,1,5.5,1.9,7.7,1.9s4.2,0.5,4.6,1.2
		c0.4,0.6,2.5,1.2,4.6,1.2c5.9,0,17.3,2.5,16.6,3.7c-0.3,0.6,0.8,1,2.4,1s4.8,0.9,6.9,2c2.8,1.5,6.7,2,15,2.1
		c8.9,0,11.9,0.5,14.5,2.2c1.8,1.2,3.2,2.5,3.2,2.9c0,0.4-2.7,2.2-6.1,4.1c-8,4.4-6.3,6.4,3.4,3.8c6.3-1.6,7.7-1.6,12.9-0.1
		c4.3,1.3,6.9,1.4,9.8,0.6c2.9-0.8,5.9-0.7,10.9,0.7c5.3,1.4,8,1.5,11.3,0.6c7.6-2.1,16.9-1.5,22.4,1.4c2.7,1.5,7.7,4.2,11,6
		c6,3.3,6.3,3.3,10.4,1.4c3.5-1.6,5.4-1.7,10.5-0.7c5.1,1,7,0.9,9.8-0.6c2.8-1.5,3.3-2.2,2.2-3.5c-2.1-2.5,5.3-3.4,14.3-1.8
		c4.1,0.7,9.4,1.5,11.7,1.6c2.3,0.2,6.7,1.5,9.9,2.9c4.8,2.2,8.4,2.7,22.5,3c13.4,0.4,17.6,0.9,20.8,2.6c3.3,1.7,7,2.2,19.4,2.3
		c11.4,0.1,16.5,0.7,19.9,2.1c5.5,2.3,7.6,1.5,4.7-1.8c-2.1-2.4-2.1-2.4,6.1-1.6c13.8,1.4,30.4,4.4,36,6.6c2.9,1.1,8.5,2.4,12.4,2.9
		c3.9,0.5,9.6,2.1,12.6,3.7c4.6,2.3,6.1,2.6,9.1,1.6c4.1-1.4,6.7-0.4,12.9,5l3.9,3.3l-2.9,0.7c-2.9,0.7-10.6-1.2-13.3-3.3
		c-0.8-0.6-1.9-0.8-2.4-0.5c-0.6,0.3-3.3-0.2-6.1-1.1c-6.6-2.3-9.5-1.4-6.5,1.9c2.1,2.3,2,2.3-1.9,2c-7.3-0.5-5.3,1.7,5.4,5.8
		c5.8,2.3,10.9,4.4,11.2,4.7c1.1,1.1-2.5,2.4-5.2,1.9c-2.9-0.6-10.1,2.6-10.1,4.4c0,0.6-1.1,2.2-2.5,3.5c-2.3,2.2-2.8,2.2-5.9,0.6
		c-2.9-1.5-3.8-1.5-6.6-0.1c-1.8,0.9-4.8,2-6.8,2.5c-1.9,0.5-4.2,1.4-5,2.1c-2.4,2,1.8,7.7,7.7,10.6c3.2,1.6,5.5,3.6,6.2,5.6
		c0.6,1.7,1.9,4.5,2.9,6.2c1.6,2.8,1.6,3.2-0.1,3.8c-1.2,0.5-1.6,1.4-1.1,2.8c0.5,1.1,1,3.4,1.1,5c0.2,1.6,0.7,3.8,1.2,4.9
		c0.6,1.4,0.1,2.2-1.8,2.8c-2.1,0.7-3.5-0.1-6.9-3.9c-2.4-2.6-6.3-6.2-8.7-8c-2.4-1.8-6.8-6.4-9.7-10.3c-5.1-6.8-5.2-7.1-3.5-10.4
		c1-1.9,1.8-4.6,1.8-6.1c0-1.5,0.8-4,1.7-5.6c1.7-3.1,1-5.5-2.6-9.7c-2.4-2.7-6.7-0.7-5.6,2.7c1,3.1-2,4.1-5.5,1.8
		c-1.5-1-5-2.2-7.7-2.6c-4.7-0.8-5.1-0.6-6.3,2.6c-0.7,1.9-1,4.8-0.7,6.6c0.5,2.7,0.2,3.3-2.6,3.9c-1.9,0.4-5.1-0.1-7.8-1.2
		c-2.9-1.2-5.7-1.6-7.6-1c-1.7,0.5-7.4,0.9-12.7,1c-8.4,0.1-10,0.5-12.6,2.9c-1.6,1.5-3.6,5.2-4.3,8.3c-0.8,3-2.1,6.7-3.1,8.1
		c-1.6,2.5-1.5,2.8,3.2,5.1c5,2.6,10.5,3.2,14.7,1.8c3.2-1.1,13,6.5,16,12.5c1.2,2.4,3.3,5,4.6,5.7c4.8,2.6,5.8,19.5,1.8,30.6
		c-2.8,7.7-5.9,10.2-10.5,8.4c-1.8-0.7-3.4-1.2-3.6-1.2c-0.2,0-1.5,2.2-2.9,4.8c-1.8,3.5-2.2,5.3-1.3,6.3c1.7,2.1,0.4,4.8-3,6.3
		c-1.6,0.7-2.9,1.8-2.9,2.5c0,0.6,3.7,3.7,8.2,6.8c5.7,4,8.8,7,10.2,10.1c1.1,2.5,1.8,4.7,1.5,4.9c-0.3,0.2-2.7,1.5-5.4,2.9
		l-4.9,2.5l-2.9-6.7c-3.3-7.6-6.1-10.6-11.1-11.9c-2.5-0.7-3.4-1.6-3.4-3.7c0-1.9-1.2-3.5-3.8-5c-3.8-2.2-3.9-2.2-7.9,0.3
		c-4,2.5-4.1,2.5-5.3,0.2c-0.7-1.3-1.3-3.2-1.3-4.1c0-1-1-2.3-2.2-3c-1.8-1-2.9-0.4-6.3,3.2c-2.2,2.4-5.1,5-6.3,5.7
		c-2,1.1-2.1,1.6-0.7,3.2c0.9,1,3.9,3.2,6.7,4.8c4.5,2.5,5.3,2.6,6.8,1.1c1.4-1.4,2.6-1.5,6.9-0.3l5.2,1.4l-2.9,1.9
		c-5.4,3.6-7,5.5-7.8,8.7c-0.6,2.7-0.3,3.4,2.1,4.5c1.6,0.7,4,3.6,5.4,6.4c1.4,2.8,4.1,6.1,6.1,7.2c4.3,2.6,5.6,5.3,3.1,6.7
		c-2.3,1.3-1.2,3.2,1.9,3.2c3.7,0,3.7,2.2,0.1,14.9c-4.3,15.3-8.2,20.5-18.4,24.2c-4,1.5-8.9,2.8-10.8,2.9c-4.5,0.3-8,2.2-11.1,6.1
		l-2.4,3.1l-1.1-3c-1.5-3.9-4.9-4.9-9.7-2.8c-4.5,1.9-7.4,4.9-8.6,8.8c-1.1,3.5,2.7,9.6,8.9,14.5c5.1,4,10.8,14.2,12.2,21.6
		c1.2,6.4-0.9,10.7-6.5,13.2c-2.5,1.1-4.9,3-5.3,4.2c-0.9,2.8-6.1,6.2-7.1,4.6c-0.4-0.6-0.4-2.2,0-3.4c0.4-1.2,0.4-3,0-4.1
		c-0.6-1.5-1.2-1.7-3.1-0.7c-1.9,1-2.7,0.8-4.3-1.5c-3.9-5.6-15-14.6-18.1-14.6c-1.1,0-1.5,1.3-1.3,4.1c0.2,2.3-0.3,6.7-1,9.9
		c-1.2,5.1-1,6.1,1.2,9c1.3,1.8,2.8,4.7,3.2,6.3c0.4,1.7,3.8,5.4,7.7,8.6c6.5,5.2,7.2,6.3,9.9,14.9c1.6,5.1,2.9,9.8,2.9,10.4
		c0,2-2.5,1.2-7.6-2.5c-5.3-3.8-8.7-9.9-11.6-20.6c-1.2-4.6-2.6-6.6-6.4-9.4c-4.7-3.5-4.8-3.8-4.5-9.5c0.2-3.2,0.7-7.9,1.2-10.2
		c0.6-3.3,0.1-5.7-2.2-10.6c-1.7-3.5-3.6-8.8-4.4-11.8c-1.7-6.8-4-7.9-8.2-4c-1.7,1.6-3.5,3-3.9,3c-1.9,0-4.5-4-3.8-6
		c1.1-3.5-5.8-15.9-9.8-17.6c-2.2-0.9-4.2-3.1-5.6-6.1c-2.4-5.2-5-7.2-7.6-5.8c-1,0.5-4.8,1.6-8.5,2.3c-6.8,1.4-9.3,3.5-8.4,7
		c0.3,1.3-0.9,2.6-3.7,4c-2.3,1.1-4.8,3.3-5.6,5c-0.7,1.6-2.4,3.3-3.6,3.7s-3.2,2.2-4.3,4c-1.1,1.8-4.4,5.1-7.3,7.4
		c-4,3.1-5.2,4.8-5,6.9c1.2,12.6-0.6,23.1-5,29.4c-4.2,6.1-4.5,6.3-8.1,4.6c-2-0.9-3.2-2.7-3.7-5.3c-0.4-2.2-2.8-8.4-5.3-13.7
		c-15.1-32.4-17.3-38.6-16-44.5c0.9-4-1.2-9.9-3.2-9.3c-0.8,0.3-1.5,1.2-1.5,2.2c-0.1,5.4-6.2,6.2-10.9,1.5l-3.1-3.1l2.7-1
		c3-1.1,2.8-4.1-0.3-3.6c-1.1,0.2-3.6-1-5.6-2.7c-2-1.7-4-3-4.6-3s-1.4-1.1-1.8-2.4c-1.1-3.4-7.4-6.4-10.5-5
		c-2.8,1.3-28.5,1-32.8-0.3c-1.5-0.5-4.4-2.7-6.4-4.9c-3.5-4-3.6-4-8.9-2.6c-5,1.3-5.7,1.2-12.5-2.2c-5.8-2.9-7.6-4.5-9.4-8.5
		c-2.3-5.1-7.4-8.8-10.5-7.6c-1,0.4-2.1,2.2-2.5,4.1c-0.6,2.7,0,4.5,2.9,8.4c2,2.7,4.2,7,4.9,9.5c1.4,5.3,4.3,6.9,6.6,3.7
		c1.4-1.9,1.8-2,2.8-0.5c0.6,1,0.9,2.3,0.7,2.9c-0.7,2,6.2,5.4,9.3,4.6c1.6-0.4,5-3.1,7.6-6.1c4.1-4.6,5.5-4.9,4.8-1.1
		c-0.5,2.6,1.6,5.7,5,7.5c5.3,2.7,12.6,8.8,12.6,10.4c0,0.8-1.4,2.7-3.1,4.2s-4.1,4.9-5.4,7.4c-3.1,6.1-12.1,14.9-15.2,14.9
		c-3.5,0-8.8,3-10.9,6.2c-1,1.5-3.6,3.6-5.8,4.7c-11.2,5.6-24.7,11.3-28.5,12c-4.1,0.8-4.4,0.6-6.6-3.7c-1.2-2.5-2.7-7.4-3.1-11
		c-0.6-4.6-1.8-7.6-4.3-10.4c-1.9-2.1-3.4-4.4-3.4-5s-2.1-3.3-4.7-6c-3.2-3.3-5.3-7-6.7-11.5c-1.1-3.7-3.2-8.2-4.8-10.2
		c-10.8-13.5-14-18.2-15.7-23.2c-2.1-6.6-4-7.6-4.8-2.8l-0.6,3.4l-4-5c-6.2-7.8-6.9-4.2-1.2,5.2c2.7,4.5,7.1,12.4,9.7,17.6
		s6,11.1,7.5,13.1c1.6,2.1,2.8,5.3,2.8,7.5c0,4.5,1.3,7.2,6.5,13.7c2.1,2.6,4.2,6.4,4.6,8.4c0.6,2.6,2.8,5.3,7.7,9.3
		c7.4,6,12.3,12.2,13.5,17.4c0.5,2,2.2,4,4.3,5.1c3.3,1.7,4.5,1.7,14.9-0.6c6.2-1.3,12.8-3.2,14.6-4.2l3.3-1.7l0.8,4.7
		c0.7,4.2-0.1,6.3-8.5,22.4c-9,17.3-9.5,17.9-18.5,25c-5.1,4-10.4,8.9-11.8,10.9c-1.4,2-5.9,7.3-10,11.9c-12,13.3-13.6,25-5.7,40.7
		c2,4,2.8,7,2.3,8.9c-0.4,1.6-0.1,5.6,0.6,8.9c1.1,5.2,1,6.6-0.9,10.4c-2.8,5.5-5,7.4-12.8,11.4c-3.4,1.7-6.2,3.6-6.2,4.2
		s-2.4,3.8-5.3,7.1s-5.3,6.5-5.3,7.2s1.1,3.3,2.4,6c4,7.9,1.3,13.6-8.3,17.6c-4.1,1.7-5.4,5.1-4.4,11.3c0.5,3.2,0.2,4.3-1.6,5.3
		c-1.3,0.7-3.6,3.2-5.1,5.6c-4.8,7.6-18.8,21.1-25.1,24.2c-5.3,2.7-6.6,2.9-10.5,1.8c-3.4-0.9-6.2-0.8-11.9,0.6
		C475.4,2319.4,476.4,2319.5,472.8,2315.9L472.8,2315.9z M628.4,1939.2c3-1.6,3.5-2.4,3.5-6.9c0-3.2-0.7-5.7-1.8-6.7
		c-1-0.8-2.7-3.1-3.7-5c-1.6-3.2-1.6-3.4,0.1-2.8c2.3,0.9,5.4-0.2,5.4-1.8c0-0.6-1.1-2.7-2.4-4.6c-2-2.8-2.8-3.2-4.7-2.2
		c-1.5,0.8-2.3,0.8-2.3,0c0-0.7-2.1-2.3-4.7-3.6c-5.7-2.9-7.7-6.1-6-9.5c1.3-2.5,6.2-4.3,8.2-3c2.8,1.7,3.6-0.8,1.3-4
		c-5.5-7.8-13.3-7.3-22.8,1.5c-6.2,5.7-6.7,7.2-3.2,9c1.3,0.7,2.4,2.1,2.4,3c0,1,2.1,4,4.7,6.8c5.9,6.4,7,9.3,6.3,16.9l-0.6,6.1
		l8.1,4.2c4.5,2.3,8.3,4.2,8.5,4.2C624.8,1941,626.5,1940.2,628.4,1939.2L628.4,1939.2z M595.9,2269.1c-3.3-1.9-3.8-2.9-4.7-9.9
		c-0.7-5.6-0.4-6.8,2.9-12.2c3.4-5.5,3.6-6.6,2.9-12.5c-1.1-8.6,0.8-13.2,5.8-14.3c4.7-1,15-10.1,17.4-15.4l1.9-4.1l1.3,2.9
		c3.3,7.2,2.9,10.3-2.8,26.1c-3,8.4-6.3,18.5-7.3,22.4c-3,12.5-4.8,15.5-9.7,17C598.3,2270.8,598.8,2270.8,595.9,2269.1
		L595.9,2269.1z M1177.7,2248.6c-3.8-4.1-6-7.7-6-9.4c0-4,0.6-3.6,4,2.2c1.6,2.8,4.6,6.6,6.5,8.5c2,1.9,3.6,3.9,3.6,4.4
		C1185.8,2256.5,1183.3,2254.7,1177.7,2248.6L1177.7,2248.6z M650.8,2246.9c0-0.6,0.5-1.2,1.2-1.2s1.2,0.5,1.2,1.2
		c0,0.6-0.5,1.2-1.2,1.2S650.8,2247.6,650.8,2246.9z M1272.7,2244.7c-0.4-0.7-0.2-1.6,0.5-2c1.8-1.1,2.4-0.2,1.2,1.7
		C1273.8,2245.4,1273.2,2245.5,1272.7,2244.7L1272.7,2244.7z M659.1,2242.8c0-0.3,0.5-0.8,1.2-1.3c0.6-0.4,1.2-0.2,1.2,0.5
		s-0.5,1.3-1.2,1.3S659.1,2243.1,659.1,2242.8z M1242,2230.9c-1.2-3,0.3-4,3.6-2.6c2.8,1.3,2.9,1.5,0.9,2.9
		C1243.8,2233.2,1242.9,2233.1,1242,2230.9z M1249.5,2225.6c-2.3-1.4-0.7-2.6,3-2.1c2.9,0.4,2.9,0.5,0.9,1.8
		C1252.1,2226.1,1250.5,2226.2,1249.5,2225.6L1249.5,2225.6z M1194.4,2221.3c-2.4-5.2-1.6-7.2,0.9-2.2c2.6,5.2,2.7,5.4,1.4,5.4
		C1196.2,2224.4,1195.2,2223,1194.4,2221.3z M1198.9,2220.4c-0.1-1.2,0.2-1.9,0.6-1.6c0.4,0.4,0.4,1.4,0.1,2.3
		C1199.2,2222.1,1199,2221.8,1198.9,2220.4L1198.9,2220.4z M1295,2209.1c-1.1-1.7-0.1-2.6,2.5-2.2c1.8,0.4,1.9,0.6,0.2,1.9
		C1296.4,2210,1295.6,2210,1295,2209.1L1295,2209.1z M597,2203.2c-0.4-0.6-0.2-1.2,0.5-1.2s1.3,0.5,1.3,1.2c0,0.6-0.2,1.2-0.5,1.2
		S597.4,2203.9,597,2203.2z M1115.5,2192.1c-7.5-2.4-10.9-4.5-13.8-8.9c-3.4-5-9.5-8.8-12.7-7.8c-1.3,0.4-3.4,2.6-4.7,4.9
		c-2.3,3.9-2.7,4.1-6.9,3.3c-2.4-0.4-5.8-2.1-7.6-3.7c-2.2-2-3.9-2.7-5.6-2.1c-1.3,0.4-3.3,0.3-4.3-0.3c-1.6-0.9-1.5-1.3,1.1-3
		c3-2,3-2,1-6.2c-1.6-3.4-3.9-5.2-11.2-8.8c-5-2.5-10.7-4.6-12.6-4.6c-4.4,0-6.2-4-2.9-6.5c2-1.4,1.7-1.8-3.5-4.3
		c-5.5-2.6-5.5-2.8-2.9-4.2c1.5-0.8,3.8-1.5,5.3-1.5c2.8,0,6.3,3.9,6.3,7.1c0,1.1,1.1,3.4,2.6,5.2c2.5,3.2,2.6,3.2,4.4,0.9
		c1-1.3,4.3-3.7,7.3-5.5l5.4-3.1l7.5,3.4c4.2,1.9,10,4.3,13.1,5.4c3.1,1.1,9.2,4.4,13.6,7.3c8.4,5.5,12.1,10.2,10,12.7
		c-1.7,2.1,5,11.4,12,16.7C1124.1,2194.2,1123.9,2194.8,1115.5,2192.1L1115.5,2192.1z M1166.9,2192c-0.9-1.1-1-1.8-0.2-1.8
		c1.4,0,3.1,2.2,2.3,3.1C1168.7,2193.6,1167.8,2193,1166.9,2192L1166.9,2192z M968.5,2187.2c-1.7-0.9-2.2-1.6-1.2-1.7
		c2.1,0,5.5,1.9,4.7,2.7C971.7,2188.6,970.1,2188.1,968.5,2187.2z M988.5,2185.6c3.3-4.7,8.6-6.7,13.4-5.2c3.5,1.1,3.6,1.2,0.8,1.3
		c-1.7,0.1-5.5,1.7-8.6,3.7C987.1,2189.9,985.4,2190,988.5,2185.6L988.5,2185.6z M1159.8,2187.3c-1.6-1.9-1.2-2.2,1.7-1.1
		c1,0.4,1.9,1.2,1.9,1.8C1163.4,2189.6,1161.5,2189.2,1159.8,2187.3z M1165.4,2186.2c-0.4-1.2-0.8-3-0.7-4.1c0.1-1.3,0.5-1,1.2,0.9
		c0.6,1.6,1,3.4,0.7,4.1C1166.3,2187.8,1165.8,2187.4,1165.4,2186.2L1165.4,2186.2z M1256.7,2187.3c0-0.3,0.5-0.8,1.2-1.3
		c0.6-0.4,1.2-0.2,1.2,0.5c0,0.7-0.5,1.3-1.2,1.3S1256.7,2187.6,1256.7,2187.3z M954.6,2182.4c-0.8-0.3-1.2-1.1-0.8-1.7
		c0.9-1.5,8.5-1.4,9.4,0.1c0.4,0.6,0,1.2-0.8,1.2c-0.9,0-2.6,0.2-3.9,0.5C957.2,2182.8,955.4,2182.7,954.6,2182.4L954.6,2182.4z
		 M972.1,2181.5c-2.1-2.6,0.3-3.4,5.9-1.9c5.6,1.5,5.6,1.7-0.2,2.8C974.8,2182.9,973.1,2182.7,972.1,2181.5z M1149.5,2180.8
		c-0.8-1.3-1-2.4-0.3-2.4c0.6,0,1.7,1.1,2.4,2.4s0.8,2.4,0.3,2.4C1151.4,2183.1,1150.3,2182.1,1149.5,2180.8z M1156.9,2179.6
		c-3.2-3.5-1.5-4,1.8-0.6c1.5,1.6,2.2,2.9,1.6,2.9S1158,2180.9,1156.9,2179.6L1156.9,2179.6z M935.4,2179.4
		c-4.2-0.6-10.2-1.9-13.2-2.9c-3.1-1-6.7-1.5-8-1c-2.7,0.9-14.2-2.5-14.2-4.2c0-3.8,10.6-4.1,16.2-0.4c2.1,1.4,3.8,1.4,8.2,0.4
		c4.9-1.1,5.9-1,8.8,1.2c1.8,1.3,3.8,2.4,4.5,2.4c2.3,0,9.4,4,8.8,4.9c-0.3,0.5-1.2,0.9-2,0.8C943.7,2180.5,939.6,2180,935.4,2179.4
		L935.4,2179.4z M1147.4,2173.7c-1.2-1.3-1.6-2.4-1-2.4c0.6,0,2.1,1.1,3.3,2.4c1.2,1.3,1.6,2.4,1,2.4S1148.6,2175,1147.4,2173.7
		L1147.4,2173.7z M1140,2172.2c-0.7-0.8-1.6-3.1-2-5c-0.7-3.1-0.6-3.3,0.7-1.2c0.8,1.3,2.2,3.2,3.1,4.3c1,1.1,1.2,2.2,0.6,2.6
		C1141.7,2173.3,1140.6,2173,1140,2172.2z M1115,2168.4l-2.9-1.6l4.5-0.9c2.5-0.5,6.3-2.4,8.5-4.4c2.4-2.1,4-2.9,4-1.9
		c0,2.4-1.5,4.3-5.9,7.5C1118.6,2170.6,1118.8,2170.6,1115,2168.4L1115,2168.4z M893.4,2163.8c-4.3-2.5-12.2-12-14.7-18
		c-1.4-3.2-4.5-8.5-7-11.7c-2.5-3.2-5.3-7.5-6.3-9.4s-4-5.7-6.7-8.3c-5.7-5.5-9.2-11.2-6.8-11.2c3.1,0.1,11.1,4.5,14.5,8.1
		c9.4,9.9,11.4,11.6,15.8,14.4c4.3,2.6,6.3,5.4,6.5,8.9c0,0.6,1.3,2.5,2.7,4.1c1.5,1.6,4.2,4.7,6.1,6.8c1.9,2.1,3.8,5.4,4.2,7.3
		C903.1,2161,898.1,2166.5,893.4,2163.8L893.4,2163.8z M655.5,2163c0-0.6,0.5-1.2,1.2-1.2s1.2,0.5,1.2,1.2s-0.5,1.2-1.2,1.2
		S655.5,2163.7,655.5,2163z M967.9,2163c-0.4-0.7-0.4-2.2,0-3.5c0.4-1.3-0.1-3.5-1.1-5.1c-1.6-2.5-1.6-3,0.2-5.6
		c1.1-1.6,2.4-5.7,2.9-9.3c0.6-4.4,1.8-7.3,3.7-9.2c2.6-2.6,3.2-2.7,9-1.6c5,0.9,6.9,0.8,9.6-0.6c4.5-2.3,4.9-2.2,3.4,1.1
		c-1.9,4.2-5.7,5.5-9.8,3.4c-7.2-3.8-16.8,1.8-11.7,6.9c1.9,1.9,2.9,2,6.3,1c5.9-1.7,8.2-1.4,4.5,0.6c-4.1,2.2-4.9,4.7-2.8,8.9
		c1,1.9,1.8,4.8,1.8,6.5c0,2.7-0.3,2.9-2.4,1.8c-1.3-0.7-3.2-3.2-4.2-5.6c-1.8-4.3-1.8-4.3-4.1-2c-2,2-2.1,2.9-1,6.9
		c1,3.6,0.9,4.8-0.3,5.6C969.7,2164.5,968.8,2164.5,967.9,2163L967.9,2163z M1129.9,2156.7c-1.1-1.7-3.7-3.9-5.7-5
		c-2-1-3.4-2.1-3.1-2.5c1.8-1.8,12.1,6.5,11.2,9.1C1132.2,2159.2,1131.1,2158.5,1129.9,2156.7L1129.9,2156.7z M944.5,2152.8
		c-1.8-0.9-4.2-1.4-5.3-1c-2.9,0.9-14.6-1.4-15.8-3.2c-0.9-1.4-3.6-10.1-5.1-16.2c-0.4-1.7,0-3.9,0.9-5.2c1.4-1.8,2.1-2,4.2-0.8
		c2.3,1.2,2.7,1,4-1.7c0.8-1.7,3.4-4.1,5.7-5.3c2.5-1.3,4.9-3.7,5.8-5.8c1-2.4,2.8-4,5.5-4.9c2.2-0.7,5.4-3.1,7.1-5.4
		c1.7-2.2,3.7-4,4.5-4c0.8,0,3.1,1.8,5.2,3.9l3.8,3.9l-3,4.1c-3.4,4.6-3.3,8.6,0.6,14.1l2.4,3.3l-2.9,1.9c-1.6,1.1-2.9,2.6-2.9,3.4
		c0,2.7-7.6,18.3-9.5,19.5C948.3,2154.2,946.7,2154,944.5,2152.8L944.5,2152.8z M1013.1,2152.8c-2.4-0.6-2.8-2.7-0.4-2.7
		c0.9,0,3.4,0.4,5.6,0.8c3.3,0.7,3.6,0.9,1.6,1.7C1017.2,2153.5,1016.1,2153.6,1013.1,2152.8L1013.1,2152.8z M1201.2,2137.7
		c0-0.3,0.5-0.8,1.2-1.3c0.6-0.4,1.2-0.2,1.2,0.5c0,0.7-0.5,1.3-1.2,1.3C1201.7,2138.2,1201.2,2138,1201.2,2137.7z M1008.9,2134.5
		c-0.9-0.9-1-2-0.2-3.6c0.6-1.2,0.9-2.7,0.5-3.3c-1.1-1.7,1.6-5.9,3.8-5.9c1.7,0,1.7,0.2-0.1,2.2c-1.6,1.7-1.7,2.9-0.8,5.3
		C1014,2134.1,1012,2137.5,1008.9,2134.5L1008.9,2134.5z M415.8,2130.6c0-0.3,0.5-0.8,1.2-1.3c0.6-0.4,1.2-0.2,1.2,0.5
		c0,0.7-0.5,1.3-1.2,1.3S415.8,2130.9,415.8,2130.6z M1234.8,2127.6c-0.4-0.6-0.2-1.2,0.5-1.2c0.7,0,1.3,0.5,1.3,1.2
		s-0.2,1.2-0.5,1.2C1235.8,2128.8,1235.2,2128.3,1234.8,2127.6z M422.8,2116.5c0-0.3,0.5-0.8,1.2-1.3c0.6-0.4,1.2-0.2,1.2,0.5
		c0,0.7-0.5,1.3-1.2,1.3S422.8,2116.8,422.8,2116.5z M990.9,2098.7c-2.3-5.3-2.6-5.5-6-4.7c-3.5,0.8-3.6,0.7-2.3-1.8
		c1.1-2,2.1-2.4,4.6-1.8c2.4,0.5,4,0,6.4-2.2c1.7-1.6,3.2-3.9,3.2-5.1c0-3,4.4,7,5.4,12.4c0.8,4.1,0.7,4.3-1.2,2.8
		c-2.7-2.3-5.4,0.1-3.1,2.8c0.9,1.1,1,1.8,0.3,1.8c-0.7,0-2.1,0.3-3.1,0.7C993.8,2104.1,992.7,2102.8,990.9,2098.7L990.9,2098.7z
		 M775.6,2100.8c-1.3-2.1-2.1-11.8-1.1-14.3c1-2.7,1.1-2.7,4.1,1.8c3.6,5.3,4.8,8.7,3.6,10.6C781,2100.6,776.3,2102,775.6,2100.8
		L775.6,2100.8z M1039.4,2094.7c0-0.6,0.5-1.5,1.2-1.9c0.6-0.4,1.2-0.2,1.2,0.5c0,0.6-0.5,1.5-1.2,1.9
		C1039.9,2095.5,1039.4,2095.3,1039.4,2094.7z M1224.8,2094.5c0-0.6,0.2-1.2,0.5-1.2c0.3,0,0.8,0.5,1.3,1.2c0.4,0.6,0.2,1.2-0.5,1.2
		S1224.8,2095.2,1224.8,2094.5z M956.7,2087.7c0-0.5,2.4-3.6,5.3-6.8c4.2-4.7,5.3-5.4,5.3-3.4c0,1.3-1.7,4.4-3.9,6.8
		C959.6,2088.3,956.7,2089.9,956.7,2087.7z M982.3,2084.6c-0.4-1.1-0.3-2.8,0.2-3.8c0.8-1.5,1.2-1.5,2.3-0.1c1,1.3,1,2.2-0.2,3.8
		C983.1,2086.5,983,2086.5,982.3,2084.6z M77.8,2080c0.7-0.9,1-1.9,0.5-2.4c-0.4-0.4,0.3-0.8,1.7-0.8c1.9,0,2.3,0.6,1.8,2.4
		c-0.4,1.4-1.6,2.4-3,2.4C77,2081.6,76.8,2081.2,77.8,2080L77.8,2080z M990.2,2079.7c-0.4-1.2-1-2.6-1.3-3.1c-0.3-0.5,0-0.9,0.6-0.9
		c1.2,0,2.8,4.8,2,5.7C991.2,2081.7,990.6,2080.9,990.2,2079.7z M978.2,2076.6c-1.7-2,0-4.8,2.4-4.3c1.6,0.3,1.6,0.8,0.4,3.1
		C979.8,2077.7,979.3,2077.9,978.2,2076.6z M992.2,2072.5c-1.4-1.7-2.3-3.3-2-3.6c1-1,4.3,1.2,6,3.9
		C998.9,2076.9,995.5,2076.7,992.2,2072.5z M972.8,2067.9c-1.1-1.1-1.9-2.5-1.9-3.3s1.2-0.2,2.6,1.2c1.4,1.4,2.3,2.9,1.9,3.3
		S973.8,2069,972.8,2067.9z M45.7,2067.8c-0.4-0.4-0.8-1.3-0.8-2c0-0.7,0.6-0.7,1.4,0.2c0.8,0.8,1.1,1.7,0.8,2
		S46.1,2068.2,45.7,2067.8z M39,2066.2c0-0.6,0.2-1.2,0.5-1.2s0.8,0.5,1.3,1.2s0.2,1.2-0.5,1.2S39,2066.8,39,2066.2z M94.5,2063.8
		c0-0.6,0.2-1.2,0.5-1.2s0.8,0.5,1.3,1.2c0.4,0.6,0.2,1.2-0.5,1.2S94.5,2064.5,94.5,2063.8z M984.6,2063.7c-1.2-0.7-3.4-0.9-5-0.5
		c-2.3,0.6-3.9-0.3-8.1-4.8c-6-6.2-7.2-8.8-5.4-12.2c0.7-1.3,1.2-3.9,1.2-5.9c0-6.4,4.3-6.2,7.4,0.4c1.7,3.7,1.8,4.4,0.1,8.4
		c-1.8,4.2-1.7,4.4,1.4,7.7c2.3,2.4,4,3.2,5.8,2.7c1.5-0.4,3.2,0.1,4,1.2C988.2,2063.3,987.3,2065.2,984.6,2063.7L984.6,2063.7z
		 M87.4,2056.2c0-0.3,0.5-0.8,1.2-1.3c0.6-0.4,1.2-0.2,1.2,0.5c0,0.7-0.5,1.3-1.2,1.3S87.4,2056.5,87.4,2056.2z M272.8,2052
		c0-0.6,0.5-1.2,1.2-1.2c0.6,0,1.2,0.5,1.2,1.2c0,0.6-0.5,1.2-1.2,1.2C273.4,2053.2,272.8,2052.7,272.8,2052z M83.9,2047.4
		c0-0.6,0.5-1.5,1.2-1.9s1.2-0.2,1.2,0.5c0,0.6-0.5,1.5-1.2,1.9C84.4,2048.3,83.9,2048.1,83.9,2047.4z M73.8,2042.6
		c-0.4-0.7,0.1-0.9,1.1-0.5c2,0.8,2.4,1.6,0.7,1.6C75.1,2043.8,74.2,2043.2,73.8,2042.6z M261.6,2042.6c-0.4-0.6-0.2-1.2,0.5-1.2
		s1.3,0.5,1.3,1.2c0,0.6-0.2,1.2-0.5,1.2C262.6,2043.8,262,2043.2,261.6,2042.6z M78.6,2040.2c-0.4-0.6-0.2-1.2,0.5-1.2
		s1.3,0.5,1.3,1.2c0,0.6-0.2,1.2-0.5,1.2S79,2040.9,78.6,2040.2z M83.9,2040.2c0-0.6,0.2-1.2,0.5-1.2s0.8,0.5,1.3,1.2
		c0.4,0.6,0.2,1.2-0.5,1.2S83.9,2040.9,83.9,2040.2z M2.7,2037.1c-0.8-0.3-1.5-1.1-1.5-1.7c0-1.7,5.2-1.3,7.7,0.7
		c2.2,1.6,2.1,1.7-1.3,1.7C5.7,2037.7,3.5,2037.4,2.7,2037.1z M32.6,2036.4c-1.1-0.6-3.4-0.8-5.2-0.4c-1.8,0.4-4.6,0.2-6.2-0.4
		c-2.5-1-2.3-1.1,1.9-1c6.3,0.1,8-0.9,6.4-3.9c-1.1-2.1-0.8-2.3,4.8-2.3c5.5,0,13.3,2.5,14.6,4.7
		C49.9,2034.5,34.7,2037.6,32.6,2036.4L32.6,2036.4z M55.2,2037.1c-1.4-1.4,0.3-2.8,3.4-2.8c1.9,0,2.8,0.6,2.5,1.5
		C60.6,2037.4,56.5,2038.4,55.2,2037.1z M909.7,2035.3c-3.1-3.1,0-6.9,5.7-6.9c2.5,0,2.5,0,0.4,3.7
		C913.2,2036.5,911.7,2037.3,909.7,2035.3z M65,2035c0-0.3,0.8-0.8,1.8-1.1c1-0.4,1.8-0.2,1.8,0.5c0,0.6-0.8,1.1-1.8,1.1
		S65,2035.3,65,2035z M13.9,2026.6c-0.4-0.4-2.9-0.7-5.5-0.7c-3.7-0.1-4.6-0.4-3.7-1.5c0.9-1.1-0.4-2.5-4.7-5.3
		c-8.5-5.5-13.3-6.6-19-4.3c-5.4,2.1-5.8,2.2-5.8,0.9c0-2.5,9.4-5.2,16.2-4.7c6.5,0.5,10.1,1.9,22.8,8.7c10.4,5.6,10.5,5.6,7.1,6.6
		C17.4,2027.2,14.7,2027.4,13.9,2026.6z M22.5,2016.6c2.3-1.5,3.5-1.5,3.5,0c0,0.6-1.2,1.2-2.7,1.2
		C21.2,2017.7,21,2017.5,22.5,2016.6z M963.1,2014.5c-0.7-0.5-1.9-2.1-2.7-3.6c-1.2-2.3-1.1-3.3,0.7-6.4c2.8-4.7,4.6-5.3,5.5-1.7
		C967.5,2006.5,964.8,2015.6,963.1,2014.5L963.1,2014.5z M30.2,2012.9c0.8-1.3,5.2-1.4,5.2-0.2c0,0.5-1.3,1-2.9,1.1
		C30.9,2013.9,29.8,2013.5,30.2,2012.9L30.2,2012.9z M6.9,2001.5c-1.9-2.2-1.6-5,0.5-5c0.7,0,0.9,1,0.6,2.3c-0.3,1.3,0,2.5,0.7,2.8
		c0.7,0.3,1,0.8,0.7,1.2C9,2003.3,7.8,2002.7,6.9,2001.5z M13.7,1992.3c-0.4-1.1-0.5-2.3-0.2-2.6c0.3-0.3,0.9,0.3,1.4,1.4
		c0.4,1.1,0.5,2.3,0.2,2.6C14.7,1994,14.1,1993.4,13.7,1992.3z M6.3,1991.2c0-1,1-1.8,2.2-1.8c2,0,2.1,0.2,0.5,1.8
		c-1,1-2,1.8-2.2,1.8C6.5,1993,6.3,1992.2,6.3,1991.2z M996.8,1965.3c0-0.9-1.3-3.2-2.9-5.1c-3.7-4.4-2.4-7.4,2-4.5
		c3.2,2.1,4.9,6.4,3.7,9.4C998.8,1967.4,996.8,1967.6,996.8,1965.3z M80.3,1958.2c0-0.3,0.5-0.8,1.2-1.3s1.2-0.2,1.2,0.5
		c0,0.7-0.5,1.3-1.2,1.3S80.3,1958.5,80.3,1958.2z M1003.4,1956.8c-0.8-2,1-3.9,3.8-3.9c1.9,0,1.9,2.6,0.1,4.5
		C1005.3,1959.2,1004.3,1959.1,1003.4,1956.8L1003.4,1956.8z M1014.2,1952.4c-2.3-3.5-5.5-4-12.9-1.9c-3,0.8-5.1,0.8-6.5,0
		c-1.1-0.7-1.4-1.2-0.7-1.2c0.8,0,3-1.4,4.9-3c2.5-2.1,4.4-2.8,6.4-2.3c2.1,0.5,4.4-0.5,9.2-4.1c9.3-7,10.2-9.2,6.4-16.7
		c-3.6-7.2-2.6-9.5,2.8-6.3c3.9,2.3,7.6,9,6.6,11.8c-0.4,1,0.2,4.2,1.3,7c1.5,4.1,1.7,5.8,0.7,7.7c-1.5,2.8-5.7,4.7-10.5,4.7
		c-2.7,0-3.5,0.7-4.4,3.8l-1.1,3.8L1014.2,1952.4L1014.2,1952.4z M535.7,1948.4c-1.4-1.4-0.7-2.7,1.6-2.7c1.3,0,2.6-0.5,3-1.2
		c1.1-1.8,3-1.4,2.3,0.4C541.9,1946.9,536.8,1949.4,535.7,1948.4L535.7,1948.4z M495.5,1946.4l-3.5-1.6l4.7-0.1
		c5.9-0.1,10.2,1,9.4,2.4C505.1,1948.6,499.5,1948.2,495.5,1946.4L495.5,1946.4z M447.8,1934.6c-4.7-2.4-4.9-2.7-2.5-3.4
		c3-0.8,9.5,0.2,9.4,1.4c0,0.4-0.4,1.6-0.9,2.7C453,1937.1,452.5,1937,447.8,1934.6z M424.1,1921.8c-1-2.9-0.9-4.1,0.4-5.4
		c2.4-2.4,4.3-0.7,4.3,3.9C428.7,1925.7,425.8,1926.7,424.1,1921.8L424.1,1921.8z M396.4,1922.8c0.8-2.2,4.4-2.6,3.7-0.4
		c-0.3,0.8-1.4,1.6-2.5,1.9C396.3,1924.5,395.9,1924.1,396.4,1922.8L396.4,1922.8z M1013.5,1909.3c-2.2-3-2.2-3.6-0.6-5.9
		c1.6-2.2,1.6-2.9-0.1-6c-2.7-5.1-2.3-5.4,2.3-1.9c2.3,1.7,6.8,3.9,10,4.9c6.6,2,8.2,3.5,4.8,4.6c-1.3,0.4-2.4,1.5-2.4,2.5
		c0,1.3-0.8,1.5-3.2,0.9c-6.2-1.6-8-1.2-7.6,1.7C1017.2,1913.5,1016.4,1913.4,1013.5,1909.3L1013.5,1909.3z M426,1910.7
		c-1.4-1.4-0.9-3.7,1-4.4c1.3-0.5,1.8,0.1,1.8,2.2C428.7,1911.4,427.6,1912.3,426,1910.7z M1006,1885.8c-1-1.1-3.4-5.3-5.4-9.2
		c-1.9-3.9-7.1-11.1-11.5-15.9c-4.9-5.4-7.3-9-6.4-9.3c0.8-0.3,2.6,1,3.9,2.7c3.2,4.3,7.3,8.1,13.6,12.7c5.2,3.9,7.8,7.4,4.4,6.1
		c-3.9-1.5-2.9,2.1,2.1,7.7c2.9,3.3,5.3,6.3,5.3,6.6C1012.2,1888.7,1007.6,1887.6,1006,1885.8L1006,1885.8z M141.7,1883.7
		c0-1,0.5-1.8,1.1-1.8s0.8,0.8,0.5,1.8c-0.4,1-0.9,1.8-1.1,1.8C142,1885.5,141.7,1884.7,141.7,1883.7z M135.6,1879.9l-4.4-0.5
		l8.3-8.2c4.6-4.5,8.9-8.2,9.6-8.2c0.8,0,0.5,0.9-0.5,2.1c-2.5,2.7-0.8,5.8,3.7,6.8c2,0.4,3.9,1.9,4.7,3.6c1.2,2.7,1,2.9-3.1,4.1
		C149.5,1880.7,144.4,1880.8,135.6,1879.9L135.6,1879.9z M-152.2,1871.4c-4.1-3.8-4.5-5.4-1.8-6.5c2.4-0.9,6.9,2.1,8.6,5.8
		c1.8,3.9,1.8,4.1-0.9,4.1C-147.5,1874.9-150.2,1873.3-152.2,1871.4z M367.9,1865.4c1.3-0.6,3.9-1.7,5.7-2.4c4-1.5,3.4-3-1.7-4
		c-3.5-0.7-3.6-0.9-1.6-2.3c1.2-0.9,1.8-2.1,1.4-2.8c-0.4-0.7,0.8-1.8,2.8-2.5c1.9-0.7,3.5-1.8,3.5-2.4c0-2.7-2.5-7.3-3.8-7.1
		c-3.2,0.4-4.6-0.1-4.1-1.6c0.3-0.8,0.1-2.4-0.5-3.5c-1.5-3,2-9.1,5.2-9.1c0.5,0,0.8,0.6,0.6,1.4c-0.2,0.8,1,1.6,2.5,1.9l2.8,0.4
		l-2.6,2.8l-2.6,2.8l3,1.1c3.2,1.2,6.3,5.2,9.4,12.1c1.5,3.3,2.5,4.2,4.3,3.7c3.6-0.9,4,1.5,0.7,3.7c-2.3,1.5-2.7,2.4-1.7,3.4
		c1,1-1,1.7-7.8,2.7c-5.1,0.7-11.1,1.7-13.3,2.1C366.5,1866.4,366.1,1866.3,367.9,1865.4L367.9,1865.4z M348,1858.9
		c-0.4-1.1,0.1-3.4,1-5.3c1.1-2.1,1.3-3.7,0.6-4.1c-2-1.3-1.3-2.9,1.7-3.6c1.6-0.4,3.5-1.5,4.3-2.4c1.6-1.9,8.8-2.2,9.9-0.5
		c0.4,0.6-0.1,2.4-1.1,3.8c-1,1.4-1.8,4-1.8,5.8c0,2.6-0.8,3.4-5,4.9c-2.8,1-5.9,2.1-6.9,2.6C349.4,1860.5,348.5,1860.1,348,1858.9z
		 M369.7,1847.2c0-0.3,0.5-0.8,1.2-1.3c0.6-0.4,1.2-0.2,1.2,0.5c0,0.7-0.5,1.3-1.2,1.3C370.2,1847.7,369.7,1847.5,369.7,1847.2z
		 M-154.5,1841.5c-1.2-1.4-1.1-2,0.4-3.2c2.4-2,3.6-0.6,2.2,2.5C-152.9,1842.9-153.2,1843-154.5,1841.5L-154.5,1841.5z
		 M-156.3,1832.6c-0.4-0.6,0.1-1.8,1-2.6c1.9-1.6,2.3-0.3,0.7,2.2C-155.2,1833.2-155.9,1833.3-156.3,1832.6z M-232.7,1831.9
		c0-0.8,3.6-2.3,8.7-3.5c1.9-0.5,3.1-0.4,2.7,0.3c-0.4,0.6-2.1,1.4-3.9,1.7c-1.8,0.4-4.2,1-5.3,1.5
		C-231.7,1832.2-232.7,1832.3-232.7,1831.9L-232.7,1831.9z M469.2,1818.6c-2.2-0.9-1.8-2.2,0.7-2.4c1.2-0.1,2.2,0.6,2.2,1.5
		C472,1819.4,471.6,1819.6,469.2,1818.6L469.2,1818.6z M209.7,1812.5c-7.5-4.1-11-10.3-8.9-15.6c1-2.5,1.1-4,0.1-5.8
		c-2-3.7,0.6-7.9,7.1-12c3.1-1.9,6.2-4.5,6.9-5.8c1.9-3.5,0.2-9.6-3.1-11.1c-1.7-0.8-2.6-2-2.2-2.9c0.8-2.2-3.1-9.6-7-13.3
		c-2.9-2.7-4.1-3-14-3c-13.4-0.1-15.9-0.8-15.7-4.7c0.1-1.6,0.4-2.9,0.8-2.9c0.3,0,5.1-0.6,10.6-1.2c7-0.9,13.3-2.6,21.2-6
		c12.1-5.2,13.1-5.3,42-4.6c9.1,0.2,17.5-0.5,28.3-2.3c10.1-1.7,17.5-2.3,21.5-1.9c3.4,0.4,8.3,0.1,11.1-0.6
		c6.4-1.7,23.2,0.4,29.8,3.7c3.9,2,6,2.2,12.5,1.6c7.1-0.7,7.6-0.6,5.5,1c-1.3,1-5.3,2.1-8.9,2.6c-7.8,1-14.9,6.5-13,10.1
		c0.8,1.5,0.2,2.8-2.4,5.3c-1.9,1.8-3.8,4.2-4.1,5.3c-0.8,2.6-11.3,7.4-16.4,7.6c-5.8,0.2-6.4,1.4-1.9,3.9c2.1,1.2,5.2,3.1,6.8,4.4
		l3,2.3l-2.7,1c-2.1,0.8-3.8,0.3-7.2-2.1c-4.7-3.2-9.7-3.3-7,0c1,1.3,0.8,1.8-1.2,2.3c-4.4,1.1-1.3,3.4,3.6,2.6
		c3.1-0.5,4.8-0.2,5.8,0.9c1.1,1.4-0.3,2-9,3.8c-5.7,1.2-13.3,2.2-16.8,2.3c-6.6,0.1-11.4,2-18.5,7.4c-2.3,1.7-7.2,3.5-12.9,4.6
		c-11.9,2.3-16,4.9-23.1,15.2c-5.8,8.2-9.3,11.3-12.8,11.3C216.4,1815.8,212.9,1814.3,209.7,1812.5L209.7,1812.5z M125.9,1804.6
		c-2.5-1.6-5.6-4.5-6.9-6.5c-2.5-3.9-4.7-4.4-11.4-2.5c-2.3,0.6-4.8,0.7-5.8,0.1c-3.5-2,2.8-3.9,9.9-3c5.4,0.7,6.5,0.5,7.2-1.1
		c1.3-3.3,7-5.6,10.2-4.2c2,0.9,3.7,0.9,6.3-0.1c3.4-1.3,3.4-1.4,1.2-3c-1.3-0.9-2.7-1.7-3.2-1.7c-0.5,0-2.3-2.4-4-5.3
		c-1.7-2.9-4.9-6.4-7.1-7.7c-3.7-2.3-4.2-2.3-7.6-0.6c-2.9,1.5-4.6,1.6-9.2,0.6c-3.1-0.7-7.4-0.9-9.6-0.5
		c-3.8,0.7-10.8-1.2-10.8-2.9c0-3.2,10-10.3,15.9-11.4l4.7-0.8l-3.4,3.6c-4.7,5-2.9,7.2,2.2,2.8c2.1-1.9,5.9-3.8,8.2-4.2
		c3.6-0.7,5.2-0.2,9.8,2.8c6.1,4,6.6,4.1,10,2.3c2.1-1.1,2.8-0.8,5.1,2c1.6,1.9,5,4.1,8.4,5.1c5.4,1.7,5.8,2.1,5.8,5.8
		c0,2.8,0.8,4.6,2.7,5.9c7.9,5.7,7.8,5.4,6,8.2c-2.4,3.8-4.2,4-9.4,1.4c-3.6-1.8-5.2-2.1-7-1.1c-2.2,1.2-2.3,1.4-0.5,4.9
		c1.5,2.8,1.6,4.3,0.6,6.5c-1.2,2.7-1.4,2.7-4.8,1c-6.6-3.4-11-1.2-4.9,2.5c1.9,1.1,3.2,2.5,2.9,3
		C136.3,1808.4,130.5,1807.5,125.9,1804.6L125.9,1804.6z M368.5,1806.2c0-0.5,0.8-1,1.8-1c1,0,1.8,0.4,1.8,1c0,0.5-0.8,1-1.8,1
		S368.5,1806.7,368.5,1806.2z M81.4,1799.8c-2.3-1.2-4.1-1.3-7.4-0.4c-5.5,1.5-7.5,0.4-4.7-2.7c3.6-4,6-4.8,10.4-3.3
		c4.9,1.6,7.1,4,5.7,6.3C84.6,1801.2,84,1801.2,81.4,1799.8z M316,1799.3c-1.9-1.3-4.4-2-5.5-1.7c-1.5,0.5-1.8,0.1-1.4-1.7
		c0.7-2.7,11.1-6.6,14.6-5.5c1.2,0.4,4.3,0.1,6.9-0.7c4.1-1.2,5.2-1.1,7.9,0.7l3.2,2.1l-2.8,2.2c-2.4,1.9-6.9,3.5-17.6,6.4
		C320.3,1801.4,317.9,1800.6,316,1799.3z M-4.7,1777.2c-1.6-0.3-5.6-1.6-8.8-3.1l-5.8-2.6l8.2-0.6c4.5-0.3,8.2-1.1,8.2-1.8
		c0-0.6-3.2-1.5-7.1-1.8c-5.1-0.5-6.1-0.8-3.5-1.2c4.3-0.7,4.6-2.5,0.6-3.5c-2.9-0.7-2.9-0.8,1.2-2.5c7.1-3,14.6-3.6,21.3-1.6
		c5.5,1.6,6.3,1.6,8.9-0.1c1.8-1.2,2.9-1.4,3-0.6c0.1,0.7,0.2,1.9,0.3,2.7c0.3,2.6,2.6,2.2,5.4-0.8c2.6-2.8,7.1-4.1,7.1-2.1
		c0,0.5-1.1,2.6-2.3,4.7l-2.3,3.8l3.8,2l3.8,2L31,1773c-5.6,2.6-6.8,2.7-11.9,1.5c-4.9-1.2-6.3-1-11.3,1.1
		C2.2,1778,1.1,1778.1-4.7,1777.2L-4.7,1777.2z M42.7,1776.4c-1.1-1.3-0.6-1.9,2.1-3.1c1.9-0.8,4.7-1.1,6.1-0.6
		c2.6,0.8,2.5,0.9-1.4,3C44.6,1778.4,44.3,1778.4,42.7,1776.4L42.7,1776.4z M368.5,1770.9c2.3-1.5,3.5-1.5,3.5,0
		c0,0.6-1.2,1.2-2.7,1.2C367.2,1772.1,367.1,1771.9,368.5,1770.9z M585.2,1767.7c-6-2.4-5.9-2.3-4.2-4.4c0.8-1,1-1.8,0.5-1.8
		c-0.6,0,0-0.8,1.3-1.8c1.3-1,2.4-2.2,2.4-2.6c0-1.7,4.8-6.4,8.2-7.9c1.9-0.9,7-1.9,11.2-2.2c4.2-0.3,9.9-0.9,12.6-1.4
		c2.9-0.4,5.2-0.3,5.6,0.4c0.8,1.4-0.8,1.9-9.9,3.6c-9.1,1.6-14.6,4.2-18.2,8.5c-3.8,4.5-3.9,7.4-0.4,9.8l2.7,1.9l-3.5-0.1
		C591.6,1769.5,587.8,1768.7,585.2,1767.7L585.2,1767.7z M-33.3,1764.2c-1.9-1.9-1.5-2.3,7.7-7.3c10.7-5.9,16.1-6.6,25.7-3.7
		l5.3,1.6l-7.1,1.4c-5.8,1.1-18.1,5.3-27.8,9.3C-30.5,1765.9-32.2,1765.3-33.3,1764.2z M52,1762.7c0-0.6-1.5-2-3.2-3l-3.2-1.9
		l4.3,0.7c3.1,0.5,4.6,0.2,5.3-1c0.8-1.4,8.3-4.3,11.3-4.3c0.5,0,0.1,1.6-0.9,3.5C63.2,1761.3,52,1766.2,52,1762.7L52,1762.7z
		 M70.4,1759.3c-1.7-2.7,9.9-7,14.8-5.4c3.6,1.1,1.2,3.1-5.1,4.1c-2.8,0.5-6,1.2-7,1.7C72,1760.1,70.8,1759.9,70.4,1759.3
		L70.4,1759.3z M108.1,1750.6c-7.8-0.6-14.3-1.3-14.5-1.4c-1.1-1,1.6-4.2,4.4-5.3c2.8-1.2,4.1-1,7.9,0.9c3.7,1.9,6.1,2.2,13,1.7
		c4.7-0.3,10-0.2,11.8,0.2l3.3,0.8l-4.1,2.2c-2.3,1.2-4.9,2.2-5.9,2.1C123.1,1751.7,115.9,1751.2,108.1,1750.6L108.1,1750.6z
		 M448,1745.7c-5.8-3-6.4-4.3-1.8-4.3c1.8,0,4-0.6,5-1.3c1.5-1.1,1.5-1.2-0.2-0.7c-1.1,0.3-2.5,0-3.3-0.8c-1-1-1.6-1-2.3,0.1
		c-0.6,1-1.9,1.1-4.4,0.4c-6.2-1.9-7.6-2.7-7.6-4.5c0-1.6,1.6-1.7,11.2-1c7.4,0.5,11.2,0.4,11.2-0.4c0-2.3,3.3-1.2,4.1,1.5l0.9,2.7
		l0.5-2.7c0.3-1.5,1.3-2.7,2.2-2.7c0.9,0,1.7-0.6,1.7-1.4c0-1.1,0.3-1.1,1.4,0c0.8,0.8,4.8,1.4,9.4,1.4c8.4,0,10.4,1.5,4.8,3.7
		c-2.9,1.1-8,0.8-13.6-0.8c-1.1-0.3-2.1-0.2-2.1,0.4c0,1.1,6.6,5.1,8.4,5.1c0.6,0,1.9,0.7,2.8,1.7c1.4,1.4,1.4,1.8-0.1,2.3
		c-1,0.4-1.7,0.1-1.7-0.6c0-0.8-1.5-1-4.2-0.5c-3,0.6-4,0.4-3.4-0.5c0.4-0.7,0.2-2.1-0.6-3c-1.5-1.8-5.9-2.4-5.9-0.8
		c0,0.5-1.7,2.9-3.8,5.2l-3.8,4.2L448,1745.7L448,1745.7z M134.7,1743.1c-2-1.2-4.9-1.6-9.4-1.1c-4.2,0.4-7.4,0.1-9.2-0.9
		c-2.4-1.4-1.8-1.5,5.6-1.5c9.2,0.1,13.3-1.9,8.3-4c-2.4-1-2-1.1,2-0.5c5.3,0.7,7.4-0.7,4.5-3.1c-3.1-2.6,0.3-3.4,11.3-2.6
		c6.8,0.4,11.1,0.2,12.8-0.7c3.3-1.8,2-4.1-1.8-3.1c-2.6,0.7-21-0.4-20.2-1.2c0.6-0.6,26.5-3,43.6-4c8.8-0.6,18.7-1.3,21.8-1.7
		l5.8-0.7l-9.5,4.6c-8.9,4.3-23.5,8.5-29.4,8.5c-1.5,0-5.6,1.6-9.3,3.5c-3.7,1.9-7.4,3.5-8.3,3.5c-0.9,0-4.8,1.6-8.6,3.5
		s-7,3.5-7,3.5S136.3,1744.1,134.7,1743.1L134.7,1743.1z M111.6,1732.3c-5.7-1.3-5.9-1.7-1.7-3.9c6.1-3.2,11.9-4,14.6-2
		c2.1,1.5,2,1.8-2.1,4.2C118.1,1733.1,116.3,1733.4,111.6,1732.3z"/>
</g>
<path class="st1" d="M1234.1,382.6L1234.1,382.6c-6.9,0-12.5,5.6-12.5,12.5v266.6c0,6.9,5.6,12.5,12.5,12.5l0,0
	c6.9,0,12.5-5.6,12.5-12.5V395.1C1246.6,388.2,1241,382.6,1234.1,382.6z"/>
<linearGradient id="SVGID_1_" gradientUnits="userSpaceOnUse" x1="1141.7786" y1="352.6209" x2="1141.7786" y2="141.5674">
	<stop  offset="0" style="stop-color:#67C29C"/>
	<stop  offset="0.1396" style="stop-color:#65BE99"/>
	<stop  offset="0.2833" style="stop-color:#5EB28F"/>
	<stop  offset="0.429" style="stop-color:#539D7E"/>
	<stop  offset="0.5761" style="stop-color:#448067"/>
	<stop  offset="0.7242" style="stop-color:#305B49"/>
	<stop  offset="0.871" style="stop-color:#182E25"/>
	<stop  offset="1" style="stop-color:#000000"/>
</linearGradient>
<path class="st2" d="M1141.8,141.6L1141.8,141.6c-6.9,0-12.5,5.6-12.5,12.5v186.1c0,6.9,5.6,12.5,12.5,12.5h0
	c6.9,0,12.5-5.6,12.5-12.5V154.1C1154.3,147.2,1148.7,141.6,1141.8,141.6z"/>
<path class="st3" d="M330,719.2"/>
<path class="st3" d="M1141.8,352.6L1141.8,352.6c0,8.3,5.5,15,12.2,15h67.8c6.8,0,12.2,6.7,12.2,15v0"/>
<path class="st3" d="M253.6,799.3"/>
<path class="st3" d="M1192.7,784.3"/>
<path class="st3" d="M1234.1,829.3c0-8.3-6.6-15-14.7-15h0.8H274.6c-8,0-14.5-6.7-14.5-15v0"/>
<path class="st3" d="M1234.1,674.2c0,8.3-6.6,15-14.7,15l0.8,0H274.6c-8,0-14.5,6.7-14.5,15v0"/>
<path class="st3" d="M1234.2,976.3c0,8.3-3.5,15-7.9,15l0.4,0H718.4c-4.3,0-7.8,6.7-7.8,15v0"/>
<path class="st3" d="M255.5,822"/>
<path class="st3" d="M273.6,814.3"/>
<path class="st3" d="M1242.2,814.3"/>
<path class="st1" d="M1221.6,844.3v117c0,8.3,5.6,15,12.5,15l0,0c6.9,0,12.5-6.7,12.5-15v-117c0-8.3-5.6-15-12.5-15l0,0
	C1227.2,829.3,1221.6,836,1221.6,844.3"/>
<path class="st4" d="M262.2,704.2L262.2,704.2c-6.9,0-12.5,5.6-12.5,12.5v70.1c0,6.9,5.6,12.5,12.5,12.5h0c6.9,0,12.5-5.6,12.5-12.5
	v-70.1C274.7,709.8,269.1,704.2,262.2,704.2z"/>
<path class="st5" d="M710.6,1006.3L710.6,1006.3c-7,0-12.6,5.7-12.6,12.6v200.9c0,7,5.7,12.6,12.6,12.6l0,0c7,0,12.6-5.7,12.6-12.6
	V1019C723.2,1012,717.6,1006.3,710.6,1006.3z"/>
<path class="st6" d="M262.2,734.5"/>
<g>
	<g>
		<line class="st3" x1="1248.9" y1="1002" x2="1272.3" y2="1046.7"/>
		<g>
			<path class="st5" d="M1243.3,991.3c0.8,6,0.9,13.9-0.5,19.6l6.8-7.5l10-1.4C1254.2,1000,1247.8,995.4,1243.3,991.3z"/>
		</g>
	</g>
</g>
<g>
	<g>
		<line class="st3" x1="710.7" y1="1232.5" x2="710.7" y2="1553.3"/>
		<g>
			<path class="st5" d="M710.7,1565.4c-2.1-5.7-5.7-12.7-9.5-17.1l9.5,3.4l9.5-3.4C716.4,1552.7,712.8,1559.7,710.7,1565.4z"/>
		</g>
	</g>
</g>
<g>
	<g>
		<line class="st3" x1="710.7" y1="1232.5" x2="710.7" y2="1553.3"/>
		<g>
			<path class="st5" d="M710.7,1565.4c-2.1-5.7-5.7-12.7-9.5-17.1l9.5,3.4l9.5-3.4C716.4,1552.7,712.8,1559.7,710.7,1565.4z"/>
		</g>
	</g>
</g>
</svg>
