<?xml version="1.0" encoding="utf-8"?>
<!-- Generator: Adobe Illustrator 28.3.0, SVG Export Plug-In . SVG Version: 6.00 Build 0)  -->
<svg version="1.1" id="Layer_1" xmlns="http://www.w3.org/2000/svg" xmlns:xlink="http://www.w3.org/1999/xlink" x="0px" y="0px"
	 viewBox="0 0 480 330" enable-background="new 0 0 480 330" xml:space="preserve">
<g id="aurora-os-text">
	<text transform="matrix(1 0 0 1 428.97 45.4715)" fill="#1CABC4" font-family="'Helvetica-Bold'" font-size="14px">10:09</text>
	<text transform="matrix(1 0 0 1 402.9397 40.2305)" fill="#1CABC4" font-family="'Helvetica-Bold'" font-size="8.5495px">&gt;</text>
	<text transform="matrix(1 0 0 1 14.2724 45.4717)" fill="#1CABC4" font-family="'Helvetica-Bold'" font-size="14px">AuroraOS</text>
</g>
<path id="aurora-os-animated-svg" fill="none" stroke="#1CABC4" stroke-width="2" stroke-miterlimit="10" d="M474.5,10.7
	c0-2.8-2.3-5.1-5.1-5.1H10.6 M469.4,324.4c2.8,0,5.1-2.3,5.1-5.1V10.7 M5.5,319.3c0,2.8,2.3,5.1,5.1,5.1h458.7 M10.6,5.6
	c-2.8,0-5.1,2.3-5.1,5.1v308.5 M474.5,53.3H5.5 M474.5,24.1v20.3 M5.5,27.2h469 M16.3,11.7c-2.6,0-4.7,2.1-4.7,4.7s2.1,4.7,4.7,4.7
	S21,19,21,16.4S18.9,11.7,16.3,11.7z M32.7,11.7c-2.6,0-4.7,2.1-4.7,4.7s2.1,4.7,4.7,4.7s4.7-2.1,4.7-4.7S35.3,11.7,32.7,11.7z
	 M48.4,11.7c-2.6,0-4.7,2.1-4.7,4.7s2.1,4.7,4.7,4.7c2.6,0,4.7-2.1,4.7-4.7S51,11.7,48.4,11.7z M420.2,45.1v-9.7
	c0-1.2-1-2.3-2.3-2.3h-15.7c-1.2,0-2.3,1-2.3,2.3v9.7c0,1.2,1,2.3,2.3,2.3h15.7C419.2,47.3,420.2,46.3,420.2,45.1z M409,40.4h5
	 M246.4,144.5l-25.7,8.2l-18.8,2.6h17.9l-26.6,4.9l13.2,1.3l-11,1.5l-7.9,6h11.4l8-5.9l-2.5,8.7l15.5-13.7l21.4-9 M241.2,142.2
	l-45.8,7.9l13.2,0.8l37.8-6.4L241.2,142.2z M254.1,142.2l9.2-0.6l-5.1-2.7l19.6,3.3l17.9-4.1l-46-2.1h-4.2l-46,2.1l17.9,4.1
	l19.6-3.3l-5.1,2.7l9.2,0.6 M248.8,144.5l37.9,6.4l13.2-0.8l-45.8-7.9L248.8,144.5z M254,149.1l21.4,9l15.5,13.7l-2.5-8.7l8,5.9
	h11.4l-8.1-5.9l-11-1.5l13.2-1.3l-26.6-4.9h17.9l-18.8-2.6l-25.8-8.2 M241.3,149.1l-29.6,21.4l36-22.5l36,22.5l-29.6-21.4
	 M247.7,156.6l27.7,14.1L247.7,148L220,170.8L247.7,156.6z M247.7,304.3l2.6-12l-2.1-6.8v-12.2l1.4-4.8l-1.2-6.7l2.8-8l3.8,7.1
	l-6.4-24l1.5-4.8l7.4,21.8l-6.4-33.9l5.8,7.3l5.1,7.7l-8.9-29v-8.4l8.3,20.2l-2.1-16.5l5,6.6l0.9,2.9l5.3,3.4l-0.6-4l-5-3.4
	l-4.6-6.4l13,3.3l-23.6-18.2l1.4-8.3l9,4.8l0.1,5.3l9.1,5.7l-0.8-7.7l-7.3-4.5l3.2-4.5l-15.6-12.8l32,19.5l11.7,2.2l-44.8-28.5
	 M247.7,156.6l-44.8,28.5l11.7-2.2l32-19.5L231,176.2l3.2,4.5l-7.3,4.5l-0.8,7.7l9.1-5.7l0.1-5.3l9-4.8l1.4,8.3l-23.6,18.2l13-3.3
	l-4.6,6.4l-5,3.4l-0.6,4l5.3-3.4l0.9-2.9l5-6.6l-2.1,16.5l8.3-20.2v8.4l-8.9,29l5.1-7.7l5.8-7.3l-6.4,33.9l7.4-21.8l1.5,4.8l-6.4,24
	l3.8-7.1l2.8,8l-1.2,6.7l1.4,4.8v12.2l-2.1,6.8l2.6,12 M249.8,135.9l32.6-8.6l-9.9-0.4l-23.5,7.7h-2.6l-23.5-7.7l-9.9,0.4l32.6,8.6
	H249.8z M247.7,68.2v20.9l-2.6,11.3l-4.5-10.3l4.6,21.7l0.4,8.6l-4.1-7.1l-12-4.4l14.1,14l-11.1-3.8l-9.6-0.2l23.5,15.6h2.6
	l23.5-15.6l-9.6,0.2l-11.1,3.8l14.1-14l-12,4.4l-4.1,7.1l0.4-8.6l4.6-21.7l-4.5,10.3l-2.6-11.3L247.7,68.2"/>
</svg>
