<?xml version="1.0" encoding="utf-8"?>
<!-- Generator: Adobe Illustrator 26.0.3, SVG Export Plug-In . SVG Version: 6.00 Build 0)  -->
<svg version="1.1" id="Layer_1" xmlns="http://www.w3.org/2000/svg" xmlns:xlink="http://www.w3.org/1999/xlink" x="0px" y="0px"
	 viewBox="0 0 410.6 253.7" style="enable-background:new 0 0 410.6 253.7;" xml:space="preserve">
<path id="fpga-boxhead-animated-svg" style="fill:none;stroke:#1CABC4;stroke-width:2;stroke-miterlimit:10;" d="M123.8,1.3l23.2,21
	L122.8,39L99,18.8L123.8,1.3z M99,18.8v33.8L118.6,70l4.2-31 M118.6,70l23.9-15.8l4.6-32 M99,25.9l23,19.2l24-15.7 M99,48l11.2-3.6
	 M99.9,54.8l-14.3,9.7l24.6,17.3l39.3-28.2l-6.3-4.2l9-6.2l-7.5-4.2l-23.8,14.6l-21-18 M144.6,111.3l4.8-57.7 M113.8,117.9l1.5,15.3
	l13.9-8.8 M91,101l0.1,14.9l24.2,17.3l-1.5-15.3 M85.6,64.5l1,9.5 M100.4,74.9l-7.3,4.7L99,96.4l8.1-4.8L100.4,74.9L89.6,72l-7.5,5
	l11,2.6l-11-2.6l8.9,24l8,2.3v-6.8l1.5,14.9l20.6,10.1l-0.9-2.9l8.3,2.9v-6.6L99,96.4 M105.9,92.1l10.8,10.8l3.5-1.8l36.5,29.4
	l6.4-4.2l-38.4-31l-3.1,1.6l-9.4-8.2l-5.1,3.1 M128.3,121.4v2.6l7.5,3.1l2.2-5.7l18.4,13.6l6.6-3.9v-5 M156.6,130.4l-0.2,4.6
	 M146,94.3l6.2,1.7l5.8-4.9l-5.8-48 M145.4,101.9l8.1,4.1l8-5.7l-3.5-9.2 M152.2,96l1.3,10 M154.9,65.5l-6.9,5.3l2.2,24.6
	 M105.9,126.4l-11.7,9.4l23.3,14.2l15.3-11.8l-12.4-8.3 M94.2,135.8v8.6l23.3,15l16.9-11.8l-1.6-9.4 M117.5,150v9.4 M123.8,128.2
	l10.6,8.4l12.6-7 M134.5,136.6v-6.2l9.3-4.8l-9.3,4.8l-7.2-4.8 M110.2,81.8l0.6,7.7 M270.9,12.4L248.3,36l24.5,16.9l22.9-23.3
	L270.9,12.4z M248.3,36l8.8,23.9l24.6,16.4l19.9-19.5l-6-27.3 M281.8,76.3l-8.9-23.5 M300.7,52.3l-23.4,12.3l-12.2-11.7l-12.4-5
	l-32.9,28.5l6.9,4.7L251.6,62 M316.2,77.9V67.1l-16.1-8.7 M273.1,123.1l19.1,12.3l24-18.2V89.6 M255,54.1l-4,4.2l8.1,55.7l2,1.3
	 M216.8,79.8l-5.6,6l7,5.4l5.6-5.7L216.8,79.8z M211.3,85.8v5.4l8.5,6l4.8-5l-0.7-6.7 M218.3,91.3l1.5,6 M220,82.4l-0.3-6.1
	 M224.4,90.5h3.3l20.7-13.6l-1.2-11.6l-7.8-6 M226.6,81l1,9.5 M247.7,70.3l5.5,3.3 M251,58.3l41.2,28.6l24-19.8 M254,60.4l1.9,8.4
	L272,91.4l8.3-0.1l4.8-9.3l20.4-20.7 M292.2,112v23.4 M292.2,86.9l-3.1,2.8l8.5,5.1L317,77.2l-7.4-4.6 M297.6,94.7l1.5,10.3
	l19.4-17.4L317,77.2 M286.9,92.3l-20.2,17l8.4,5.1L294.2,98L286.9,92.3z M275,114.4l1.3,9.1l19.4-14.1L294.2,98 M264,112.2l-5.1,5.3
	l6.6,4.8l5.9-5.1L264,112.2z M267.8,128.2l-2.3-5.9l-6.6-4.8l0.6,5.2L267.8,128.2l6-5.9l-2.5-5.1 M299.1,105l-4.2-1.7 M289.1,89.6
	V94 M286.5,131.7l-4.7,3.7l15.8,11.1l23.8-16.6l-11.1-8.2 M281.8,135.4v8.4l15.8,11.6l23.8-17.6V130 M297.6,146.5v8.8 M259.1,114
	l-8.1,4.4l8.5,4.4l-8.5-4.4l-0.5,9.8l15.9,10l16.3-8.9 M266.4,138.2v-10.9 M83.4,80.5h-9.1L1,197.4 M409.6,197.4L330.7,80.5h-13.3
	 M242.9,80.5h11.3 M156.6,80.5h59.6 M1,197.4v55.3h408.6 M409.6,252.7v-55.3H1 M178,214.5c0.5-0.4,0.7-1,0.7-1.7s-0.2-1.2-0.7-1.6
	c-0.5-0.4-1.2-0.6-2.1-0.6h-14c-0.8,0-1.5,0.1-2.1,0.4c-0.5,0.2-0.9,0.6-1.2,1.2c-0.3,0.5-0.4,1.2-0.4,2.1v22.5
	c0,1.2,0.3,2.1,0.8,2.7c0.6,0.6,1.3,0.9,2.1,0.9c0.9,0,1.6-0.3,2.1-0.9c0.6-0.6,0.8-1.5,0.8-2.7v-9.6h9.8c0.9,0,1.6-0.2,2-0.6
	s0.7-0.9,0.7-1.6c0-0.7-0.2-1.2-0.7-1.6s-1.1-0.6-2-0.6H164v-7.5h11.7C176.8,215.2,177.5,214.9,178,214.5z M202.6,226.1
	c1.8-1.5,2.8-3.8,2.8-6.8c0-1.4-0.2-2.7-0.7-3.8s-1.1-2.1-2-2.8s-1.9-1.3-3.1-1.7c-1.2-0.3-2.9-0.5-5.2-0.5h-7.6
	c-1.3,0-2.3,0.3-2.9,0.8c-0.6,0.6-0.9,1.5-0.9,2.8v22.6c0,1.2,0.3,2.1,0.8,2.7c0.5,0.6,1.3,0.9,2.2,0.9s1.6-0.3,2.1-0.9
	c0.6-0.6,0.8-1.5,0.8-2.7v-8.3h5.4C198,228.5,200.8,227.7,202.6,226.1z M198.2,216.3c0.8,0.8,1.1,1.9,1.1,3.2c0,1.1-0.2,1.9-0.7,2.6
	c-0.5,0.7-1.2,1.1-2.1,1.4c-0.9,0.3-2.1,0.4-3.5,0.4h-4V215h4C195.6,215,197.4,215.5,198.2,216.3z M236.5,225.7
	c-0.4-0.5-0.8-0.8-1.4-1c-0.6-0.1-1.3-0.2-2.1-0.2h-6.7c-0.8,0-1.5,0.2-1.9,0.6s-0.7,1-0.7,1.6c0,0.8,0.3,1.4,0.8,1.7
	c0.6,0.3,1.4,0.5,2.5,0.5h4.6v4.8c-1.2,0.7-2.5,1.2-3.7,1.5c-1.2,0.4-2.5,0.5-3.9,0.5c-2.8,0-5-0.9-6.6-2.8
	c-1.6-1.8-2.4-4.5-2.4-7.9c0-1.6,0.2-3,0.6-4.3c0.4-1.3,1-2.4,1.8-3.3c0.8-0.9,1.7-1.6,2.8-2.1s2.3-0.7,3.7-0.7
	c1.3,0,2.4,0.2,3.3,0.6s1.5,0.9,2,1.5s1.1,1.5,1.9,2.6c0.3,0.4,0.6,0.6,1,0.8s0.8,0.3,1.2,0.3c0.8,0,1.4-0.3,2-0.8s0.8-1.2,0.8-1.9
	s-0.2-1.5-0.7-2.4s-1.2-1.7-2.1-2.5c-0.9-0.8-2.2-1.5-3.7-2s-3.3-0.8-5.2-0.8c-2.4,0-4.5,0.3-6.4,1s-3.5,1.7-4.8,3s-2.3,2.9-3,4.8
	c-0.7,1.9-1,4-1,6.2c0,2.3,0.3,4.4,1,6.3c0.7,1.9,1.7,3.5,3,4.8s2.9,2.3,4.7,3s3.9,1,6.1,1c1.9,0,3.7-0.2,5.3-0.7
	c1.6-0.4,3.3-1.1,5.1-2.1c0.6-0.3,1.1-0.7,1.5-1s0.7-0.8,0.8-1.2s0.2-1,0.2-1.8V228C237,226.9,236.9,226.2,236.5,225.7z
	 M260.5,238.1c0.3,0.6,0.5,1,0.7,1.3s0.5,0.5,0.8,0.7s0.7,0.2,1.2,0.2c0.8,0,1.5-0.3,2-0.8c0.6-0.6,0.8-1.2,0.8-1.9
	s-0.3-1.7-0.9-3.1l-7.6-18.9c-0.4-0.9-0.7-1.7-0.9-2.3c-0.2-0.6-0.5-1.1-0.9-1.6c-0.3-0.5-0.8-0.9-1.3-1.2c-0.6-0.3-1.2-0.5-2.1-0.5
	c-0.8,0-1.5,0.2-2,0.5c-0.6,0.3-1,0.7-1.3,1.2s-0.7,1.1-1,1.9c-0.3,0.8-0.6,1.4-0.8,2l-7.5,19c-0.3,0.8-0.5,1.4-0.7,1.8
	c-0.1,0.4-0.2,0.8-0.2,1.2c0,0.7,0.3,1.3,0.9,1.9c0.6,0.5,1.2,0.8,2,0.8c0.9,0,1.5-0.3,1.9-0.8s0.9-1.5,1.4-3l1.4-3.8h11.9l1.4,3.7
	C260,237,260.3,237.5,260.5,238.1z M252.5,216.3l4.4,12.1h-8.7L252.5,216.3z"/>
</svg>
