<?xml version="1.0" encoding="utf-8"?>
<!-- Generator: Adobe Illustrator 28.2.0, SVG Export Plug-In . SVG Version: 6.00 Build 0)  -->
<svg version="1.1" id="Layer_1" xmlns="http://www.w3.org/2000/svg" xmlns:xlink="http://www.w3.org/1999/xlink" x="0px" y="0px"
	 viewBox="0 0 436.9 283" enable-background="new 0 0 436.9 283" xml:space="preserve">
<path id="hololens-animated-svg" fill="none" stroke="#1CABC4" stroke-width="2" stroke-miterlimit="10" d="M356.7,48.4
	c0.9,1.4,2.9,9,3.4,11.9s1.6,10.8,1.8,14.9c0.2,4.1-0.5,17.7-0.9,19.6c-0.5,1.8-2.5,4.8-3.8,6.1c-1.4,1.4-30,14.2-36.5,16.3
	c-6.5,2.1-59.5,13.6-68,15.2c-8.6,1.6-74.8,10.5-77.2,10.5s-2.5,0-2.5,0 M173,142.9c0,0,0.9-26.3,3-34.5s6-15.9,14.2-21.5
	c8.2-5.6,33.6-9.9,36.6-10.3s76.3-15.5,79.7-16.8c3.4-1.3,19.4-4.7,27.2-6.9c7.8-2.2,15.1-4.3,18.1-5.6s4-0.2,4.9,1.2 M173,142.9
	c0,0,2,29.8,4.3,36.8c2.3,7,7,18.5,13,22.5c5.9,4.1,11.1,6.5,18.1,7.7c7,1.1,14.6,0.5,21.2,0c6.5-0.5,16.7-2.7,22.7-3.6
	c6.1-0.9,11.7-0.9,17.1-3.6c5.4-2.7,5-2.7,10.4-7c5.4-4.3,14.2-14.6,16-15.8c1.8-1.1,3.4-4.1,7.9-4.1s4.1,1.4,5.4,4.1
	c1.4,2.7,0.9,5,2.5,6.8s3.2,1.1,4.7,0.7c1.6-0.5,6.3-3.2,9-5c2.7-1.8,8.8-8.3,11.3-13.1c2.5-4.7,9.5-23.9,10.6-29.5
	c1.1-5.6,7.9-34.6,8.1-37.8 M102.7,139.4c4.5,2,70.3,3.5,70.3,3.5 M355.2,46.7c-1.6-1.8-36-8.1-38.1-9c-2-0.9-7-0.2-9.2,0
	s-15.8,4.3-18.9,5.2c-3.2,0.9-20,4.7-25.7,6.1s-48.2,9.5-52,10.4c-3.8,0.9-56.1,9.7-58.8,10.4c-2.7,0.7-29.7,6.5-35.4,8.3
	c-5.6,1.8-9.2,3.4-13.7,7.9s-7.7,21.4-8.1,25.7c-0.5,4.3,0,18,0.9,20.3c0.9,2.3,2,5.6,6.5,7.7 M99.7,92.6
	c-2.8,0.9-42.3,4.3-48.3,4.9s-36.4,0.6-38,0.2s-4.8-0.4-5.2,2c-0.4,2.4,1.6,14,2.4,17.6c0.8,3.6,3.2,17.2,3.6,19.6s0.4,3.6,3.6,4.8
	s34,0.8,46.4,1.3s43.6-2.7,43.6-2.7 M302.2,39c-0.7-4.3-12.9-21.3-17.7-25.7c-4.8-4.4-12.4-9.2-22.8-11.2c-10.4-2-25.6-0.8-34,0
	s-26,5.6-33.2,8s-37.2,16-41.2,18.8s-29.2,19.6-35.2,24s-20,18.4-23.1,24.4s-4.6,16.5-4.6,16.5 M30.1,142.4c0,0,11.5,24.3,17.3,30.1
	s9,7.5,15.1,8.6c6.1,1.1,55.3-11.9,59.3-13.1c4-1.2,33.8-8.7,37.3-11.8c3.5-3.1,5.5-9.4,6.3-13.2 M17.8,141.6
	c0,0,7.1,19.7,10.3,25.1c3.2,5.3,11.9,16.2,14.7,18.2c2.8,2,5.7,3.8,9.2,4.3c3.5,0.5,11.2-0.6,15.6-1.4c4.4-0.8,52.9-11.9,56.1-12.8
	c3.2-0.9,23.1-6.6,26.3-8.1c3.2-1.5,9.6-3.8,12.7-6.4c3.1-2.6,4.3-4.6,5.3-6.7c1.1-2.1,2.9-7.9,2.9-10.8 M108.7,61.3
	c-3-0.4-51.4,8.2-56.1,9.1s-26.1,5.2-30.4,6.4s-8.6,5.3-10.5,7.8S7.3,93.2,6.9,95c-0.5,1.8-1.2,3.7-2,4.1s-2.3,0.5-3.1,2.8
	s-0.9,5.2-0.8,9.5c0.2,4.3,1.4,12.7,2,15.1c0.6,2.4,7,25.1,9,29.6c2,4.6,7.3,13.8,9.6,17.4s8.1,9.8,9.8,11.3c1.7,1.5,2.8,2.1,7,3.8
	c4.3,1.7,11.3,0,11.3,0 M114.3,130.4c0,1.1,0.6,1.8,1.1,2.7c0.6,0.9,15.2,1.3,15.2,1.3s16.3,1.4,17.9,1c1.6-0.4,1.7-1.3,1.7-2.8
	c0-1.6-1.4-2.6-2.4-3c-1-0.4-14.9-0.9-16.6-1c-1.7-0.1-14.7-1.2-15.7-0.6C115.5,128,114.3,129.1,114.3,130.4z M307.9,88.2
	c-3.7,2.5-3.9,8.5-3.1,11.2c0.8,2.7,3.7,6.2,7.2,4.8c3.5-1.4,5-3.7,5-9.4C317,89,311.6,85.6,307.9,88.2z M174,155.1
	c0,0,40.2-3.8,45.4-4.4s22.4-3.6,25.7-4.2c3.3-0.6,33.3-6.9,35-7.2c1.8-0.2,2.1-0.4,2.7,0.7c0.6,1.2,0.9,3.6,2.2,4.9
	c1.3,1.4,2.4,2.3,4.6,2.9c2.2,0.6,4.2,0.1,5.8-0.1s16.1-4.3,18.3-5s8.7-2.2,10.4-3.7c1.7-1.5,3.9-4,5.1-6c1.2-2,1.8-4.6,2.2-5.6
	c0.4-0.9,0.4-0.5,1.6-0.9s8.3-3.6,11-5.1c2.7-1.5,7.2-3.7,8.1-4.4 M141.2,80.9c0.1,0.6,0.4,1.1,1.4,1.4c0.9,0.3,2.4,0.7,5.4-0.9
	c3-1.6,20-6.7,22.8-7.6c2.8-0.8,23.4-5.4,25.6-5.7c2.2-0.3,4-1.1,3.7-2.7c-0.3-1.6-1.6,0-3.7,0s-23.3,3.8-25.6,4.3
	c-2.3,0.5-21.4,4.3-24.7,5.4c-3.2,1.1-4.6,3-4.9,4.9C141.2,80,141.2,80.3,141.2,80.9z M200.2,128.9c4.6,1.5,19.5-1.8,24-2.2
	s17.1-2.2,21.7-4.4s7.4-9,6.8-15.3s-8.2-12.5-13.3-12.2s-16.3,2-18.1,2.2c-1.8,0.2-17.5,1.6-22.7,3.2c-5.2,1.6-8.9,8.9-8.3,14.7
	C190.8,120,192.6,126.5,200.2,128.9z M360.3,61.6c0,0-8.7,3.8-10.7,7.1c-2.1,3.3-2.1,13.7-1.6,15.5s1.1,8,3.2,9.6
	c2.1,1.6,4.1-1,5.5-2c1.3-1,5-3.9,5-3.9 M384.2,188.7l51.7,62L392.8,282l-57.4-18.8L384.2,188.7z M392.8,282l-8.5-93.1"/>
<path id="hololens-side-animated-svg" opacity="0.5" fill="none" stroke="#1CABC4" stroke-width="2" stroke-linecap="round" stroke-linejoin="round" d="
	M384.3,188.9l-2,51.5l-46.9,22.8 M435.7,250.9l-53.4-10.5 M311.3,131.5l73.1,57.4 M311.3,131.5l70.3,106.8 M335.4,263.2l-24.2-131.7
	"/>
</svg>
