<?xml version="1.0" encoding="utf-8"?>
<!-- Generator: Adobe Illustrator 28.3.0, SVG Export Plug-In . SVG Version: 6.00 Build 0)  -->
<svg version="1.1" id="Layer_1" xmlns="http://www.w3.org/2000/svg" xmlns:xlink="http://www.w3.org/1999/xlink" x="0px" y="0px"
	 viewBox="0 0 480 330" enable-background="new 0 0 480 330" xml:space="preserve">
<g id="ozone-text">
	<text transform="matrix(1 0 0 1 14.9721 71.9404)" fill="#1CABC4" font-family="'Helvetica-Bold'" font-size="14px">&gt;</text>
	<text transform="matrix(1 0 0 1 14.2724 45.4717)" fill="#1CABC4" font-family="'Helvetica-Bold'" font-size="14px">Ozone</text>
</g>
<path id="ozone-animated-svg" fill="none" stroke="#1CABC4" stroke-width="2" stroke-miterlimit="10" d="M474.5,10.7
	c0-2.8-2.3-5.1-5.1-5.1H10.6 M469.4,324.4c2.8,0,5.1-2.3,5.1-5.1V10.7 M5.5,319.3c0,2.8,2.3,5.1,5.1,5.1h458.7 M10.6,5.6
	c-2.8,0-5.1,2.3-5.1,5.1v308.5 M474.5,53.3H5.5 M474.5,24.1v20.3 M5.5,27.2h469 M16.3,11.7c-2.6,0-4.7,2.1-4.7,4.7s2.1,4.7,4.7,4.7
	S21,19,21,16.4S18.9,11.7,16.3,11.7z M32.7,11.7c-2.6,0-4.7,2.1-4.7,4.7s2.1,4.7,4.7,4.7s4.7-2.1,4.7-4.7S35.3,11.7,32.7,11.7z
	 M48.4,11.7c-2.6,0-4.7,2.1-4.7,4.7s2.1,4.7,4.7,4.7c2.6,0,4.7-2.1,4.7-4.7S51,11.7,48.4,11.7z M25.5,73.6h8.3 M299.3,203
	c1.5-17.6-1.2-35.6-7.1-50.1 M287.7,241.5c5.6-9.5,9.1-20.4,10.8-31.7 M279.4,242.4c5.6-12.4,10.3-26.2,11-43.8 M290.5,195.1
	c0.1-11.5-1.6-24.6-5.9-39.8 M271.5,243.8c0.7-1.7,1.4-3.5,2.1-5.5 M275.6,232c5.4-19.5,7.1-46.4,0.9-75.1 M260.5,245
	c1.9-6.5,3.4-15.2,4.4-25 M265.1,217.6c1.6-17.8,1.4-39.2-1.3-59.4 M250,237.6c1.6-19.1,2.6-52.6,0.8-78.4 M191.9,152.6
	c-4.6,11.2-7.2,24.4-7.5,37.9 M184.4,197.9c0.7,15.2,4.6,30.9,12,43.5 M193.8,187.3c-1.4,23.1,4.2,40.8,10.9,55.7 M199.5,155.4
	c-3,10.6-4.7,20.2-5.4,28.9 M212,242.3c0.3,0.8,0.3,0.8,0.6,1.5 M207.6,156.9c-6.4,29.8-4.5,57.1,1.4,76.7 M218.8,214.5
	c0.9,11.8,2.6,22.7,4.9,30.4 M220.4,158.3c-2.4,17.6-2.9,35.2-1.9,51.2 M233.3,159.2c-2.1,29.8-0.4,69.7,1.5,86.1 M179.2,197.8
	c-1-14.9,2-30,10.6-47.1 M206.7,243.5c-6.2-0.9-11.4-2-15.1-3.4l-0.3-0.4c-5.4-11.7-9.1-22.2-11-33 M243.3,245.6
	c-11.1,0-22.2-0.5-31.7-1.5 M275,243.7c-7.5,1-15.8,1.6-24.7,1.8 M301.1,217.2c-1.9,7.2-4.6,14.6-8.2,22.4l-0.2,0.1
	c-3.7,1.5-7.9,2.5-13.9,3.4 M303.1,207.5c-0.1,0.6-0.1,0.6-0.2,1.1 M295,151.4c8.2,21.2,10.8,38.5,8.1,56.1 M192.4,146.6
	c-0.4,0.2-0.8,0.3-1,0.5c-3.1,2.1-2.4,3.6-2.4,3.6c14.9,12.5,100.3,8.7,106.4,0c0,0,0.7-1.3-1.5-2.9 M288.4,145.9
	c-1.9-0.4-3.8-0.6-6.5-1 M232.2,141.8c-1.4,0.1-2.7,0.1-4.1,0.2 M222,142.5c-2.5,0.2-5.1,0.4-7.6,0.7 M220.7,144.8
	c-1.6,0.1-3.1,0.1-4.6,0.2 M232.7,144.5c-1.3,0-2.7,0.1-4.1,0.1 M218,148.4c-1.3-3.3-3.8-5.5-7-8.3s-14.6-6.2-14.6-6.2
	s-9.6-2.8-11.2-7.4c-1.6-4.6-7.1-12.5-7.1-12.5c1.1,6.5,1.3,8.8-1.4,12.9c-2.7,4.1-5.6,5.4-8.7,7.8l1.1,1.5c0,0,6.2-2.3,8.2-2.7
	s3.1-1.1,4.3-0.4c1.3,0.8,3.7,1.4,7.3,5.9s3.8,10.6,3.8,10.6l0.3,1.1c14.9,12.5,88.2,8.7,94.3,0 M231.2,158.3
	c0.3-10.2-0.9-7.6-2.2-12.5c-1.3-5-0.1-9.4-0.1-9.4s1.3-4.2,4.7-8.4c3.5-4.2,3.7-6.9,3.7-6.9s-2.8,2.8-8.6,4.1
	c-5.7,1.3-11.3-1.7-16.1-2.9c-4.8-1.3,7.8,7.8,8.2,8.2s1.5,1,2,2.6c0.5,1.5,0.1,7-0.6,8.9c-0.8,1.9-2.9,5.5-5.7,7.8
	s-4.8,4.4-5.2,7.4 M212.1,141c0.5-1.3,1-2.6,1.4-3.8 M215.7,130.2c0.3-1,0.5-2,0.7-3 M217.1,123.2c1.2-10-2.3-12.3-2.3-12.3
	c-13.8,5.6-16.5,23.1-16.5,23.1 M237.3,140.3c0,0,0.2-7.9,1-12.8c0.8-4.9,0.7-17.3-12.7-23.2c0,0-5.2,3.4-4.5,19.5 M231,150.9
	c4-5.9-1.5-15.9-1.5-15.9 M235.3,158.6c5.5-5.3,2.9-10.8,2.9-10.8c-3.2,4.9-7.8,2.9-7.8,2.9 M200.9,125.7c0,0-4.4,3.8-6,7.6
	 M263.4,128.4c5.8-11.3-0.1-16.3-0.1-16.3c-10.5,1.2-16.4,11.5-21.8,31.4 M245.2,131.8c-4.1-1.1-7.5-0.5-7.5-0.5 M249.5,121.9
	c0,0-6.3-0.4-11.4,6.5 M238.3,147.8c2.3-4,7.5-9.4,11.2-9.8c3.7-0.4,8.8-1.9,10.7-3.7c1.9-1.8,6.2-5.1,6.3-7.7
	c0.1-2.6-1.1-3.3-1.1-3.3 M288.4,143.5c-8.3,0.8-9.5,3.1-9.5,3.1 M292.8,142c7.3-4,14.7-14.4,14.9-16.8c0,0-14.9-13.1-31.7,13.1
	c0,0-3,1.8-8.2-2.2 M282.8,152.9c0,0-6.4-11.4-11.3-14.7 M257.3,155.6c4.2,1.7,18.2-8.6,13.5-7s-8.2-1.5-8.2-1.5 M241.1,143.4
	c0,0-3.7-3-3.8-3.8s-1,4.2-3.7,4.7c-2.7,0.4,4.9,2.4,4.9,2.4 M288,125.2c0,0-7.2-1.9-13.1,0.2 M292.7,137.8l-3.4,2.6
	c0,0-1.7,5.4-2.2,9.3c-0.5,3.8,6.8-1.3,6.8-1.3L292.7,137.8z M297.3,138.6c0,0,1.8,2.3,2.4,4.4c0,0,2.5-3.8,5.7-4.4
	c0,0-3.1-1.7-4.1-3.5 M255.6,157.9c0,0,7.6-9.4,8.3-15c0.7-5.6,6.4-9.1,8.6-10.1s9.2-2.2,12.4-5.7c0,0-6.9,0.9-11.4-2.7
	c-4.5-3.6-5.3-8.2-8.3-9.1 M212.1,134.8c0,0,2.9,6.1,3.8,4.8c0.9-1.3-0.1-1.9,0.7-4s3.1-4,1.4-5.2c-1.6-1.2-4.7,0.7-4.7,0.7
	L212.1,134.8z M220.9,130.3c0,0-3.4,1.8-1.3,3c2.1,1.2,3.5,4.4,3.5,4.4 M265.5,129.5c-0.8-0.7-4.2-2-4.2-2c-1,1.2-2.6,3.5-2.1,3.9
	c1.7,1.3,1,2.9,1,2.9 M246.1,191.2c0.6-0.7,0.9-1.8,0.9-2.9c0-2.3-1.4-4.1-3.2-4.1s-3.2,1.8-3.2,4.1c0,2,1.2,3.7,2.7,4 M287,193.7
	c-0.3-1.7-1.3-2.9-2.5-2.9c-1.4,0-2.6,1.8-2.6,4.1s1.2,4.1,2.6,4.1c1,0,1.9-0.9,2.3-2.2 M194.2,187.3c0.3,2,1.3,3.5,2.4,3.5
	c1.4,0,2.6-2.2,2.6-5s-1.1-5-2.6-5c-1.2,0-2.1,1.5-2.4,3.5 M224.8,206.1c0.5,1.4,1.3,2.4,2.3,2.4c1.5,0,2.6-2.2,2.6-4.8
	s-1.2-4.8-2.6-4.8c-1.5,0-2.6,2.2-2.6,4.8 M263.6,216.8c0-0.2,0-0.4,0-0.6c0-2.5-1.2-4.5-2.8-4.5c-1.5,0-2.8,2-2.8,4.5
	s1.2,4.5,2.8,4.5c1,0,1.8-0.8,2.3-2 M196.7,183.6c0,0-9.1,0.8-15.4,10.6c-6.3,9.9-16,39.8-15.8,51.2c0,0,2.5,2.7,7.1,1
	c0,0,4.4-29.7,5.8-33.9c1.3-4.3,7.3-23.2,18.5-26.3 M205.5,249.1c0,0-5.7-1.3-6-0.9s2.3,2.6,3.8,3.3c1.6,0.6-5.1-0.6-5.9,0
	c-0.8,0.6,5.3,1.8,6.8,1.7s-4.3,1-3.4,1.8c0.9,0.8,4.7,0,5.3-0.4s3.5-0.3,4.3,0c0.9,0.3,4.3,3.2,3.3,0.4c-0.9-2.6,3.5-1.9,4.3-1.6
	c0.7,0.3-1.7-2.8-3.4-2.7s2.7-1.3,3.4-2.2c0.6-0.9-6,0.3-6.8,1.1 M165.3,244.2c0,0-4.8-0.1-5.1,0.2s2.2,1.2,3.8,1.9
	c1.6,0.6-4.1,0.6-4.9,1.1c-0.8,0.6,4.3,0.7,5.9,0.6s-0.9,1,0,1.9c0.9,0.8,4.1-0.1,4.6-0.5s4.3,0.7,5,0.9c0.9,0.3,2.9-0.9,0.3-1.8
	s4.1-1.4,4.9-1.2c0.7,0.3-2.8-1.9-4.5-1.8s2.7-1.3,3.4-2.2c0.6-0.9-4.8,0.2-5.7,1 M227.1,202.2c-4.6,2.5-9.8,6.7-12.6,14
	s-9,29.2-9,34.7c0,0,3.7,2.7,5.6,0.4c0,0,1.6-16.5,3.3-23.7s6-20.4,13.2-23 M243.3,187.6c0,0,0.9,35.8,0.6,38.7
	c-0.3,2.9-0.6,28-1.3,29.1c0,0,3.8,3.1,7.9,0c0,0-0.9-33.4-1.3-39.7c-0.4-6.3-2.5-24.9-4.4-28.1 M259.6,217.3c0,0,6.7,1.4,9.8,8.7
	c3.1,7.3,7.1,21,6.6,26.8c0,0,3.3,1.5,5.2-0.6c0,0-4-17.6-6.4-22.2c-2.4-4.6-6-12.3-14.3-14.4 M284,195.8c8,1.9,13.2,9.3,15.7,17.3
	s7.6,22.9,7.4,33.2c0,0,3.3,2.7,7.3-0.8c0,0-6.1-25.8-9.5-32.8c-3.4-7.1-8.8-16.9-20.5-19.7 M242.9,254.6c0,0-5.4-2.8-5.7-2.4
	c-0.3,0.4,2.9,3.9,4.5,4.5s-6.7-1-7.5-0.5c-0.8,0.6,6.9,2.3,8.5,2.1s-4.6,0.9-3.7,1.8c0.9,0.8,6.3-0.3,6.9-0.7
	c0.6-0.4,0.7,1.9,1.4,2.2c0.9,0.3,1.2-2.5,3.4-2.4c2.8,0.1,2.9,1.2,4.8,0.6c0.8-0.3-0.7-4-2.4-3.8c-1.7,0.2,4.2-1,4.8-2
	c0.6-0.9-6.3-1.1-7.2-0.3 M275.9,249.7c0,0-7.3-0.7-8.6,0.8c-0.3,0.4,3.9,1.8,5.5,2.5c1.6,0.6-5.2,0.8-6,1.3s5.4,0.5,6.9,0.4
	s0.7,1.2,0.9,2.7c0.2,1.2,3.2-0.9,3.7-1.3c0.6-0.4,3.4,1.4,4.2,1.7c0.9,0.3,3.8-1.7,1.2-2.6c-2.6-0.9,5.5-1.1,5.9-1.8
	c1.1-1.6-3.8-1.3-5.5-1.2s3.6-5.1,2.5-4.9c-4.3,0.6-5.3,1.3-6.2,2.1 M307.1,243.8c0,0-4.6-0.9-4.9-0.5s0.6,1.7,2.2,2.4
	c1.6,0.6-3.8-0.3-4.6,0.3c-0.8,0.6,3.4,2,5,1.9s-2.7,2.9-1.8,3.7c0.9,0.8,5.6-1.8,6.2-2.1c0.6-0.4,1.2,2.4,2,2.6
	c0.9,0.3,2-5.4,4.1-3.6c0.6,0.5,3.2,1.7,3.9,2s-0.1-2.4-1.5-3.7c-1.3-1.1,1.7-3.4,2.3-4.3c0.6-0.9-4.8,0.2-5.7,1"/>
</svg>
