<?xml version="1.0" encoding="utf-8"?>
<!-- Generator: Adobe Illustrator 26.4.1, SVG Export Plug-In . SVG Version: 6.00 Build 0)  -->
<svg version="1.1" id="Layer_1" xmlns="http://www.w3.org/2000/svg" xmlns:xlink="http://www.w3.org/1999/xlink" x="0px" y="0px"
	 viewBox="0 0 410.6 253.7" style="enable-background:new 0 0 410.6 253.7;" xml:space="preserve">
<path id="rv32i-processor-animated-svg" style="fill:none;stroke:#1CABC4;stroke-width:2;stroke-miterlimit:10;" d="M305.7,215
	c0,6.8-5.5,12.3-12.3,12.3H117.2c-6.8,0-12.3-5.5-12.3-12.3V38.7 M104.9,38.7c0-6.8,5.5-12.3,12.3-12.3h176.3
	c6.8,0,12.3,5.5,12.3,12.3V215 M291.3,209.2V44.5c0-1.9-1.6-3.6-3.6-3.6H122.9c-1.9,0-3.6,1.6-3.6,3.6 M119.2,44.5v164.8
	c0,1.9,1.6,3.6,3.6,3.6h164.8c1.9,0,3.6-1.6,3.6-3.6 M205.2,0.9v25.5 M225.7,0.9v25.5 M246.2,0.9v25.5 M266.7,0.9v25.5 M143.8,0.9
	v25.5 M164.3,0.9v25.5 M184.8,0.9v25.5 M205.2,227.3v25.5 M225.7,227.3v25.5 M246.2,227.3v25.5 M266.7,227.3v25.5 M143.8,227.3v25.5
	 M164.3,227.3v25.5 M184.8,227.3v25.5 M305.7,126.8h25.5 M305.7,106.3h25.5 M305.7,85.8h25.5 M305.7,65.3h25.5 M305.7,188.3h25.5
	 M305.7,167.8h25.5 M305.7,147.3h25.5 M79.4,126.8h25.5 M79.4,106.3h25.5 M79.4,85.8h25.5 M79.4,65.3h25.5 M79.4,188.3h25.5
	 M79.4,167.8h25.5 M79.4,147.3h25.5 M145.5,129.1h-2v9.4c0,1.2-0.3,2.2-0.8,2.8c-0.5,0.6-1.2,0.9-2.2,0.9c-0.9,0-1.6-0.3-2.2-0.9
	c-0.5-0.6-0.8-1.5-0.8-2.7V116c0-1.2,0.3-2.3,0.8-2.8c0.6-0.6,1.5-0.8,2.8-0.8h9.6c1.3,0,2.5,0.1,3.4,0.2c0.9,0.1,1.8,0.3,2.6,0.7
	c0.9,0.4,1.7,0.9,2.5,1.6s1.2,1.5,1.6,2.6c0.4,0.9,0.5,1.9,0.5,3.1c0,2.2-0.6,3.9-1.8,5.2c-1.2,1.3-3.1,2.3-5.6,2.8
	c1,0.5,2,1.4,3,2.5c0.9,1.1,1.8,2.3,2.6,3.5c0.7,1.2,1.3,2.4,1.7,3.4c0.4,1,0.6,1.6,0.6,2s-0.1,0.8-0.4,1.1c-0.2,0.4-0.6,0.7-1,0.9
	s-0.9,0.3-1.4,0.3c-0.7,0-1.2-0.2-1.6-0.5c-0.4-0.3-0.8-0.7-1.1-1.2c-0.3-0.5-0.8-1.2-1.3-2.2l-2.4-4c-0.8-1.4-1.6-2.6-2.3-3.3
	c-0.7-0.7-1.3-1.2-2-1.5C147.5,129.2,146.7,129.1,145.5,129.1z M149,116.7h-5.5v8.1h5.3c1.4,0,2.7-0.1,3.6-0.4
	c1-0.2,1.7-0.7,2.3-1.2c0.5-0.6,0.8-1.4,0.8-2.5c0-0.8-0.2-1.5-0.6-2.2c-0.4-0.6-1-1.1-1.7-1.4C152.4,116.9,151.1,116.7,149,116.7z
	 M167.4,138.5v-23.1c0-1.2,0.3-2.2,0.8-2.7c0.5-0.6,1.2-0.9,2.2-0.9c0.9,0,1.6,0.3,2.2,0.9c0.5,0.6,0.8,1.5,0.8,2.7v23.1
	c0,1.2-0.3,2.2-0.8,2.8c-0.5,0.6-1.2,0.9-2.2,0.9c-0.8,0-1.5-0.3-2.2-0.9C167.6,140.5,167.4,139.6,167.4,138.5z M202.2,132.7
	c0,1.7-0.4,3.4-1.3,4.8s-2.3,2.6-4,3.3c-1.7,0.7-3.9,1.2-6.2,1.2c-2.9,0-5.3-0.5-7.2-1.6c-1.3-0.8-2.5-1.8-3.3-3.2
	c-0.8-1.3-1.2-2.6-1.2-3.8c0-0.7,0.2-1.3,0.7-1.8s1.1-0.8,1.9-0.8c0.6,0,1.1,0.2,1.6,0.6c0.4,0.4,0.8,1,1.1,1.7
	c0.4,0.9,0.8,1.7,1.2,2.4c0.4,0.6,1,1.1,1.8,1.5s1.8,0.6,3.1,0.6c1.7,0,3.2-0.4,4.3-1.2c1.1-0.8,1.6-1.8,1.6-3.1
	c0-1-0.3-1.7-0.9-2.4s-1.3-1-2.3-1.4c-0.9-0.4-2.2-0.6-3.8-1c-2.2-0.5-3.9-1-5.3-1.7c-1.4-0.7-2.6-1.5-3.4-2.7
	c-0.8-1.1-1.2-2.6-1.2-4.3c0-1.6,0.4-3.1,1.3-4.3s2.2-2.3,3.8-2.9c1.6-0.7,3.6-1,5.8-1c1.8,0,3.4,0.2,4.7,0.7c1.3,0.4,2.4,1,3.3,1.7
	c0.8,0.7,1.5,1.5,1.9,2.4s0.6,1.6,0.6,2.4s-0.2,1.3-0.7,1.9c-0.5,0.6-1.1,0.8-1.8,0.8s-1.2-0.2-1.5-0.5c-0.3-0.3-0.7-0.9-1.1-1.6
	c-0.5-1.1-1.1-1.9-1.9-2.6c-0.7-0.6-1.9-0.9-3.6-0.9c-1.5,0-2.8,0.3-3.7,1c-0.9,0.7-1.4,1.4-1.4,2.5c0,0.6,0.2,1.1,0.5,1.5
	c0.3,0.4,0.7,0.8,1.3,1.1c0.5,0.3,1.1,0.5,1.7,0.7s1.5,0.4,2.9,0.7c1.6,0.4,3.2,0.8,4.5,1.2c1.3,0.5,2.5,1,3.4,1.7
	c0.9,0.7,1.6,1.5,2.2,2.6C201.9,130.1,202.2,131.3,202.2,132.7z M232.2,132.3c0,0.9-0.2,1.9-0.7,3.1c-0.4,1.1-1.2,2.2-2.2,3.2
	c-1,1-2.3,1.9-3.8,2.6s-3.3,1-5.3,1c-1.5,0-3-0.1-4.2-0.4c-1.2-0.3-2.5-0.7-3.5-1.3c-1-0.6-1.9-1.4-2.9-2.5
	c-0.8-0.9-1.4-1.9-1.9-3.1s-0.9-2.4-1.2-3.7c-0.3-1.3-0.4-2.7-0.4-4.1c0-2.4,0.3-4.5,1-6.4c0.7-1.8,1.6-3.5,3-4.8
	c1.2-1.3,2.8-2.4,4.5-3.1c1.7-0.7,3.6-1,5.5-1c2.4,0,4.5,0.5,6.4,1.4c1.8,0.9,3.3,2.2,4.3,3.5c1,1.4,1.4,2.7,1.4,4
	c0,0.7-0.2,1.2-0.7,1.8s-1,0.8-1.7,0.8c-0.7,0-1.3-0.2-1.7-0.5c-0.4-0.3-0.8-1-1.2-1.8c-0.8-1.4-1.6-2.6-2.8-3.3
	c-1-0.7-2.4-1.1-3.9-1.1c-2.5,0-4.4,0.9-5.8,2.8c-1.4,1.8-2.2,4.5-2.2,7.9c0,2.3,0.3,4.2,0.9,5.7c0.6,1.5,1.5,2.7,2.8,3.4
	c1.1,0.7,2.6,1.1,4.1,1.1c1.7,0,3.2-0.4,4.3-1.2c1.2-0.8,2-2,2.7-3.7c0.2-0.8,0.6-1.4,0.9-1.8c0.4-0.5,1-0.7,1.8-0.7
	c0.7,0,1.3,0.2,1.8,0.7C232,131,232.2,131.6,232.2,132.3z M244.4,133.4H238c-0.9,0-1.7-0.2-2.2-0.7c-0.5-0.4-0.7-1-0.7-1.7
	c0-0.7,0.2-1.3,0.7-1.7c0.5-0.4,1.2-0.7,2.3-0.7h6.4c1,0,1.7,0.2,2.3,0.7c0.5,0.4,0.7,1,0.7,1.7c0,0.7-0.2,1.3-0.7,1.7
	C246.1,133.1,245.3,133.4,244.4,133.4z M255.5,115.6l6.7,19.7l6.7-19.8c0.3-1,0.6-1.7,0.8-2.2c0.2-0.4,0.4-0.8,0.8-1.1
	c0.4-0.3,0.9-0.5,1.6-0.5c0.5,0,1,0.1,1.4,0.4c0.4,0.2,0.8,0.6,1,1c0.2,0.4,0.4,0.8,0.4,1.2c0,0.3,0,0.6-0.1,0.9
	c-0.1,0.3-0.2,0.7-0.3,1c-0.1,0.3-0.2,0.6-0.4,1l-7.1,19.2c-0.2,0.7-0.5,1.4-0.7,2c-0.2,0.6-0.5,1.2-0.9,1.7
	c-0.4,0.5-0.8,0.9-1.3,1.2c-0.5,0.3-1.2,0.5-2,0.5s-1.4-0.2-2-0.5c-0.6-0.3-1-0.7-1.3-1.2c-0.3-0.5-0.6-1.1-0.9-1.7
	c-0.2-0.6-0.5-1.3-0.7-2l-7-19.1c-0.1-0.3-0.2-0.7-0.4-1c-0.1-0.3-0.2-0.7-0.3-1.1c-0.1-0.4-0.1-0.7-0.1-1c0-0.7,0.3-1.3,0.8-1.8
	s1.2-0.8,2-0.8c1,0,1.7,0.3,2.2,0.9C254.7,113.2,255.1,114.3,255.5,115.6z"/>
</svg>
